# Blender 3.5.0
# www.blender.org
mtllib elevator1.mtl
o elevator1
v -13.450516 3.116709 -3.147852
v -13.357796 3.263357 -3.240572
v -13.450516 3.116709 -4.578389
v -13.357796 3.263357 -4.485669
v -12.258505 3.116709 -3.147852
v -12.351225 3.263357 -3.240572
v -12.258505 3.116709 -4.578389
v -12.351225 3.263357 -4.485669
v -13.450516 3.263357 -3.147852
v -13.450516 3.263357 -4.578389
v -12.258505 3.263357 -4.578389
v -12.258505 3.263357 -3.147852
v -13.450516 3.563755 -3.147852
v -13.450516 3.563755 -4.578389
v -12.258505 3.563755 -4.578389
v -12.258505 3.563755 -3.147852
v -13.357796 3.563755 -3.240572
v -13.357796 3.563755 -4.485669
v -12.351225 3.563755 -4.485669
v -12.351225 3.563755 -3.240572
vn -1.0000 -0.0000 -0.0000
vn -0.0000 -0.0000 -1.0000
vn 1.0000 -0.0000 -0.0000
vn -0.0000 -0.0000 1.0000
vn -0.0000 -1.0000 -0.0000
vn -0.0000 1.0000 -0.0000
vn 0.7071 -0.0000 0.7071
vn -0.7071 -0.0000 0.7071
vt 0.250000 0.332910
vt 0.333370 0.332910
vt 0.333370 0.000001
vt 0.324092 0.435422
vt 0.365777 0.064815
vt 0.282408 0.435422
vt 0.750000 0.332910
vt 0.333370 0.332910
vt 0.333370 1.000000
vt 0.365777 0.935185
vt 0.717593 0.435422
vt 0.365777 0.435422
vt 0.250000 0.332910
vt 0.750000 0.332910
vt 0.750000 0.000001
vt 0.717593 0.064815
vt 0.282408 0.435422
vt 0.750000 0.332910
vt 0.750000 1.000000
vt 0.717593 0.935185
vt 0.717593 0.435422
vt 0.333370 0.435422
vt 0.291685 0.435422
vt 0.333370 0.000001
vt 0.250000 0.435422
vt 0.333370 0.435422
vt 0.750000 0.435422
vt 0.750000 0.435422
vt 0.750000 0.435422
vt 0.750000 0.000001
vt 0.250000 0.435422
vt 0.291685 0.645412
vt 0.333369 0.000000
vt 0.250000 0.645412
vt 0.333370 0.645412
vt 0.333370 1.000000
vt 0.750000 0.645412
vt 0.750000 1.000000
vt 0.750000 0.645412
vt 0.750000 0.000001
vt 0.250000 0.645412
vt 0.324092 0.645411
vt 0.365777 0.064815
vt 0.282408 0.645412
vt 0.365777 0.935185
vt 0.717593 0.645412
vt 0.365777 0.645412
vt 0.717593 0.935185
vt 0.717593 0.645412
vt 0.717593 0.064815
vt 0.282408 0.645412
s 0
usemtl ElePlat
f 1/1/1 9/25/1 10/27/1 3/7/1
f 3/8/2 10/26/2 11/28/2 7/18/2
f 7/18/3 11/28/3 12/31/3 5/13/3
f 5/14/4 12/29/4 9/22/4 1/2/4
f 3/9/5 7/19/5 5/15/5 1/3/5
f 8/20/6 4/10/6 2/5/6 6/16/6
f 8/21/1 6/17/1 20/51/1 19/49/1
f 11/28/2 10/26/2 14/35/2 15/39/2
f 9/23/7 2/4/7 17/42/7 13/32/7
f 6/16/6 2/5/6 9/24/6 12/30/6
f 17/43/6 18/45/6 14/36/6 13/33/6
f 18/45/6 19/48/6 15/38/6 14/36/6
f 19/48/6 20/50/6 16/40/6 15/38/6
f 2/6/3 4/11/3 18/46/3 17/44/3
f 6/17/8 12/31/8 16/41/8 20/51/8
f 12/31/3 11/28/3 15/39/3 16/41/3
f 4/12/4 8/21/4 19/49/4 18/47/4
f 10/27/1 9/25/1 13/34/1 14/37/1
