# Blender 3.5.0
# www.blender.org
mtllib madPlats.mtl
o madPlats
v -13.590376 1.641136 -0.879220
v -13.590376 1.066115 -0.879220
v -13.590376 1.641136 1.192534
v -13.590376 1.066115 1.192534
v -14.866087 1.641136 -0.879220
v -14.866087 1.066115 -0.879220
v -14.866087 1.641136 1.192534
v -14.866087 1.066115 1.192534
v -18.371744 4.607452 -4.848805
v -18.371744 4.032432 -4.848805
v -18.371744 4.607452 -2.777051
v -18.371744 4.032432 -2.777051
v -19.647455 4.607452 -4.848805
v -19.647455 4.032432 -4.848805
v -19.647455 4.607452 -2.777051
v -19.647455 4.032432 -2.777051
v -23.014635 5.769107 2.530181
v -23.014635 5.194087 2.530181
v -23.014635 7.060297 4.601935
v -23.014635 6.485276 4.601935
v -24.290346 5.769107 2.530181
v -24.290346 5.194087 2.530181
v -24.290346 7.060297 4.601935
v -24.290346 6.485276 4.601935
v -18.631672 10.110151 5.895890
v -18.631672 9.535131 5.895890
v -18.631672 9.535131 4.601935
v -18.631672 10.110151 4.601935
v -23.014635 6.485276 5.895890
v -24.290346 6.485276 5.895890
v -24.290346 7.060297 5.895890
v -23.014635 7.060297 5.895890
v -14.853033 10.110151 3.376903
v -14.853033 9.535131 3.376903
v -14.853033 9.535131 2.082948
v -14.853033 10.110151 2.082948
v -13.460255 10.110151 3.376903
v -13.460255 9.535131 3.376903
v -13.460255 10.110151 2.082948
v -13.460255 9.535131 2.082948
v -14.853033 12.435673 -3.525264
v -14.853033 11.860653 -3.525264
v -14.853033 11.860653 -4.819219
v -14.853033 12.435673 -4.819219
v -13.460255 12.435673 -3.525264
v -13.460255 11.860653 -3.525264
v -13.460255 12.435673 -4.819219
v -13.460255 11.860653 -4.819219
v -22.616858 16.360683 3.664220
v -22.616858 15.785663 3.664220
v -22.616858 15.785663 7.742231
v -22.616858 16.360683 7.742231
v -24.009636 16.360683 3.664220
v -24.009636 15.785663 3.664220
v -24.009636 16.360683 7.742231
v -24.009636 15.785663 7.742231
v -19.557701 14.510804 -0.775689
v -19.557701 13.935784 -0.775689
v -19.557701 13.935784 0.518266
v -19.557701 14.510804 0.518266
v -20.950480 14.510804 -0.775689
v -20.950480 13.935784 -0.775689
v -20.950480 14.510804 0.518266
v -20.950480 13.935784 0.518266
vn -0.0000 1.0000 -0.0000
vn -0.0000 -1.0000 -0.0000
vn -0.0000 -0.0000 1.0000
vn 1.0000 -0.0000 -0.0000
vn -0.0000 -0.0000 -1.0000
vn -1.0000 -0.0000 -0.0000
vn -0.0000 0.8487 -0.5289
vn -0.0000 -0.8487 0.5289
vn 0.5712 -0.8208 -0.0000
vn -0.5712 0.8208 -0.0000
vt -1.559129 1.926168
vt 1.926168 0.910189
vt -1.559129 0.910189
vt -1.559129 1.926168
vt 1.926168 0.766434
vt -1.559129 0.766434
vt -1.559129 1.408229
vt -1.559129 0.910189
vt 1.408229 0.910189
vt -1.559129 1.408229
vt -1.559129 0.766434
vt 1.408229 0.766434
vt -1.878057 1.926168
vt -1.878057 0.910189
vt 1.926168 0.910189
vt -1.878057 1.926168
vt -1.878057 0.766434
vt 1.926168 0.766434
vt -1.878057 1.408229
vt -1.878057 0.910189
vt 1.408229 0.910189
vt -1.878057 1.408229
vt -1.878057 0.766434
vt 1.408229 0.766434
vt -2.754471 2.918564
vt 2.918564 1.651768
vt -2.754471 1.651768
vt -2.754471 2.918564
vt 2.918564 1.508013
vt -2.754471 1.508013
vt -2.754471 2.400626
vt -2.754471 1.651768
vt 2.400626 1.651768
vt -2.754471 2.400626
vt -2.754471 1.508013
vt 2.400626 1.508013
vt -3.073399 2.918564
vt -3.073399 1.651768
vt 2.918564 1.651768
vt -3.073399 2.918564
vt -3.073399 1.508013
vt 2.918564 1.508013
vt -3.073399 2.400626
vt -3.073399 1.651768
vt 2.400626 1.651768
vt -3.073399 2.400626
vt -3.073399 1.508013
vt 2.400626 1.508013
vt -3.915194 1.073818
vt 1.073818 1.942182
vt -3.915194 1.942182
vt -3.915194 1.073818
vt 1.073818 1.798427
vt -3.915194 1.798427
vt -3.915194 2.264979
vt 0.555879 2.264979
vt -3.915194 0.555879
vt -3.915194 2.121224
vt 0.555879 2.121224
vt -3.915194 0.555879
vt -4.234122 1.073818
vt -4.234122 1.942182
vt 1.073818 1.942182
vt -4.234122 1.073818
vt -4.234122 1.798427
vt 1.073818 1.798427
vt 0.555879 2.264979
vt -4.234122 0.555879
vt 0.555879 2.121224
vt -4.234122 0.555879
vt 0.232390 3.027443
vt -2.819453 3.027443
vt -2.819453 0.232390
vt -2.819453 0.232390
vt 0.232390 2.883688
vt -2.819453 2.883688
vt -2.819453 2.883688
vt -2.819453 0.555879
vt 0.555879 2.883688
vt -2.819453 3.027443
vt 0.555879 3.027443
vt -2.819453 0.555879
vt -3.915194 0.232390
vt -3.915194 2.121224
vt 0.232390 2.121224
vt -4.234122 0.232390
vt -4.234122 2.121224
vt 0.232390 2.264979
vt -4.234122 0.232390
vt -4.234122 2.264979
vt -3.915194 2.264979
vt -3.915194 0.232390
vt 0.862137 3.027443
vt -1.874794 0.862137
vt -1.874794 3.027443
vt 0.862137 2.883688
vt -1.874794 0.862137
vt -1.874794 2.883688
vt 1.185626 2.883688
vt -1.874794 2.883688
vt -1.874794 1.185626
vt 1.185626 3.027443
vt -1.874794 3.027443
vt -1.874794 1.185626
vt -1.526599 0.862137
vt -1.526599 3.027443
vt -1.526599 0.862137
vt -1.526599 2.883688
vt -1.526599 3.027443
vt -1.526599 1.185626
vt -1.526599 2.883688
vt -1.526599 1.185626
vt 2.587679 3.608824
vt -1.874794 2.587679
vt -1.874794 3.608824
vt 2.587679 3.465069
vt -1.874794 2.587679
vt -1.874794 3.465069
vt 2.911168 3.465069
vt -1.874794 3.465069
vt -1.874794 2.911168
vt 2.911168 3.608824
vt -1.874794 3.608824
vt -1.874794 2.911168
vt -1.526599 2.587679
vt -1.526599 3.608824
vt -1.526599 2.587679
vt -1.526599 3.465069
vt -1.526599 3.608824
vt -1.526599 2.911168
vt -1.526599 3.465069
vt -1.526599 2.911168
vt 0.790308 4.590076
vt -3.815750 0.790308
vt -3.815750 4.590076
vt 0.790308 4.446321
vt -3.815750 0.790308
vt -3.815750 4.446321
vt -0.229195 4.446321
vt -3.815750 -0.229195
vt -0.229195 4.590076
vt -3.815750 -0.229195
vt -4.163944 0.790308
vt -4.163944 4.590076
vt -4.163944 0.790308
vt -4.163944 4.446321
vt -4.163945 -0.229195
vt -4.163944 -0.229195
vt 1.900285 4.127606
vt -3.050961 1.900285
vt -3.050961 4.127606
vt 1.900285 3.983851
vt -3.050961 1.900285
vt -3.050961 3.983851
vt 1.576797 3.983851
vt -3.050961 3.983851
vt -3.050961 1.576797
vt 1.576797 4.127606
vt -3.050961 4.127606
vt -3.050961 1.576797
vt -3.399155 1.900285
vt -3.399155 4.127606
vt -3.399155 1.900285
vt -3.399155 3.983851
vt -3.399155 4.127606
vt -3.399155 1.576797
vt -3.399155 3.983851
vt -3.399155 1.576797
s 0
usemtl Plat_MADSIDE
f 1/1/1 5/13/1 7/19/1 3/7/1
f 6/16/2 2/4/2 4/10/2 8/22/2
f 4/11/3 3/8/3 7/20/3 8/23/3
f 2/5/4 1/2/4 3/9/4 4/12/4
f 6/17/5 5/14/5 1/3/5 2/6/5
f 8/24/6 7/21/6 5/15/6 6/18/6
f 9/25/1 13/37/1 15/43/1 11/31/1
f 14/40/2 10/28/2 12/34/2 16/46/2
f 12/35/3 11/32/3 15/44/3 16/47/3
f 10/29/4 9/26/4 11/33/4 12/36/4
f 14/41/5 13/38/5 9/27/5 10/30/5
f 16/48/6 15/45/6 13/39/6 14/42/6
f 17/49/7 21/61/7 23/68/7 19/57/7
f 22/64/8 18/52/8 20/60/8 24/70/8
f 20/58/5 19/55/5 28/80/5 27/77/5
f 18/53/4 17/50/4 19/56/4 20/59/4
f 22/65/5 21/62/5 17/51/5 18/54/5
f 24/69/6 23/67/6 21/63/6 22/66/6
f 29/83/9 20/60/9 27/78/9 26/74/9
f 27/79/4 28/81/4 25/71/4 26/75/4
f 23/67/6 24/69/6 30/85/6 31/88/6
f 24/70/2 20/60/2 29/83/2 30/86/2
f 19/57/1 23/68/1 31/89/1 32/92/1
f 29/84/3 32/91/3 31/90/3 30/87/3
f 32/91/3 29/84/3 26/76/3 25/72/3
f 19/57/10 32/92/10 25/73/10 28/82/10
f 35/99/6 34/96/6 33/93/6 36/102/6
f 43/119/6 42/116/6 41/113/6 44/122/6
f 35/100/5 36/103/5 39/109/5 40/111/5
f 36/104/1 33/94/1 37/105/1 39/110/1
f 34/97/2 35/101/2 40/112/2 38/107/2
f 33/95/3 34/98/3 38/108/3 37/106/3
f 43/120/5 44/123/5 47/129/5 48/131/5
f 44/124/1 41/114/1 45/125/1 47/130/1
f 42/117/2 43/121/2 48/132/2 46/127/2
f 41/115/3 42/118/3 46/128/3 45/126/3
f 51/139/4 50/136/4 49/133/4 52/141/4
f 52/142/1 49/134/1 53/143/1 55/147/1
f 50/137/2 51/140/2 56/148/2 54/145/2
f 49/135/5 50/138/5 54/146/5 53/144/5
f 59/155/4 58/152/4 57/149/4 60/158/4
f 59/156/3 60/159/3 63/165/3 64/167/3
f 60/160/1 57/150/1 61/161/1 63/166/1
f 58/153/2 59/157/2 64/168/2 62/163/2
f 57/151/5 58/154/5 62/164/5 61/162/5
