# Blender 3.5.0
# www.blender.org
mtllib platform1.mtl
o platform1
v -8.981665 -15.789972 -1.057847
v -8.981665 -15.298662 -1.057847
v -8.981665 -15.789972 -2.862883
v -8.981665 -15.298662 -2.862883
v -7.176628 -15.789972 -1.057847
v -7.176628 -15.298662 -1.057847
v -7.176628 -15.789972 -2.862883
v -7.176628 -15.298662 -2.862883
vn -1.0000 -0.0000 -0.0000
vn -0.0000 -0.0000 -1.0000
vn 1.0000 -0.0000 -0.0000
vn -0.0000 -0.0000 1.0000
vn -0.0000 -1.0000 -0.0000
vn -0.0000 1.0000 -0.0000
vt 0.250000 0.363906
vt 0.250000 0.000000
vt 0.250000 0.636094
vt 0.250000 0.000000
vt 0.750000 0.363906
vt 0.250000 0.363906
vt 0.250000 1.000000
vt 0.750000 0.636094
vt 0.250000 0.636094
vt 0.250000 1.000000
vt 0.250000 0.363906
vt 0.750000 0.363906
vt 0.750000 0.000000
vt 0.250000 0.636094
vt 0.750000 0.636094
vt 0.750000 0.000000
vt 0.750000 0.363906
vt 0.750000 1.000000
vt 0.750000 0.636094
vt 0.750000 1.000000
s 0
usemtl ElePlat
f 1/1/1 2/3/1 4/8/1 3/5/1
f 3/6/2 4/9/2 8/19/2 7/17/2
f 7/17/3 8/19/3 6/14/3 5/11/3
f 5/12/4 6/15/4 2/3/4 1/1/4
f 3/7/5 7/18/5 5/13/5 1/2/5
f 8/20/6 4/10/6 2/4/6 6/16/6
