# Blender 3.5.0
# www.blender.org
o Plane.003
v -56.120735 -26.509995 72.853149
v 52.869026 -26.509995 72.853149
v -56.120735 -26.509995 -36.136616
v 52.869026 -26.509995 -36.136616
v -56.120735 51.457348 -36.136616
v -56.120735 51.457348 72.853149
v 52.869026 51.457348 72.853149
v 52.869026 51.457348 -36.136616
v -56.120731 -26.509995 -8.889172
v -56.120735 -26.509996 18.358269
v -56.120731 -26.509995 45.605709
v -28.873293 -26.509995 72.853149
v -1.625855 -26.509996 72.853149
v 25.621584 -26.509995 72.853149
v 52.869022 -26.509995 45.605709
v 52.869026 -26.509996 18.358269
v 52.869022 -26.509995 -8.889172
v 25.621584 -26.509995 -36.136612
v -1.625855 -26.509996 -36.136616
v -28.873293 -26.509995 -36.136616
v -56.120728 51.457340 -8.889168
v -56.120735 51.457348 18.358269
v -56.120735 51.457348 45.605713
v -28.873289 51.457340 72.853149
v -1.625855 51.457348 72.853149
v 25.621580 51.457340 72.853149
v 52.869022 51.457348 45.605709
v 52.869026 51.457348 18.358269
v 52.869022 51.457348 -8.889172
v 25.621584 51.457348 -36.136616
v -1.625855 51.457348 -36.136616
v -28.873293 51.457348 -36.136616
v 52.869022 -7.018160 -36.136612
v 52.869026 12.473675 -36.136616
v 52.869022 31.965513 -36.136616
v 52.869022 31.965513 72.853149
v 52.869026 12.473675 72.853149
v 52.869022 -7.018160 72.853149
v -56.120731 -7.018160 72.853149
v -56.120735 12.473675 72.853149
v -56.120731 31.965513 72.853149
v -56.120731 31.965513 -36.136616
v -56.120735 12.473675 -36.136616
v -56.120731 -7.018160 -36.136612
v -28.873293 51.457344 45.605705
v -1.625853 51.457340 45.605705
v 25.621580 51.457344 45.605705
v -28.873293 51.457344 18.358271
v -1.625853 51.457348 18.358271
v 25.621584 51.457348 18.358271
v -28.873289 51.457344 -8.889170
v -1.625855 51.457348 -8.889170
v 25.621580 51.457344 -8.889170
v 52.869019 -7.018160 45.605709
v 52.869022 -7.018161 18.358269
v 52.869022 -7.018160 -8.889172
v 52.869022 12.473675 45.605713
v 52.869022 12.473675 18.358269
v 52.869026 12.473675 -8.889174
v 52.869022 31.965513 45.605709
v 52.869026 31.965513 18.358269
v 52.869022 31.965513 -8.889172
v -56.120728 -7.018160 -8.889172
v -56.120731 -7.018161 18.358269
v -56.120731 -7.018160 45.605709
v -56.120731 12.473675 -8.889174
v -56.120731 12.473675 18.358269
v -56.120735 12.473675 45.605713
v -56.120731 31.965513 -8.889172
v -56.120735 31.965513 18.358269
v -56.120731 31.965513 45.605709
v 25.621584 -7.018160 -36.136612
v -1.625855 -7.018161 -36.136616
v -28.873293 -7.018160 -36.136608
v 25.621586 12.473675 -36.136616
v -1.625855 12.473675 -36.136612
v -28.873295 12.473675 -36.136616
v 25.621584 31.965513 -36.136612
v -1.625855 31.965513 -36.136616
v -28.873293 31.965513 -36.136612
v -28.873293 -7.018160 72.853149
v -1.625855 -7.018161 72.853149
v 25.621584 -7.018160 72.853149
v -28.873295 12.473675 72.853149
v -1.625855 12.473675 72.853149
v 25.621586 12.473675 72.853149
v -28.873293 31.965513 72.853149
v -1.625855 31.965513 72.853149
v 25.621584 31.965513 72.853149
vn -0.0000 1.0000 -0.0000
vn 1.0000 -0.0000 -0.0000
vn -1.0000 -0.0000 -0.0000
vn -0.0000 -0.0000 -1.0000
vn -0.0000 -0.0000 1.0000
vt -4.755481 -4.755482
vt 5.755479 -4.755482
vt -4.755482 5.755482
vt 5.755480 5.755483
vt -4.755481 5.755481
vt -4.755481 -4.755482
vt 5.755480 -4.755482
vt 5.755481 5.755482
vt -4.755481 3.127741
vt -4.755482 0.500000
vt -4.755481 -2.127741
vt -2.127741 -4.755482
vt 0.499999 -4.755482
vt 3.127739 -4.755482
vt 5.755479 -2.127741
vt 5.755479 0.500001
vt 5.755479 3.127742
vt 3.127739 5.755483
vt 0.499999 5.755483
vt -2.127741 5.755483
vt -4.755481 3.127741
vt -4.755481 0.500000
vt -4.755481 -2.127741
vt -2.127740 -4.755482
vt 0.500000 -4.755482
vt 3.127740 -4.755482
vt 5.755480 -2.127741
vt 5.755480 0.500000
vt 5.755481 3.127741
vt 3.127740 5.755482
vt 0.500000 5.755482
vt -2.127741 5.755482
vt 5.755480 5.755483
vt 5.755480 5.755483
vt 5.755481 5.755482
vt 5.755480 -4.755482
vt 5.755480 -4.755482
vt 5.755479 -4.755482
vt -4.755481 -4.755482
vt -4.755481 -4.755482
vt -4.755481 -4.755482
vt -4.755481 5.755482
vt -4.755482 5.755482
vt -4.755481 5.755482
vt -2.127740 -2.127741
vt 0.500000 -2.127741
vt 3.127740 -2.127741
vt -2.127740 0.500000
vt 0.500000 0.500000
vt 3.127740 0.500000
vt -2.127740 3.127740
vt 0.500000 3.127740
vt 3.127740 3.127740
vt 5.755480 -2.127741
vt 5.755480 0.500000
vt 5.755480 3.127741
vt 5.755480 -2.127741
vt 5.755480 0.500000
vt 5.755480 3.127741
vt 5.755480 -2.127741
vt 5.755480 0.500000
vt 5.755480 3.127741
vt -4.755481 3.127741
vt -4.755481 0.500000
vt -4.755481 -2.127741
vt -4.755482 3.127741
vt -4.755481 0.500000
vt -4.755481 -2.127741
vt -4.755481 3.127741
vt -4.755481 0.500000
vt -4.755481 -2.127741
vt 3.127740 5.755483
vt 0.499999 5.755483
vt -2.127741 5.755482
vt 3.127740 5.755482
vt 0.500000 5.755482
vt -2.127741 5.755482
vt 3.127740 5.755482
vt 0.500000 5.755482
vt -2.127741 5.755481
vt -2.127740 -4.755482
vt 0.499999 -4.755481
vt 3.127739 -4.755483
vt -2.127741 -4.755482
vt 0.500000 -4.755482
vt 3.127740 -4.755482
vt -2.127741 -4.755482
vt 0.500000 -4.755482
vt 3.127740 -4.755482
s 0
f 45/45/1 46/46/1 49/49/1 48/48/1
f 46/46/1 47/47/1 50/50/1 49/49/1
f 48/48/1 49/49/1 52/52/1 51/51/1
f 49/49/1 50/50/1 53/53/1 52/52/1
f 6/6/1 24/24/1 45/45/1 23/23/1
f 24/24/1 25/25/1 46/46/1 45/45/1
f 25/25/1 26/26/1 47/47/1 46/46/1
f 26/26/1 7/7/1 27/27/1 47/47/1
f 47/47/1 27/27/1 28/28/1 50/50/1
f 50/50/1 28/28/1 29/29/1 53/53/1
f 53/53/1 29/29/1 8/8/1 30/30/1
f 52/52/1 53/53/1 30/30/1 31/31/1
f 51/51/1 52/52/1 31/31/1 32/32/1
f 21/21/1 51/51/1 32/32/1 5/5/1
f 22/22/1 48/48/1 51/51/1 21/21/1
f 23/23/1 45/45/1 48/48/1 22/22/1
f 54/54/2 55/55/2 58/58/2 57/57/2
f 55/55/2 56/56/2 59/59/2 58/58/2
f 57/57/2 58/58/2 61/61/2 60/60/2
f 58/58/2 59/59/2 62/62/2 61/61/2
f 2/2/2 15/15/2 54/54/2 38/38/2
f 15/15/2 16/16/2 55/55/2 54/54/2
f 16/16/2 17/17/2 56/56/2 55/55/2
f 17/17/2 4/4/2 33/33/2 56/56/2
f 56/56/2 33/33/2 34/34/2 59/59/2
f 59/59/2 34/34/2 35/35/2 62/62/2
f 62/62/2 35/35/2 8/8/2 29/29/2
f 61/61/2 62/62/2 29/29/2 28/28/2
f 60/60/2 61/61/2 28/28/2 27/27/2
f 36/36/2 60/60/2 27/27/2 7/7/2
f 37/37/2 57/57/2 60/60/2 36/36/2
f 38/38/2 54/54/2 57/57/2 37/37/2
f 63/63/3 64/64/3 67/67/3 66/66/3
f 64/64/3 65/65/3 68/68/3 67/67/3
f 66/66/3 67/67/3 70/70/3 69/69/3
f 67/67/3 68/68/3 71/71/3 70/70/3
f 3/3/3 9/9/3 63/63/3 44/44/3
f 9/9/3 10/10/3 64/64/3 63/63/3
f 10/10/3 11/11/3 65/65/3 64/64/3
f 11/11/3 1/1/3 39/39/3 65/65/3
f 65/65/3 39/39/3 40/40/3 68/68/3
f 68/68/3 40/40/3 41/41/3 71/71/3
f 71/71/3 41/41/3 6/6/3 23/23/3
f 70/70/3 71/71/3 23/23/3 22/22/3
f 69/69/3 70/70/3 22/22/3 21/21/3
f 42/42/3 69/69/3 21/21/3 5/5/3
f 43/43/3 66/66/3 69/69/3 42/42/3
f 44/44/3 63/63/3 66/66/3 43/43/3
f 72/72/4 73/73/4 76/76/4 75/75/4
f 73/73/4 74/74/4 77/77/4 76/76/4
f 75/75/4 76/76/4 79/79/4 78/78/4
f 76/76/4 77/77/4 80/80/4 79/79/4
f 4/4/4 18/18/4 72/72/4 33/33/4
f 18/18/4 19/19/4 73/73/4 72/72/4
f 19/19/4 20/20/4 74/74/4 73/73/4
f 20/20/4 3/3/4 44/44/4 74/74/4
f 74/74/4 44/44/4 43/43/4 77/77/4
f 77/77/4 43/43/4 42/42/4 80/80/4
f 80/80/4 42/42/4 5/5/4 32/32/4
f 79/79/4 80/80/4 32/32/4 31/31/4
f 78/78/4 79/79/4 31/31/4 30/30/4
f 35/35/4 78/78/4 30/30/4 8/8/4
f 34/34/4 75/75/4 78/78/4 35/35/4
f 33/33/4 72/72/4 75/75/4 34/34/4
f 81/81/5 82/82/5 85/85/5 84/84/5
f 82/82/5 83/83/5 86/86/5 85/85/5
f 84/84/5 85/85/5 88/88/5 87/87/5
f 85/85/5 86/86/5 89/89/5 88/88/5
f 1/1/5 12/12/5 81/81/5 39/39/5
f 12/12/5 13/13/5 82/82/5 81/81/5
f 13/13/5 14/14/5 83/83/5 82/82/5
f 14/14/5 2/2/5 38/38/5 83/83/5
f 83/83/5 38/38/5 37/37/5 86/86/5
f 86/86/5 37/37/5 36/36/5 89/89/5
f 89/89/5 36/36/5 7/7/5 26/26/5
f 88/88/5 89/89/5 26/26/5 25/25/5
f 87/87/5 88/88/5 25/25/5 24/24/5
f 41/41/5 87/87/5 24/24/5 6/6/5
f 40/40/5 84/84/5 87/87/5 41/41/5
f 39/39/5 81/81/5 84/84/5 40/40/5
