# Blender v3.5.1 OBJ File: 'map.blend'
# www.blender.org
o Plane.004_Plane.006
v -12.828676 2.931654 24.165527
v -12.615401 2.931654 23.774359
v -15.287685 2.931654 22.824812
v -15.074409 2.931654 22.433643
v -18.688560 2.931654 20.970566
v -18.475285 2.931654 20.579397
v -13.519639 2.931654 23.788795
v -13.306364 2.931654 23.397627
v -20.456612 2.931654 20.006580
v -20.243336 2.931654 19.615410
v -20.934296 2.931654 19.238682
v -21.147572 2.931654 19.629850
v -12.828676 3.511134 24.165527
v -12.615401 3.511134 23.774359
v -15.287685 3.511134 22.824812
v -15.074409 3.511134 22.433643
v -18.688560 3.511134 20.970566
v -18.475285 3.511134 20.579397
v -13.519639 3.511134 23.788795
v -13.306364 3.511134 23.397627
v -20.456612 3.511134 20.006580
v -20.243336 3.511134 19.615410
v -20.934296 3.511134 19.238682
v -21.147572 3.511134 19.629850
vt -0.050935 -1.756808
vt 0.203583 -2.206389
vt -0.050935 -2.206389
vt -0.050935 2.756807
vt 0.203583 1.606409
vt -0.050935 1.606409
vt -0.050935 -0.606407
vt 0.203583 -1.756808
vt -0.050935 3.206389
vt 0.203583 2.756807
vt 0.203583 -2.206389
vt -0.050935 -1.756808
vt -0.050935 -2.206389
vt 0.203583 1.606409
vt -0.050935 2.756807
vt -0.050935 1.606409
vt 0.203583 -1.756808
vt -0.050935 -0.606407
vt 0.203583 2.756807
vt -0.050935 3.206389
vt 0.203583 -0.606407
vt 0.203583 -0.606407
vt 0.203583 3.206389
vt 0.203583 3.206389
vn 0.0000 -1.0000 0.0000
vn 0.0000 1.0000 0.0000
vn 0.4787 0.0000 -0.8780
vn -0.4787 0.0000 0.8780
vn -0.8780 0.0000 -0.4787
vn 0.8780 0.0000 0.4787
s off
f 10/1/1 12/2/1 11/3/1
f 8/4/1 3/5/1 4/6/1
f 6/7/1 9/8/1 10/1/1
f 2/9/1 7/10/1 8/4/1
f 24/11/2 22/12/2 23/13/2
f 15/14/2 20/15/2 16/16/2
f 21/17/2 18/18/2 22/12/2
f 19/19/2 14/20/2 20/15/2
f 10/1/3 18/18/3 6/7/3
f 7/10/4 15/14/4 3/5/4
f 3/5/5 16/16/5 4/6/5
f 8/4/3 14/20/3 2/9/3
f 11/3/3 22/12/3 10/1/3
f 5/21/4 21/17/4 9/8/4
f 6/7/6 17/22/6 5/21/6
f 12/2/5 23/13/5 11/3/5
f 4/6/3 20/15/3 8/4/3
f 1/23/4 19/19/4 7/10/4
f 9/8/4 24/11/4 12/2/4
f 2/9/6 13/24/6 1/23/6
f 10/1/1 9/8/1 12/2/1
f 8/4/1 7/10/1 3/5/1
f 6/7/1 5/21/1 9/8/1
f 2/9/1 1/23/1 7/10/1
f 24/11/2 21/17/2 22/12/2
f 15/14/2 19/19/2 20/15/2
f 21/17/2 17/22/2 18/18/2
f 19/19/2 13/24/2 14/20/2
f 10/1/3 22/12/3 18/18/3
f 7/10/4 19/19/4 15/14/4
f 3/5/5 15/14/5 16/16/5
f 8/4/3 20/15/3 14/20/3
f 11/3/3 23/13/3 22/12/3
f 5/21/4 17/22/4 21/17/4
f 6/7/6 18/18/6 17/22/6
f 12/2/5 24/11/5 23/13/5
f 4/6/3 16/16/3 20/15/3
f 1/23/4 13/24/4 19/19/4
f 9/8/4 21/17/4 24/11/4
f 2/9/6 14/20/6 13/24/6
o Cube.001
v -3.479991 -0.303674 -4.351732
v -3.479991 0.795422 -4.351732
v -3.117303 -0.303674 -5.061757
v -3.117303 0.795422 -5.061757
v -3.011520 -0.303674 -4.112432
v -3.011520 0.795422 -4.112432
v -2.648832 -0.303674 -4.822458
v -2.648832 0.795422 -4.822458
vt 0.625000 0.000000
vt 0.473536 0.250000
vt 0.473536 0.000000
vt 0.625000 0.250000
vt 0.473536 0.500000
vt 0.625000 0.500000
vt 0.473536 0.750000
vt 0.625000 0.750000
vt 0.473536 1.000000
vt 0.875000 0.500000
vt 0.625000 1.000000
vt 0.875000 0.750000
vn -0.8905 0.0000 -0.4549
vn 0.4549 0.0000 -0.8905
vn 0.8905 0.0000 0.4549
vn -0.4549 0.0000 0.8905
vn 0.0000 1.0000 0.0000
s off
f 26/25/7 27/26/7 25/27/7
f 28/28/8 31/29/8 27/26/8
f 32/30/9 29/31/9 31/29/9
f 30/32/10 25/33/10 29/31/10
f 28/34/11 30/32/11 32/30/11
f 26/25/7 28/28/7 27/26/7
f 28/28/8 32/30/8 31/29/8
f 32/30/9 30/32/9 29/31/9
f 30/32/10 26/35/10 25/33/10
f 28/34/11 26/36/11 30/32/11
o Cube.002
v 24.943483 4.406291 -23.978968
v 24.379528 12.894762 -23.728264
v 23.029533 4.201009 -21.333904
v 22.465574 12.689482 -21.083199
v 22.158915 4.281070 -26.003063
v 21.594957 12.769541 -25.752359
v 20.244961 4.075791 -23.358000
v 19.681004 12.564262 -23.107298
vt 0.625000 0.000000
vt 0.375000 0.250000
vt 0.375000 0.000000
vt 0.625000 0.250000
vt 0.375000 0.500000
vt 0.625000 0.500000
vt 0.375000 0.750000
vt 0.625000 0.750000
vt 0.375000 1.000000
vt 0.125000 0.500000
vt 0.125000 0.750000
vt 0.875000 0.500000
vt 0.625000 1.000000
vt 0.875000 0.750000
vn 0.8083 0.0363 0.5877
vn -0.5850 -0.0627 0.8086
vn -0.8083 -0.0363 -0.5877
vn 0.5850 0.0627 -0.8086
vn 0.0663 -0.9974 -0.0295
vn -0.0663 0.9974 0.0295
s off
f 34/37/12 35/38/12 33/39/12
f 36/40/13 39/41/13 35/38/13
f 40/42/14 37/43/14 39/41/14
f 38/44/15 33/45/15 37/43/15
f 35/46/16 37/43/16 33/47/16
f 36/48/17 38/44/17 40/42/17
f 34/37/12 36/40/12 35/38/12
f 36/40/13 40/42/13 39/41/13
f 40/42/14 38/44/14 37/43/14
f 38/44/15 34/49/15 33/45/15
f 35/46/16 39/41/16 37/43/16
f 36/48/17 34/50/17 38/44/17
