# Blender 3.5.0
# www.blender.org
mtllib collision.mtl
o Collision
v -15.943829 -31.031057 14.402030
v -15.943829 15.809552 14.402030
v -15.943829 -31.031057 -15.561519
v -15.943829 15.809552 -15.561519
v 16.376438 -31.031057 14.402030
v 16.376438 15.809552 14.402030
v 16.376438 -31.031057 -15.561519
v 16.376438 15.809552 -15.561519
v -3.446358 -11.908874 17.921225
v -3.446358 6.759526 17.921225
v -3.446358 -11.908874 14.987894
v -3.446358 6.759526 14.987894
v 3.649050 -11.908874 17.921225
v 3.649050 6.759526 17.921225
v 3.649050 -11.908874 14.987894
v 3.649050 6.759526 14.987894
v -11.754395 -0.997656 -11.836523
v -11.754395 0.491237 -11.836523
v -8.640942 -0.997656 -8.478519
v -8.640942 1.574707 -8.478519
v -13.578442 -0.997656 -9.823116
v -13.578442 0.491237 -9.823116
v -10.464989 -0.997656 -6.465112
v -10.464989 1.574707 -6.465112
v -10.504894 -0.997656 -10.488877
v -10.504894 1.149678 -10.488877
v -12.328941 -0.997656 -8.475471
v -12.328941 1.149678 -8.475471
v -10.954838 -0.997656 -10.936224
v -12.778883 0.657806 -8.922817
v -10.954838 0.657806 -10.936224
v -12.778883 -0.997656 -8.922817
v 10.427679 -0.997656 -9.685763
v 11.363600 0.657806 -7.135273
v 10.427679 0.657806 -9.685763
v 11.363600 -0.997656 -7.135273
v 9.822536 1.149678 -9.495057
v 9.822536 -0.997656 -9.495057
v 10.758457 1.149678 -6.944566
v 10.758457 -0.997656 -6.944566
v 7.176455 1.574707 -8.778022
v 7.176455 -0.997656 -8.778022
v 11.596333 0.491237 -9.975722
v 11.596333 -0.997656 -9.975722
v 8.112381 1.574707 -6.227530
v 8.112381 -0.997656 -6.227530
v 12.532257 0.491237 -7.425229
v 12.532257 -0.997656 -7.425229
vn -1.0000 -0.0000 -0.0000
vn -0.0000 -0.0000 -1.0000
vn 1.0000 -0.0000 -0.0000
vn -0.0000 -0.0000 1.0000
vn -0.0000 1.0000 -0.0000
vn -0.0000 -1.0000 -0.0000
vn 0.7333 -0.0000 -0.6799
vn 0.7411 -0.0000 0.6714
vn -0.7477 -0.0000 0.6640
vn -0.7411 -0.0000 -0.6714
vn -0.1021 0.9905 -0.0925
vn -0.1140 0.9881 -0.1032
vn -0.7333 -0.0000 0.6799
vn 0.7051 -0.0000 -0.7091
vn 0.7477 -0.0000 -0.6640
vn -0.4544 0.7900 -0.4116
vn -0.7051 -0.0000 0.7091
vn -0.3006 -0.0000 -0.9538
vn 0.5756 0.7900 -0.2112
vn 0.2408 -0.0000 0.9706
vn 0.3006 -0.0000 0.9538
vn -0.2615 -0.0000 -0.9652
vn 0.1444 0.9881 -0.0530
vn 0.1294 0.9905 -0.0475
vn 0.9388 -0.0000 -0.3445
vn -0.2408 -0.0000 -0.9706
vn -0.9388 -0.0000 0.3445
vn 0.2615 -0.0000 0.9652
vt 0.286203 -4.130860
vt 0.286212 4.771581
vt 2.413291 -4.130860
vt 2.413300 4.771580
vt 4.646602 4.880858
vt 0.286208 2.404993
vt 0.286205 -3.521581
vt 2.413296 2.404992
vt 2.413293 -3.521581
vt 4.646581 -1.655008
vt 0.286199 -1.764261
vt 0.286210 4.880861
vt 2.413298 4.880862
vt 2.413286 -1.764261
vt -1.889252 4.880883
vt 0.286204 -1.654995
vt 0.286208 3.014263
vt 2.413296 3.014261
vt 2.413292 -1.654993
vt -1.889272 -1.654987
vt 0.286203 -4.130860
vt 0.286212 4.771581
vt 2.413291 -4.130860
vt 2.413300 4.771580
vt 4.646602 4.880858
vt 0.286208 2.404993
vt 0.286205 -3.521581
vt 2.413296 2.404992
vt 2.413293 -3.521581
vt 4.646581 -1.655008
vt 0.286199 -1.764261
vt 0.286210 4.880861
vt 2.413298 4.880862
vt 2.413286 -1.764261
vt -1.889252 4.880883
vt 0.286204 -1.654995
vt 0.286208 3.014263
vt 2.413296 3.014261
vt 2.413292 -1.654993
vt -1.889272 -1.654987
vt 0.375000 1.000000
vt 0.125000 0.750000
vt 0.375000 0.000000
vt 0.625000 1.000000
vt 0.875000 0.750000
vt 0.625000 0.000000
vt 0.375000 0.250000
vt 0.125000 0.500000
vt 0.625000 0.250000
vt 0.875000 0.500000
vt 0.375000 0.750000
vt 0.625000 0.750000
vt 0.375000 0.500000
vt 0.625000 0.500000
vt 0.375000 0.100331
vt 0.125000 0.649669
vt 0.625000 0.100331
vt 0.875000 0.649669
vt 0.375000 0.649669
vt 0.625000 0.649669
vt 0.375000 0.088274
vt 0.125000 0.661726
vt 0.625000 0.661726
vt 0.625000 0.088274
vt 0.875000 0.661726
vt 0.375000 0.661726
vt 0.375000 0.661726
vt 0.625000 0.088274
vt 0.875000 0.661726
vt 0.625000 0.661726
vt 0.375000 0.088274
vt 0.125000 0.661726
vt 0.625000 0.649669
vt 0.375000 0.649669
vt 0.875000 0.649669
vt 0.625000 0.100331
vt 0.125000 0.649669
vt 0.375000 0.100331
vt 0.625000 0.500000
vt 0.375000 0.500000
vt 0.625000 0.750000
vt 0.375000 0.750000
vt 0.875000 0.500000
vt 0.625000 0.250000
vt 0.125000 0.500000
vt 0.375000 0.250000
vt 0.625000 0.000000
vt 0.875000 0.750000
vt 0.625000 1.000000
vt 0.375000 0.000000
vt 0.125000 0.750000
vt 0.375000 1.000000
s 0
f 1/1/1 2/3/1 4/8/1 3/6/1
f 3/7/2 4/9/2 8/18/2 7/17/2
f 7/16/3 8/19/3 6/13/3 5/12/3
f 5/11/4 6/14/4 2/4/4 1/2/4
f 8/20/5 4/10/5 2/5/5 6/15/5
f 3/7/6 7/17/6 5/12/6 1/2/6
f 9/21/1 10/23/1 12/28/1 11/26/1
f 11/27/2 12/29/2 16/38/2 15/37/2
f 15/36/3 16/39/3 14/33/3 13/32/3
f 13/31/4 14/34/4 10/24/4 9/22/4
f 16/40/5 12/30/5 10/25/5 14/35/5
f 11/27/6 15/37/6 13/32/6 9/22/6
f 25/55/7 26/57/7 20/49/7 19/47/7
f 19/47/8 20/49/8 24/54/8 23/53/8
f 32/66/9 30/63/9 22/52/9 21/51/9
f 21/51/10 22/52/10 18/44/10 17/41/10
f 29/62/6 32/66/6 21/51/6 17/42/6
f 30/63/11 31/65/11 18/45/11 22/52/11
f 24/54/12 20/50/12 26/58/12 28/60/12
f 19/48/6 23/53/6 27/59/6 25/56/6
f 23/53/13 24/54/13 28/60/13 27/59/13
f 29/61/14 31/64/14 26/57/14 25/55/14
f 17/43/15 18/46/15 31/64/15 29/61/15
f 28/60/16 26/58/16 31/65/16 30/63/16
f 25/56/6 27/59/6 32/66/6 29/62/6
f 27/59/17 28/60/17 30/63/17 32/66/17
f 38/74/18 37/73/18 35/70/18 33/67/18
f 40/77/6 38/74/6 33/67/6 36/72/6
f 37/73/19 39/75/19 34/69/19 35/70/19
f 48/90/20 47/87/20 34/68/20 36/71/20
f 36/71/21 34/68/21 39/76/21 40/78/21
f 42/80/22 41/79/22 37/73/22 38/74/22
f 46/85/6 42/80/6 38/74/6 40/77/6
f 41/79/23 45/83/23 39/75/23 37/73/23
f 35/70/24 34/69/24 47/88/24 43/81/24
f 36/72/6 33/67/6 44/82/6 48/91/6
f 44/82/25 43/81/25 47/89/25 48/92/25
f 33/67/26 35/70/26 43/81/26 44/82/26
f 46/86/27 45/84/27 41/79/27 42/80/27
f 40/78/28 39/76/28 45/84/28 46/86/28
