# Blender v3.5.1 OBJ File: 'map.blend'
# www.blender.org
mtllib tile.mtl
o tile_Plane.003
v -23.458126 0.557475 23.867645
v -11.741926 0.557475 22.172316
v -15.139233 0.557475 28.403322
v -18.111162 0.557475 18.699644
v -19.369862 0.557475 18.013369
v -22.767166 0.557475 24.244375
v -12.615401 0.557475 23.774359
v -16.774849 0.557475 21.506519
v -15.074409 0.557475 22.433643
v -18.475285 0.557475 20.579397
v -13.306364 0.557475 23.397627
v -20.243336 0.557475 19.615410
v -16.988125 0.557475 21.897688
v -15.287685 0.557475 22.824812
v -18.688560 0.557475 20.970566
v -13.519639 0.557475 23.788795
v -20.456612 0.557475 20.006580
v -20.060822 0.557475 17.636639
v -15.901374 0.557475 19.904478
v -19.298679 0.557475 26.135483
v -17.088892 0.557475 27.340317
v -13.691586 0.557475 21.109310
v -21.508469 0.557475 24.930649
v -15.830194 0.557475 28.026592
v -12.432889 0.557475 21.795586
v -20.934296 0.557475 19.238682
v -21.147572 0.557475 19.629850
v -12.828676 0.557475 24.165527
vt 2.960950 2.756807
vt 0.203583 3.206389
vt 0.203583 2.756807
vt 0.203583 -0.606407
vt 2.960950 0.500000
vt 0.203583 0.500000
vt 0.203583 1.606409
vt 0.203583 -1.756808
vt 2.960950 -0.937822
vt 2.960950 1.937822
vt 2.960950 -2.206389
vt 0.203583 -2.206389
vt -0.050935 -2.206389
vt -1.093321 -1.756808
vt -1.093321 -2.206389
vt -1.093321 1.937822
vt -0.050935 2.756807
vt -1.093321 2.756807
vt -0.050935 -1.756808
vt -1.093321 -0.937822
vt -1.093321 0.500000
vt -0.050935 1.606409
vt -0.050935 -0.606407
vt -1.093321 3.206389
vt -0.050935 0.500000
vt 2.960950 3.206389
vt 2.960950 -1.756808
vt -0.050935 3.206389
vn 0.0000 1.0000 -0.0000
usemtl Material.005
s off
f 24/1/1 28/2/1 16/3/1
f 15/4/1 20/5/1 13/6/1
f 20/5/1 14/7/1 13/6/1
f 17/8/1 23/9/1 15/4/1
f 21/10/1 16/3/1 14/7/1
f 1/11/1 17/8/1 27/12/1
f 26/13/1 5/14/1 18/15/1
f 22/16/1 11/17/1 25/18/1
f 12/19/1 4/20/1 5/14/1
f 19/21/1 9/22/1 22/16/1
f 10/23/1 19/21/1 4/20/1
f 11/17/1 2/24/1 25/18/1
f 13/6/1 9/22/1 8/25/1
f 15/4/1 8/25/1 10/23/1
f 24/1/1 3/26/1 28/2/1
f 15/4/1 23/9/1 20/5/1
f 20/5/1 21/10/1 14/7/1
f 17/8/1 6/27/1 23/9/1
f 21/10/1 24/1/1 16/3/1
f 1/11/1 6/27/1 17/8/1
f 26/13/1 12/19/1 5/14/1
f 22/16/1 9/22/1 11/17/1
f 12/19/1 10/23/1 4/20/1
f 19/21/1 8/25/1 9/22/1
f 10/23/1 8/25/1 19/21/1
f 11/17/1 7/28/1 2/24/1
f 13/6/1 14/7/1 9/22/1
f 15/4/1 13/6/1 8/25/1
