# Blender v3.5.1 OBJ File: 'map.blend'
# www.blender.org
mtllib van_door.mtl
o van_door_models/props/cs_militia/van.003
v -0.427812 -0.131818 0.109748
v -0.369723 0.123846 0.622554
v -0.369895 -0.354017 0.677139
v -0.369708 0.103413 0.617988
v -0.369722 0.731475 0.622555
v -0.369056 -0.694161 0.413231
v -0.369641 0.093358 0.597299
v -0.369014 -0.706171 0.399877
v -0.368434 0.093385 0.217493
v -0.368960 -0.713952 0.382847
v -0.368360 0.103442 0.194496
v -0.369614 0.761982 0.588555
v -0.369894 0.813111 0.676885
v -0.369692 0.751921 0.613443
v -0.368339 0.123878 0.187446
v -0.368084 -0.714121 0.107242
v -0.368081 0.813112 0.106908
v -0.368338 0.730723 0.187446
v -0.368362 0.751539 0.194577
v -0.368434 0.761982 0.217651
v -0.394437 -0.354017 0.677061
v -0.394247 0.103353 0.617872
v -0.394182 0.093358 0.597150
v -0.393597 -0.694161 0.413153
v -0.394262 0.123728 0.622476
v -0.394435 0.813111 0.676807
v -0.392974 0.093385 0.217498
v -0.393553 -0.706171 0.399799
v -0.394261 0.731475 0.622477
v -0.394234 0.751921 0.613365
v -0.392901 0.103449 0.194440
v -0.393500 -0.713952 0.382769
v -0.392878 0.123890 0.187330
v -0.392624 -0.714121 0.107164
v -0.392879 0.730723 0.187330
v -0.392623 0.813112 0.106830
v -0.392975 0.761982 0.217573
v -0.392902 0.751539 0.194479
v -0.394153 0.761982 0.588477
v -0.392633 0.776794 0.109859
v -0.392633 -0.689348 0.109860
v -0.386265 0.080233 0.170168
v -0.387714 0.080159 0.626379
v -0.387714 0.768730 0.626379
v -0.386265 0.768730 0.170168
vt 0.572800 0.920800
vt 0.646500 0.912400
vt 0.576200 0.921600
vt 0.479500 0.920800
vt 0.698700 0.953100
vt 0.577600 0.924700
vt 0.700700 0.955100
vt 0.577600 0.983200
vt 0.702100 0.957800
vt 0.576200 0.986800
vt 0.474600 0.926100
vt 0.466800 0.912500
vt 0.476300 0.922200
vt 0.572800 0.987800
vt 0.702100 1.000200
vt 0.466800 1.000200
vt 0.479500 0.987800
vt 0.476300 0.986700
vt 0.474600 0.983200
vt 0.646500 0.824700
vt 0.576200 0.833700
vt 0.578100 0.836900
vt 0.698700 0.865400
vt 0.573200 0.833000
vt 0.467500 0.824700
vt 0.578100 0.895400
vt 0.700700 0.867300
vt 0.480000 0.833000
vt 0.476800 0.834500
vt 0.576200 0.899000
vt 0.702100 0.870000
vt 0.573200 0.900100
vt 0.702100 0.912400
vt 0.480000 0.900100
vt 0.467500 0.912500
vt 0.475300 0.895400
vt 0.476800 0.899000
vt 0.475300 0.838300
vt 0.604000 0.824800
vt 0.604000 0.815200
vt 0.555200 0.815200
vt 0.555200 0.824800
vt 0.468300 0.824800
vt 0.468300 0.815200
vt 0.470900 0.815200
vt 0.470900 0.824800
vt 0.551300 0.815200
vt 0.553700 0.815200
vt 0.553700 0.824800
vt 0.551300 0.824800
vt 0.555200 0.815200
vt 0.553700 0.815200
vt 0.553700 0.824800
vt 0.555200 0.824800
vt 0.466800 0.824800
vt 0.466800 0.815200
vt 0.555200 0.824800
vt 0.555200 0.815200
vt 0.605500 0.824800
vt 0.605500 0.815200
vt 0.551300 0.824800
vt 0.551300 0.815200
vt 0.712900 0.777200
vt 0.596200 0.789700
vt 0.524400 0.777200
vt 0.470900 0.824800
vt 0.470900 0.815200
vt 0.468300 0.824800
vt 0.468300 0.815200
vt 0.466800 0.824800
vt 0.466800 0.815200
vt 0.774918 0.738987
vt 0.744765 0.738987
vt 0.744765 0.851406
vt 0.774918 0.851406
vn 0.7348 0.0748 -0.6741
vn 1.0000 0.0000 0.0032
vn 0.8207 0.3557 -0.4472
vn 0.7591 -0.1359 -0.6366
vn 0.7619 0.6316 -0.1432
vn 1.0000 -0.0000 0.0031
vn 0.7559 0.6403 0.1365
vn 0.8082 0.3983 0.4337
vn 0.7531 -0.6463 -0.1233
vn 0.8031 -0.4299 -0.4125
vn 0.7437 0.1102 0.6594
vn 0.7434 -0.1095 0.6598
vn 0.8066 -0.3966 0.4384
vn 0.7574 -0.6378 0.1400
vn -1.0000 0.0000 -0.0032
vn -0.8180 0.3569 -0.4512
vn -0.7605 0.6325 -0.1472
vn -0.7310 0.0756 -0.6782
vn -0.7563 0.6409 0.1311
vn -0.7550 -0.1360 -0.6414
vn -0.8005 -0.4299 -0.4176
vn -0.8104 0.3993 0.4286
vn -0.7489 0.1103 0.6534
vn -0.7486 -0.1094 0.6539
vn -0.7582 -0.6378 0.1352
vn -0.8097 -0.3963 0.4329
vn -0.7523 -0.6462 -0.1281
vn -0.0032 0.0000 1.0000
usemtl material_1
s 1
f 2/1/1 3/2/2 4/3/3
f 3/2/2 2/1/1 5/4/4
f 6/5/2 7/6/5 4/3/3
f 8/7/6 9/8/7 7/6/5
f 10/9/2 11/10/8 9/8/7
f 12/11/9 13/12/2 14/13/10
f 14/13/10 13/12/2 5/4/4
f 5/4/4 13/12/2 3/2/2
f 4/3/3 3/2/2 6/5/2
f 7/6/5 6/5/2 8/7/6
f 9/8/7 8/7/6 10/9/2
f 15/14/11 16/15/2 17/16/2
f 16/15/2 15/14/11 11/10/8
f 11/10/8 10/9/2 16/15/2
f 18/17/12 17/16/2 19/18/13
f 19/18/13 17/16/2 20/19/14
f 20/19/14 17/16/2 13/12/2
f 21/20/15 22/21/16 23/22/17
f 23/22/17 24/23/15 21/20/15
f 25/24/18 21/20/15 26/25/15
f 27/26/19 28/27/15 24/23/15
f 29/28/20 26/25/15 30/29/21
f 31/30/22 32/31/15 28/27/15
f 33/32/23 34/33/15 32/31/15
f 35/34/24 36/35/15 34/33/15
f 37/36/25 36/35/15 38/37/26
f 36/35/15 37/36/25 39/38/27
f 39/38/27 26/25/15 36/35/15
f 12/39/9 39/40/27 37/41/25
f 37/41/25 20/42/14 12/39/9
f 19/43/13 38/44/26 35/45/24
f 35/45/24 18/46/12 19/43/13
f 33/47/23 31/48/22 11/49/8
f 11/49/8 15/50/11 33/47/23
f 23/51/17 22/52/16 4/53/3
f 4/53/3 7/54/5 23/51/17
f 19/43/13 20/55/14 37/56/25
f 37/56/25 38/44/26 19/43/13
f 15/50/11 18/46/12 35/45/24
f 35/45/24 33/47/23 15/50/11
f 9/57/7 11/49/8 31/48/22
f 31/48/22 27/58/19 9/57/7
f 7/59/5 9/57/7 27/58/19
f 27/58/19 23/60/17 7/59/5
f 2/61/1 4/53/3 22/52/16
f 22/52/16 25/62/18 2/61/1
f 40/63/28 1/64/28 41/65/28
f 17/16/2 18/17/12 15/14/11
f 13/12/2 12/11/9 20/19/14
f 34/33/15 33/32/23 35/34/24
f 38/37/26 36/35/15 35/34/24
f 32/31/15 31/30/22 33/32/23
f 28/27/15 27/26/19 31/30/22
f 24/23/15 23/22/17 27/26/19
f 22/21/16 21/20/15 25/24/18
f 26/25/15 29/28/20 25/24/18
f 30/29/21 26/25/15 39/38/27
f 5/66/4 2/61/1 25/62/18
f 25/62/18 29/67/20 5/66/4
f 14/68/10 5/66/4 29/67/20
f 29/67/20 30/69/21 14/68/10
f 12/70/9 14/68/10 30/69/21
f 30/69/21 39/71/27 12/70/9
f 42/72/15 43/73/15 44/74/15
f 44/74/15 45/75/15 42/72/15
