# Blender v3.5.1 OBJ File: 'map.blend'
# www.blender.org
mtllib water.mtl
o water_Cube.003
v -28.930483 -2.324444 5.128798
v -28.930483 -0.324444 5.128798
v -28.930483 -2.324444 -7.930374
v -28.930483 -0.324444 -7.930374
v -15.871309 -2.324444 5.128798
v -15.871309 -0.324444 5.128798
v -15.871309 -2.324444 -7.930374
v -15.871309 -0.324444 -7.930374
v -28.930481 -2.324444 -4.665580
v -28.930483 -2.324444 -1.400788
v -28.930483 -2.324444 1.864006
v -28.930481 -1.824444 5.128798
v -28.930483 -1.324444 5.128798
v -28.930481 -0.824444 5.128798
v -28.930483 -0.324444 1.864005
v -28.930483 -0.324444 -1.400788
v -28.930483 -0.324444 -4.665581
v -28.930483 -0.824444 -7.930374
v -28.930483 -1.324444 -7.930374
v -28.930483 -1.824444 -7.930374
v -19.136103 -2.324444 -7.930374
v -22.400896 -2.324444 -7.930374
v -25.665689 -2.324444 -7.930374
v -25.665689 -0.324444 -7.930374
v -22.400896 -0.324444 -7.930374
v -19.136103 -0.324444 -7.930374
v -15.871309 -0.824444 -7.930374
v -15.871309 -1.324444 -7.930374
v -15.871309 -1.824444 -7.930374
v -15.871309 -2.324444 1.864005
v -15.871309 -2.324444 -1.400788
v -15.871309 -2.324444 -4.665581
v -15.871309 -0.324444 -4.665581
v -15.871309 -0.324444 -1.400788
v -15.871309 -0.324444 1.864005
v -15.871309 -0.824444 5.128798
v -15.871309 -1.324444 5.128798
v -15.871309 -1.824444 5.128798
v -25.665689 -2.324444 5.128798
v -22.400896 -2.324444 5.128798
v -19.136103 -2.324444 5.128798
v -19.136103 -0.324444 5.128798
v -22.400896 -0.324444 5.128798
v -25.665689 -0.324444 5.128798
v -28.930481 -1.824444 1.864005
v -28.930481 -1.324444 1.864005
v -28.930481 -0.824444 1.864005
v -28.930483 -1.824444 -1.400788
v -28.930483 -1.324444 -1.400788
v -28.930483 -0.824444 -1.400788
v -28.930481 -1.824444 -4.665581
v -28.930483 -1.324444 -4.665581
v -28.930481 -0.824444 -4.665581
v -25.665689 -1.824444 -7.930373
v -25.665689 -1.324444 -7.930374
v -25.665689 -0.824444 -7.930374
v -22.400896 -1.824444 -7.930374
v -22.400896 -1.324444 -7.930373
v -22.400896 -0.824444 -7.930374
v -19.136103 -1.824444 -7.930373
v -19.136103 -1.324444 -7.930374
v -19.136103 -0.824444 -7.930374
v -15.871311 -1.824444 -4.665581
v -15.871309 -1.324444 -4.665581
v -15.871309 -0.824444 -4.665581
v -15.871309 -1.824444 -1.400788
v -15.871311 -1.324444 -1.400788
v -15.871309 -0.824444 -1.400788
v -15.871311 -1.824444 1.864005
v -15.871309 -1.324444 1.864005
v -15.871309 -0.824444 1.864005
v -19.136103 -1.824444 5.128798
v -19.136103 -1.324444 5.128798
v -19.136103 -0.824444 5.128798
v -22.400896 -1.824444 5.128798
v -22.400896 -1.324444 5.128798
v -22.400896 -0.824444 5.128798
v -25.665689 -1.824444 5.128798
v -25.665689 -1.324444 5.128798
v -25.665689 -0.824444 5.128798
v -25.665689 -2.324444 -4.665581
v -22.400896 -2.324444 -4.665581
v -19.136103 -2.324444 -4.665581
v -25.665689 -2.324444 -1.400788
v -22.400896 -2.324444 -1.400788
v -19.136103 -2.324444 -1.400788
v -25.665689 -2.324444 1.864005
v -22.400896 -2.324444 1.864005
v -19.136103 -2.324444 1.864005
v -19.136103 -0.324444 -4.665581
v -22.400896 -0.324444 -4.665581
v -25.665689 -0.324444 -4.665581
v -19.136103 -0.324444 -1.400788
v -22.400896 -0.324444 -1.400788
v -25.665689 -0.324444 -1.400788
v -19.136103 -0.324444 1.864005
v -22.400896 -0.324444 1.864005
v -25.665689 -0.324444 1.864005
vt 0.500000 -2.035287
vt 0.163876 -1.699163
vt 0.163876 -2.035287
vt 0.836124 -2.035287
vt 0.500000 -1.699163
vt 0.163876 -1.363038
vt 0.836124 -1.699163
vt 0.500000 -1.363039
vt 0.163876 -2.371412
vt -0.172249 -2.035287
vt -0.172249 -2.371412
vt 0.500000 -2.371412
vt 0.836124 -2.371412
vt 1.172249 -2.035287
vt 1.172249 -1.363038
vt 0.836124 -1.363038
vt 0.836124 -1.026914
vt 0.500000 -1.026914
vt 0.163876 -1.026914
vt -0.172249 -1.026914
vt -0.172249 -1.363038
vt -0.172249 -1.699163
vt 0.163876 -0.690790
vt 0.500000 -0.354665
vt 0.163876 -0.354665
vt 0.836124 -0.690790
vt 0.500000 -0.690789
vt 0.163876 -0.018541
vt 0.836124 -0.354665
vt 0.500000 -0.018541
vt -0.172249 -0.690790
vt 1.172249 -1.026914
vt 1.172249 -0.690790
vt 1.172249 -0.354665
vt 0.836124 -0.018541
vt 1.172249 -0.018541
vt 0.836124 0.317584
vt 0.500000 0.317584
vt 0.163876 0.317584
vt -0.172249 0.317584
vt -0.172249 -0.018541
vt -0.172249 -0.354665
vt 0.163876 0.653708
vt 0.500000 0.989833
vt 0.163876 0.989833
vt 0.836124 0.653708
vt 0.500000 0.653708
vt 0.163876 1.325957
vt 0.836124 0.989833
vt 0.500000 1.325957
vt -0.172249 0.653708
vt 1.172249 0.317584
vt 1.172249 0.653708
vt 1.172249 0.989833
vt 0.836124 1.325957
vt 1.172249 1.325957
vt 0.836124 1.662081
vt 0.500000 1.662081
vt 0.163876 1.662081
vt -0.172249 1.662082
vt -0.172249 1.325957
vt -0.172249 0.989833
vt 0.163876 1.998206
vt 0.500000 2.334330
vt 0.163876 2.334330
vt 0.836124 1.998206
vt 0.500000 1.998206
vt 0.163876 2.670455
vt 0.836124 2.334330
vt 0.500000 2.670455
vt -0.172249 1.998206
vt 1.172249 1.662082
vt 1.172249 1.998206
vt 1.172249 2.334330
vt 0.836124 2.670455
vt 1.172249 2.670455
vt 0.836124 3.006579
vt 0.500000 3.006579
vt 0.163876 3.006579
vt -0.172249 2.670455
vt -0.172249 3.006579
vt -0.172249 2.334330
vt -1.180622 0.653708
vt -0.844498 0.989833
vt -1.180622 0.989833
vt -0.508373 0.653708
vt -0.844498 0.653708
vt -1.180622 1.325957
vt -0.508373 0.989833
vt -0.844498 1.325957
vt -1.180622 0.317584
vt -1.516747 0.653708
vt -1.516747 0.317584
vt -0.844498 0.317584
vt -0.508373 0.317584
vt -0.508373 1.325957
vt -0.508373 1.662081
vt -0.844498 1.662081
vt -1.180622 1.662081
vt -1.516747 1.662082
vt -1.516747 1.325957
vt -1.516747 0.989833
vt 1.508373 0.653708
vt 1.844498 0.989833
vt 1.508373 0.989833
vt 2.180622 0.653708
vt 1.844498 0.653708
vt 1.508373 1.325957
vt 2.180622 0.989833
vt 1.844498 1.325957
vt 1.508373 0.317584
vt 1.844498 0.317584
vt 2.180622 0.317584
vt 2.516747 0.317584
vt 2.516747 0.653708
vt 2.516747 0.989833
vt 2.180622 1.325957
vt 2.516747 1.325957
vt 2.180622 1.662081
vt 1.844498 1.662081
vt 1.508373 1.662081
vt 1.172249 -2.371412
vt 1.172249 -1.699163
vt 1.172249 3.006579
vt 2.516747 1.662082
vn -1.0000 0.0000 0.0000
vn -0.0000 0.0000 -1.0000
vn 1.0000 0.0000 -0.0000
vn 0.0000 0.0000 1.0000
vn 0.0000 -1.0000 0.0000
vn -0.0000 1.0000 -0.0000
usemtl Material.019
s off
f 46/1/1 48/2/1 45/3/1
f 47/4/1 49/5/1 46/1/1
f 49/5/1 51/6/1 48/2/1
f 50/7/1 52/8/1 49/5/1
f 12/9/1 11/10/1 1/11/1
f 13/12/1 45/3/1 12/9/1
f 14/13/1 46/1/1 13/12/1
f 14/13/1 15/14/1 47/4/1
f 15/14/1 50/7/1 47/4/1
f 50/7/1 17/15/1 53/16/1
f 17/15/1 18/17/1 53/16/1
f 53/16/1 19/18/1 52/8/1
f 52/8/1 20/19/1 51/6/1
f 51/6/1 3/20/1 9/21/1
f 48/2/1 9/21/1 10/22/1
f 45/3/1 10/22/1 11/10/1
f 54/23/2 58/24/2 57/25/2
f 56/26/2 58/24/2 55/27/2
f 58/24/2 60/28/2 57/25/2
f 59/29/2 61/30/2 58/24/2
f 20/19/2 23/31/2 3/20/2
f 19/18/2 54/23/2 20/19/2
f 18/17/2 55/27/2 19/18/2
f 4/32/2 56/26/2 18/17/2
f 24/33/2 59/29/2 56/26/2
f 25/34/2 62/35/2 59/29/2
f 26/36/2 27/37/2 62/35/2
f 62/35/2 28/38/2 61/30/2
f 61/30/2 29/39/2 60/28/2
f 60/28/2 7/40/2 21/41/2
f 57/25/2 21/41/2 22/42/2
f 54/23/2 22/42/2 23/31/2
f 63/43/3 67/44/3 66/45/3
f 65/46/3 67/44/3 64/47/3
f 67/44/3 69/48/3 66/45/3
f 68/49/3 70/50/3 67/44/3
f 29/39/3 32/51/3 7/40/3
f 28/38/3 63/43/3 29/39/3
f 27/37/3 64/47/3 28/38/3
f 8/52/3 65/46/3 27/37/3
f 33/53/3 68/49/3 65/46/3
f 34/54/3 71/55/3 68/49/3
f 35/56/3 36/57/3 71/55/3
f 71/55/3 37/58/3 70/50/3
f 70/50/3 38/59/3 69/48/3
f 69/48/3 5/60/3 30/61/3
f 66/45/3 30/61/3 31/62/3
f 63/43/3 31/62/3 32/51/3
f 72/63/4 76/64/4 75/65/4
f 74/66/4 76/64/4 73/67/4
f 76/64/4 78/68/4 75/65/4
f 77/69/4 79/70/4 76/64/4
f 38/59/4 41/71/4 5/60/4
f 37/58/4 72/63/4 38/59/4
f 36/57/4 73/67/4 37/58/4
f 6/72/4 74/66/4 36/57/4
f 42/73/4 77/69/4 74/66/4
f 43/74/4 80/75/4 77/69/4
f 44/76/4 14/77/4 80/75/4
f 80/75/4 13/78/4 79/70/4
f 79/70/4 12/79/4 78/68/4
f 39/80/4 12/79/4 1/81/4
f 75/65/4 39/80/4 40/82/4
f 72/63/4 40/82/4 41/71/4
f 81/83/5 85/84/5 84/85/5
f 83/86/5 85/84/5 82/87/5
f 85/84/5 87/88/5 84/85/5
f 86/89/5 88/90/5 85/84/5
f 23/91/5 9/92/5 3/93/5
f 22/94/5 81/83/5 23/91/5
f 21/95/5 82/87/5 22/94/5
f 7/40/5 83/86/5 21/95/5
f 32/51/5 86/89/5 83/86/5
f 31/62/5 89/96/5 86/89/5
f 30/61/5 41/97/5 89/96/5
f 89/96/5 40/98/5 88/90/5
f 88/90/5 39/99/5 87/88/5
f 87/88/5 1/100/5 11/101/5
f 84/85/5 11/101/5 10/102/5
f 9/92/5 84/85/5 10/102/5
f 90/103/6 94/104/6 93/105/6
f 92/106/6 94/104/6 91/107/6
f 94/104/6 96/108/6 93/105/6
f 95/109/6 97/110/6 94/104/6
f 26/111/6 33/53/6 8/52/6
f 25/112/6 90/103/6 26/111/6
f 24/113/6 91/107/6 25/112/6
f 4/114/6 92/106/6 24/113/6
f 17/115/6 95/109/6 92/106/6
f 16/116/6 98/117/6 95/109/6
f 15/118/6 44/119/6 98/117/6
f 98/117/6 43/120/6 97/110/6
f 97/110/6 42/121/6 96/108/6
f 96/108/6 6/72/6 35/56/6
f 93/105/6 35/56/6 34/54/6
f 90/103/6 34/54/6 33/53/6
f 46/1/1 49/5/1 48/2/1
f 47/4/1 50/7/1 49/5/1
f 49/5/1 52/8/1 51/6/1
f 50/7/1 53/16/1 52/8/1
f 12/9/1 45/3/1 11/10/1
f 13/12/1 46/1/1 45/3/1
f 14/13/1 47/4/1 46/1/1
f 14/13/1 2/122/1 15/14/1
f 15/14/1 16/123/1 50/7/1
f 50/7/1 16/123/1 17/15/1
f 17/15/1 4/32/1 18/17/1
f 53/16/1 18/17/1 19/18/1
f 52/8/1 19/18/1 20/19/1
f 51/6/1 20/19/1 3/20/1
f 48/2/1 51/6/1 9/21/1
f 45/3/1 48/2/1 10/22/1
f 54/23/2 55/27/2 58/24/2
f 56/26/2 59/29/2 58/24/2
f 58/24/2 61/30/2 60/28/2
f 59/29/2 62/35/2 61/30/2
f 20/19/2 54/23/2 23/31/2
f 19/18/2 55/27/2 54/23/2
f 18/17/2 56/26/2 55/27/2
f 4/32/2 24/33/2 56/26/2
f 24/33/2 25/34/2 59/29/2
f 25/34/2 26/36/2 62/35/2
f 26/36/2 8/52/2 27/37/2
f 62/35/2 27/37/2 28/38/2
f 61/30/2 28/38/2 29/39/2
f 60/28/2 29/39/2 7/40/2
f 57/25/2 60/28/2 21/41/2
f 54/23/2 57/25/2 22/42/2
f 63/43/3 64/47/3 67/44/3
f 65/46/3 68/49/3 67/44/3
f 67/44/3 70/50/3 69/48/3
f 68/49/3 71/55/3 70/50/3
f 29/39/3 63/43/3 32/51/3
f 28/38/3 64/47/3 63/43/3
f 27/37/3 65/46/3 64/47/3
f 8/52/3 33/53/3 65/46/3
f 33/53/3 34/54/3 68/49/3
f 34/54/3 35/56/3 71/55/3
f 35/56/3 6/72/3 36/57/3
f 71/55/3 36/57/3 37/58/3
f 70/50/3 37/58/3 38/59/3
f 69/48/3 38/59/3 5/60/3
f 66/45/3 69/48/3 30/61/3
f 63/43/3 66/45/3 31/62/3
f 72/63/4 73/67/4 76/64/4
f 74/66/4 77/69/4 76/64/4
f 76/64/4 79/70/4 78/68/4
f 77/69/4 80/75/4 79/70/4
f 38/59/4 72/63/4 41/71/4
f 37/58/4 73/67/4 72/63/4
f 36/57/4 74/66/4 73/67/4
f 6/72/4 42/73/4 74/66/4
f 42/73/4 43/74/4 77/69/4
f 43/74/4 44/76/4 80/75/4
f 44/76/4 2/124/4 14/77/4
f 80/75/4 14/77/4 13/78/4
f 79/70/4 13/78/4 12/79/4
f 39/80/4 78/68/4 12/79/4
f 75/65/4 78/68/4 39/80/4
f 72/63/4 75/65/4 40/82/4
f 81/83/5 82/87/5 85/84/5
f 83/86/5 86/89/5 85/84/5
f 85/84/5 88/90/5 87/88/5
f 86/89/5 89/96/5 88/90/5
f 23/91/5 81/83/5 9/92/5
f 22/94/5 82/87/5 81/83/5
f 21/95/5 83/86/5 82/87/5
f 7/40/5 32/51/5 83/86/5
f 32/51/5 31/62/5 86/89/5
f 31/62/5 30/61/5 89/96/5
f 30/61/5 5/60/5 41/97/5
f 89/96/5 41/97/5 40/98/5
f 88/90/5 40/98/5 39/99/5
f 87/88/5 39/99/5 1/100/5
f 84/85/5 87/88/5 11/101/5
f 9/92/5 81/83/5 84/85/5
f 90/103/6 91/107/6 94/104/6
f 92/106/6 95/109/6 94/104/6
f 94/104/6 97/110/6 96/108/6
f 95/109/6 98/117/6 97/110/6
f 26/111/6 90/103/6 33/53/6
f 25/112/6 91/107/6 90/103/6
f 24/113/6 92/106/6 91/107/6
f 4/114/6 17/115/6 92/106/6
f 17/115/6 16/116/6 95/109/6
f 16/116/6 15/118/6 98/117/6
f 15/118/6 2/125/6 44/119/6
f 98/117/6 44/119/6 43/120/6
f 97/110/6 43/120/6 42/121/6
f 96/108/6 42/121/6 6/72/6
f 93/105/6 96/108/6 35/56/6
f 90/103/6 93/105/6 34/54/6
