# Blender v3.5.1 OBJ File: 'map.blend'
# www.blender.org
mtllib wood_cabins_metal.mtl
o wood_cabins_metal_Cylinder.004
v 19.172649 3.320815 2.354250
v 19.172649 3.209630 2.354250
v 17.669638 1.700045 3.203380
v 17.766441 1.588861 3.148690
v 17.428133 3.320815 -0.733654
v 17.428133 3.209630 -0.733654
v 15.925120 1.700045 0.115476
v 16.021925 1.588861 0.060786
v 20.675661 1.700045 1.505121
v 20.578857 1.588861 1.559811
v 18.931145 1.700045 -1.582783
v 18.834341 1.588861 -1.528093
v 22.619160 3.928113 -3.011335
v 22.619160 3.816928 -3.011335
v 22.373810 2.307343 -1.302572
v 22.389610 2.196159 -1.412628
v 19.108547 3.928113 -3.515402
v 19.108547 3.816928 -3.515402
v 18.863195 2.307343 -1.806640
v 18.878998 2.196159 -1.916695
v 22.864510 2.307343 -4.720098
v 22.848709 2.196159 -4.610042
v 19.353897 2.307343 -5.224164
v 19.338095 2.196159 -5.114109
v 20.715584 4.287245 -9.598606
v 20.715584 4.176060 -9.598606
v 21.844580 2.666475 -8.292685
v 21.771866 2.555291 -8.376795
v 18.032597 4.287245 -7.279110
v 18.032597 4.176060 -7.279110
v 19.161592 2.666475 -5.973187
v 19.088877 2.555291 -6.057298
v 19.586588 2.666475 -10.904530
v 19.659304 2.555291 -10.820419
v 16.903601 2.666475 -8.585032
v 16.976315 2.555291 -8.500921
vt 0.011371 0.827975
vt 0.988629 0.172025
vt 0.988629 0.827975
vt 0.988629 0.827975
vt 0.011371 0.172025
vt 0.011371 0.827975
vt 0.988629 0.548458
vt 0.011371 0.451542
vt 0.988629 0.451542
vt 0.658863 0.548458
vt 0.341137 0.451542
vt 0.658863 0.451542
vt 0.341137 0.451542
vt 0.658863 0.548458
vt 0.658863 0.451542
vt 0.988629 0.172025
vt 0.011371 0.172025
vt 0.011371 0.451542
vt 0.988629 0.548458
vt 0.988629 0.451542
vt 0.341137 0.451542
vt 0.341137 0.451542
vt 0.341137 0.548458
vt 0.011371 0.827975
vt 0.988629 0.172025
vt 0.988629 0.827975
vt 0.011371 0.827975
vt 0.988629 0.172025
vt 0.011371 0.172025
vt 0.988629 0.548458
vt 0.011371 0.451542
vt 0.988629 0.451542
vt 0.658863 0.548458
vt 0.341137 0.451542
vt 0.658863 0.451542
vt 0.341137 0.451542
vt 0.658863 0.548458
vt 0.658863 0.451542
vt 0.011371 0.172025
vt 0.011371 0.172025
vt 0.988629 0.827975
vt 0.988629 0.451542
vt 0.011371 0.548458
vt 0.988629 0.548458
vt 0.341137 0.451542
vt 0.341137 0.451542
vt 0.341137 0.548458
vt 0.988629 0.827975
vt 0.011371 0.172025
vt 0.988629 0.172025
vt 0.988629 0.827975
vt 0.011371 0.172025
vt 0.011371 0.827975
vt 0.988629 0.451542
vt 0.011371 0.548458
vt 0.011371 0.451542
vt 0.658863 0.548458
vt 0.341137 0.451542
vt 0.658863 0.451542
vt 0.341137 0.451542
vt 0.658863 0.548458
vt 0.658863 0.451542
vt 0.988629 0.172025
vt 0.011371 0.827975
vt 0.988629 0.172025
vt 0.011371 0.451542
vt 0.988629 0.548458
vt 0.988629 0.451542
vt 0.341137 0.451542
vt 0.341137 0.451542
vt 0.341137 0.548458
vt 0.011371 0.172025
vt 0.988629 0.172025
vt 0.011371 0.548458
vt 0.341137 0.548458
vt 0.341137 0.548458
vt 0.011371 0.172025
vt 0.988629 0.172025
vt 0.011371 0.548458
vt 0.341137 0.548458
vt 0.011371 0.172025
vt 0.011371 0.548458
vt 0.341137 0.548458
vt 0.341137 0.548458
vt 0.988629 0.172025
vt 0.988629 0.172025
vt 0.011371 0.451542
vt 0.341137 0.548458
vt 0.988629 0.172025
vt 0.988629 0.548458
vt 0.341137 0.548458
vt 0.341137 0.548458
vt 0.011371 0.172025
vt 0.011371 0.172025
vt 0.011371 0.548458
vt 0.341137 0.548458
vn -0.5959 0.7290 0.3367
vn 0.6167 -0.7059 -0.3484
vn -0.6157 -0.7071 0.3478
vn 0.4919 0.0000 0.8707
vn -0.4919 0.0000 -0.8707
vn 0.5959 0.7290 -0.3367
vn -0.6167 -0.7059 0.3484
vn 0.6156 -0.7071 -0.3478
vn -0.0973 0.7290 0.6775
vn 0.1007 -0.7059 -0.7012
vn -0.1005 -0.7071 0.6999
vn 0.9898 0.0000 0.1421
vn -0.9898 0.0000 -0.1421
vn 0.0973 0.7290 -0.6775
vn -0.1007 -0.7059 0.7012
vn 0.1005 -0.7071 -0.6999
vn 0.4476 0.7290 0.5178
vn -0.4633 -0.7059 -0.5359
vn 0.4625 -0.7071 0.5349
vn 0.7565 0.0000 -0.6540
vn -0.7565 0.0000 0.6540
vn -0.4476 0.7290 -0.5178
vn 0.4633 -0.7059 0.5359
vn -0.4625 -0.7071 -0.5349
vn -0.6156 -0.7071 0.3478
vn 0.6157 -0.7071 -0.3478
vn 0.4624 -0.7071 0.5349
vn -0.4624 -0.7071 -0.5349
usemtl Material.016
s off
f 5/1/1 3/2/1 1/3/1
f 2/4/2 8/5/2 6/6/2
f 3/7/3 8/8/3 4/9/3
f 1/10/4 4/11/4 2/12/4
f 8/13/5 5/14/5 6/15/5
f 9/16/6 5/1/6 1/3/6
f 12/17/7 2/4/7 6/6/7
f 12/18/8 9/19/8 10/20/8
f 10/21/4 1/10/4 2/12/4
f 12/22/5 5/14/5 11/23/5
f 17/24/9 15/25/9 13/26/9
f 18/27/10 16/28/10 20/29/10
f 15/30/11 20/31/11 16/32/11
f 13/33/12 16/34/12 14/35/12
f 20/36/13 17/37/13 18/38/13
f 13/26/14 23/39/14 17/24/14
f 24/40/15 14/41/15 18/27/15
f 22/42/16 23/43/16 21/44/16
f 22/45/12 13/33/12 14/35/12
f 24/46/13 17/37/13 23/47/13
f 25/48/17 31/49/17 27/50/17
f 26/51/18 32/52/18 30/53/18
f 28/54/19 31/55/19 32/56/19
f 25/57/20 28/58/20 26/59/20
f 32/60/21 29/61/21 30/62/21
f 33/63/22 29/64/22 25/48/22
f 30/53/23 34/65/23 26/51/23
f 36/66/24 33/67/24 34/68/24
f 34/69/20 25/57/20 26/59/20
f 36/70/21 29/61/21 35/71/21
f 5/1/1 7/72/1 3/2/1
f 2/4/2 4/73/2 8/5/2
f 3/7/25 7/74/25 8/8/25
f 1/10/4 3/75/4 4/11/4
f 8/13/5 7/76/5 5/14/5
f 9/16/6 11/77/6 5/1/6
f 12/17/7 10/78/7 2/4/7
f 12/18/26 11/79/26 9/19/26
f 10/21/4 9/80/4 1/10/4
f 12/22/5 6/15/5 5/14/5
f 17/24/9 19/81/9 15/25/9
f 18/27/10 14/41/10 16/28/10
f 15/30/11 19/82/11 20/31/11
f 13/33/12 15/83/12 16/34/12
f 20/36/13 19/84/13 17/37/13
f 13/26/14 21/85/14 23/39/14
f 24/40/15 22/86/15 14/41/15
f 22/42/16 24/87/16 23/43/16
f 22/45/12 21/88/12 13/33/12
f 24/46/13 18/38/13 17/37/13
f 25/48/17 29/64/17 31/49/17
f 26/51/18 28/89/18 32/52/18
f 28/54/27 27/90/27 31/55/27
f 25/57/20 27/91/20 28/58/20
f 32/60/21 31/92/21 29/61/21
f 33/63/22 35/93/22 29/64/22
f 30/53/23 36/94/23 34/65/23
f 36/66/28 35/95/28 33/67/28
f 34/69/20 33/96/20 25/57/20
f 36/70/21 30/62/21 29/61/21
