# Blender 3.5.1
# www.blender.org
mtllib collision.mtl
o Cube
v -40.000000 -4.400001 35.000000
v -40.000000 18.400002 35.000000
v -40.000000 -4.400001 -39.000000
v -40.000000 18.400002 -39.000000
v -38.500000 -4.400001 35.000000
v -38.500000 18.400002 35.000000
v -38.500000 -4.400001 -39.000000
v -38.500000 18.400002 -39.000000
v 41.000000 -4.400001 35.000000
v 41.000000 18.400002 35.000000
v 41.000000 -4.400001 -39.000000
v 41.000000 18.400002 -39.000000
v 42.500000 -4.400001 35.000000
v 42.500000 18.400002 35.000000
v 42.500000 -4.400001 -39.000000
v 42.500000 18.400002 -39.000000
v 48.150002 -4.400001 35.450005
v 48.150002 18.400002 35.450005
v -48.050003 -4.400001 35.449997
v -48.050003 18.400002 35.449997
v 48.150002 -4.400001 33.950005
v 48.150002 18.400002 33.950005
v -48.050003 -4.400001 33.949997
v -48.050003 18.400002 33.949997
v 48.150002 -4.400001 -38.549995
v 48.150002 18.400002 -38.549995
v -48.050003 -4.400001 -38.550003
v -48.050003 18.400002 -38.550003
v 48.150002 -4.400001 -40.049995
v 48.150002 18.400002 -40.049995
v -48.050003 -4.400001 -40.050003
v -48.050003 18.400002 -40.050003
v -43.355091 10.000000 43.355091
v -43.355091 12.000000 43.355091
v -43.355091 10.000000 -43.355091
v -43.355091 12.000000 -43.355091
v 43.355091 10.000000 43.355091
v 43.355091 12.000000 43.355091
v 43.355091 10.000000 -43.355091
v 43.355091 12.000000 -43.355091
vn -1.0000 -0.0000 -0.0000
vn -0.0000 -0.0000 -1.0000
vn 1.0000 -0.0000 -0.0000
vn -0.0000 -0.0000 1.0000
vn -0.0000 -1.0000 -0.0000
vn -0.0000 1.0000 -0.0000
vt 0.375000 0.000000
vt 0.375000 1.000000
vt 0.125000 0.750000
vt 0.625000 0.000000
vt 0.625000 1.000000
vt 0.875000 0.750000
vt 0.375000 0.250000
vt 0.125000 0.500000
vt 0.625000 0.250000
vt 0.875000 0.500000
vt 0.375000 0.750000
vt 0.625000 0.750000
vt 0.375000 0.500000
vt 0.625000 0.500000
vt 0.375000 0.000000
vt 0.375000 1.000000
vt 0.125000 0.750000
vt 0.625000 0.000000
vt 0.625000 1.000000
vt 0.875000 0.750000
vt 0.375000 0.250000
vt 0.125000 0.500000
vt 0.625000 0.250000
vt 0.875000 0.500000
vt 0.375000 0.750000
vt 0.625000 0.750000
vt 0.375000 0.500000
vt 0.625000 0.500000
vt 0.375000 0.000000
vt 0.375000 1.000000
vt 0.125000 0.750000
vt 0.625000 0.000000
vt 0.625000 1.000000
vt 0.875000 0.750000
vt 0.375000 0.250000
vt 0.125000 0.500000
vt 0.625000 0.250000
vt 0.875000 0.500000
vt 0.375000 0.750000
vt 0.625000 0.750000
vt 0.375000 0.500000
vt 0.625000 0.500000
vt 0.375000 0.000000
vt 0.375000 1.000000
vt 0.125000 0.750000
vt 0.625000 0.000000
vt 0.625000 1.000000
vt 0.875000 0.750000
vt 0.375000 0.250000
vt 0.125000 0.500000
vt 0.625000 0.250000
vt 0.875000 0.500000
vt 0.375000 0.750000
vt 0.625000 0.750000
vt 0.375000 0.500000
vt 0.625000 0.500000
vt 0.375000 0.000000
vt 0.375000 1.000000
vt 0.125000 0.750000
vt 0.625000 0.000000
vt 0.625000 1.000000
vt 0.875000 0.750000
vt 0.375000 0.250000
vt 0.125000 0.500000
vt 0.625000 0.250000
vt 0.875000 0.500000
vt 0.375000 0.750000
vt 0.625000 0.750000
vt 0.375000 0.500000
vt 0.625000 0.500000
s 0
f 1/1/1 2/4/1 4/9/1 3/7/1
f 3/7/2 4/9/2 8/14/2 7/13/2
f 7/13/3 8/14/3 6/12/3 5/11/3
f 5/11/4 6/12/4 2/5/4 1/2/4
f 3/8/5 7/13/5 5/11/5 1/3/5
f 8/14/6 4/10/6 2/6/6 6/12/6
f 9/15/1 10/18/1 12/23/1 11/21/1
f 11/21/2 12/23/2 16/28/2 15/27/2
f 15/27/3 16/28/3 14/26/3 13/25/3
f 13/25/4 14/26/4 10/19/4 9/16/4
f 11/22/5 15/27/5 13/25/5 9/17/5
f 16/28/6 12/24/6 10/20/6 14/26/6
f 17/29/4 18/32/4 20/37/4 19/35/4
f 19/35/1 20/37/1 24/42/1 23/41/1
f 23/41/2 24/42/2 22/40/2 21/39/2
f 21/39/3 22/40/3 18/33/3 17/30/3
f 19/36/5 23/41/5 21/39/5 17/31/5
f 24/42/6 20/38/6 18/34/6 22/40/6
f 25/43/4 26/46/4 28/51/4 27/49/4
f 27/49/1 28/51/1 32/56/1 31/55/1
f 31/55/2 32/56/2 30/54/2 29/53/2
f 29/53/3 30/54/3 26/47/3 25/44/3
f 27/50/5 31/55/5 29/53/5 25/45/5
f 32/56/6 28/52/6 26/48/6 30/54/6
f 33/57/1 34/60/1 36/65/1 35/63/1
f 35/63/2 36/65/2 40/70/2 39/69/2
f 39/69/3 40/70/3 38/68/3 37/67/3
f 37/67/4 38/68/4 34/61/4 33/58/4
f 35/64/5 39/69/5 37/67/5 33/59/5
f 40/70/6 36/66/6 34/62/6 38/68/6
