# Blender 3.5.1
# www.blender.org
mtllib collision.mtl
o Cube.001
v -66.776535 -0.999690 48.495594
v -66.776535 77.000313 48.495594
v -66.776535 -0.999690 22.495594
v -66.776535 77.000313 22.495594
v -66.176529 -0.999690 48.495594
v -66.176529 77.000313 48.495594
v -66.176529 -0.999690 22.495594
v -66.176529 77.000313 22.495594
v -66.776535 -0.999690 49.495594
v -66.776535 77.000313 49.495594
v -66.176529 77.000313 49.495594
v -66.176529 -0.999690 49.495594
v 47.823467 77.000313 48.495594
v 47.823467 -0.999690 48.495594
v 47.823467 77.000313 49.495594
v 47.823467 -0.999690 49.495594
v 48.823467 77.000313 48.495594
v 48.823467 -0.999690 48.495594
v 48.823467 77.000313 49.495594
v 48.823467 -0.999690 49.495594
v 47.823467 77.000313 -45.504406
v 47.823467 -0.999690 -45.504406
v 48.823467 77.000313 -45.504406
v 48.823467 -0.999690 -45.504406
v 47.823467 77.000313 -47.504406
v 47.823467 -0.999690 -47.504406
v 48.823467 77.000313 -47.504406
v 48.823467 -0.999690 -47.504406
v -66.176529 77.000313 -45.504406
v -66.176529 -0.999690 -45.504406
v -66.176529 77.000313 -47.504406
v -66.176529 -0.999690 -47.504406
v -68.176529 77.000313 -45.504406
v -68.176529 -0.999690 -45.504406
v -68.176529 77.000313 -47.504406
v -68.176529 -0.999690 -47.504406
v -66.176529 77.000313 23.495594
v -66.176529 -0.999690 23.495594
v -68.176529 77.000313 23.495594
v -68.176529 -0.999690 23.495594
vn -1.0000 -0.0000 -0.0000
vn -0.0000 -0.0000 -1.0000
vn 1.0000 -0.0000 -0.0000
vn -0.0000 -1.0000 -0.0000
vn -0.0000 1.0000 -0.0000
vn -0.0000 -0.0000 1.0000
vt 0.375000 0.000000
vt 0.125000 0.750000
vt 0.625000 0.000000
vt 0.875000 0.750000
vt 0.375000 0.250000
vt 0.125000 0.500000
vt 0.625000 0.250000
vt 0.875000 0.500000
vt 0.375000 0.750000
vt 0.625000 0.750000
vt 0.375000 0.500000
vt 0.625000 0.500000
vt 0.375000 0.000000
vt 0.375000 1.000000
vt 0.125000 0.750000
vt 0.625000 0.000000
vt 0.625000 1.000000
vt 0.875000 0.750000
vt 0.625000 0.750000
vt 0.375000 0.750000
vt 0.625000 0.750000
vt 0.375000 0.750000
vt 0.625000 0.750000
vt 0.375000 0.750000
vt 0.625000 0.750000
vt 0.375000 0.750000
vt 0.625000 0.750000
vt 0.375000 0.750000
vt 0.625000 0.750000
vt 0.375000 0.750000
vt 0.625000 0.750000
vt 0.375000 0.750000
vt 0.625000 0.750000
vt 0.375000 0.750000
vt 0.625000 0.750000
vt 0.375000 0.750000
vt 0.625000 0.750000
vt 0.375000 0.750000
vt 0.625000 0.750000
vt 0.375000 0.750000
vt 0.625000 0.750000
vt 0.375000 0.750000
vt 0.625000 0.750000
vt 0.375000 0.750000
vt 0.625000 0.750000
vt 0.375000 0.750000
vt 0.625000 0.750000
vt 0.375000 0.750000
s 0
f 1/1/1 2/3/1 4/7/1 3/5/1
f 3/5/2 4/7/2 8/12/2 7/11/2
f 7/11/3 8/12/3 6/10/3 5/9/3
f 2/3/1 1/1/1 9/13/1 10/16/1
f 3/6/4 7/11/4 5/9/4 1/2/4
f 8/12/5 4/8/5 2/4/5 6/10/5
f 12/20/6 11/19/6 10/17/6 9/14/6
f 1/2/4 5/9/4 12/20/4 9/15/4
f 6/10/5 2/4/5 10/18/5 11/19/5
f 12/20/4 5/9/4 14/22/4 16/24/4
f 13/21/5 15/23/5 19/27/5 17/25/5
f 6/10/5 11/19/5 15/23/5 13/21/5
f 11/19/6 12/20/6 16/24/6 15/23/6
f 5/9/2 6/10/2 13/21/2 14/22/2
f 18/26/3 17/25/3 19/27/3 20/28/3
f 15/23/6 16/24/6 20/28/6 19/27/6
f 16/24/4 14/22/4 18/26/4 20/28/4
f 17/25/3 18/26/3 24/32/3 23/31/3
f 21/29/5 23/31/5 27/35/5 25/33/5
f 18/26/4 14/22/4 22/30/4 24/32/4
f 13/21/5 17/25/5 23/31/5 21/29/5
f 14/22/1 13/21/1 21/29/1 22/30/1
f 26/34/2 25/33/2 27/35/2 28/36/2
f 21/29/5 25/33/5 31/39/5 29/37/5
f 24/32/4 22/30/4 26/34/4 28/36/4
f 23/31/3 24/32/3 28/36/3 27/35/3
f 29/37/5 31/39/5 35/43/5 33/41/5
f 22/30/6 21/29/6 29/37/6 30/38/6
f 26/34/4 22/30/4 30/38/4 32/40/4
f 25/33/2 26/34/2 32/40/2 31/39/2
f 34/42/1 33/41/1 35/43/1 36/44/1
f 33/41/1 34/42/1 40/48/1 39/47/1
f 32/40/4 30/38/4 34/42/4 36/44/4
f 31/39/2 32/40/2 36/44/2 35/43/2
f 38/46/6 37/45/6 39/47/6 40/48/6
f 29/37/5 33/41/5 39/47/5 37/45/5
f 30/38/3 29/37/3 37/45/3 38/46/3
f 34/42/4 30/38/4 38/46/4 40/48/4
o Cube.002
v 19.799999 7.600000 42.200001
v 19.799999 53.142860 42.200001
v 19.799999 7.600000 26.900000
v 19.799999 53.142860 26.900002
v 42.799999 7.600000 42.200001
v 42.799999 53.142860 42.200001
v 42.799999 7.600000 26.900000
v 42.799999 53.142860 26.900002
v -26.900000 10.000000 -11.500000
v -26.900000 53.142860 -11.500000
v -26.900000 10.000000 -19.200001
v -26.900000 53.142860 -19.200001
v -15.400000 10.000000 -11.500000
v -15.400000 53.142860 -11.500000
v -15.400000 10.000000 -19.200001
v -15.400000 53.142860 -19.200001
v -26.900000 21.000000 -23.000000
v -26.900000 53.142860 -23.000000
v -26.900000 21.000000 -30.700001
v -26.900000 53.142860 -30.700001
v -14.100000 21.000000 -23.000000
v -14.100000 53.142860 -23.000000
v -14.100000 21.000000 -30.700001
v -14.100000 53.142860 -30.700001
v -35.799999 17.000000 -34.599998
v -35.799999 53.142860 -34.599998
v -35.799999 17.000000 -42.200001
v -35.799999 53.142860 -42.200001
v -15.400000 17.000000 -34.599998
v -15.400000 53.142860 -34.599998
v -15.400000 17.000000 -42.200001
v -15.400000 53.142860 -42.200001
v -57.599998 21.000000 -33.299999
v -57.599998 53.142860 -33.299999
v -57.599998 21.000000 -41.000000
v -57.599998 53.142860 -41.000000
v -39.700001 21.000000 -33.299999
v -39.700001 53.142860 -33.299999
v -39.700001 21.000000 -41.000000
v -39.700001 53.142860 -41.000000
v -57.700001 27.000000 -12.800000
v -57.700001 53.142860 -12.800000
v -57.700001 27.000000 -30.700001
v -57.700001 53.142860 -30.700001
v -39.700001 27.000000 -12.800000
v -39.700001 53.142860 -12.800000
v -39.700001 27.000000 -30.700001
v -39.700001 53.142860 -30.700001
v -35.900002 16.000000 -14.080000
v -35.900002 53.142860 -14.080000
v -35.900002 16.000000 -24.299999
v -35.900002 53.142860 -24.299999
v -30.700001 16.000000 -14.080000
v -30.700001 53.142860 -14.080000
v -30.700001 16.000000 -24.299999
v -30.700001 53.142860 -24.299999
vn -1.0000 -0.0000 -0.0000
vn -0.0000 -0.0000 -1.0000
vn 1.0000 -0.0000 -0.0000
vn -0.0000 -0.0000 1.0000
vn -0.0000 -1.0000 -0.0000
vn -0.0000 1.0000 -0.0000
vt 0.375000 0.000000
vt 0.375000 1.000000
vt 0.125000 0.750000
vt 0.625000 0.000000
vt 0.625000 1.000000
vt 0.875000 0.750000
vt 0.375000 0.250000
vt 0.125000 0.500000
vt 0.625000 0.250000
vt 0.875000 0.500000
vt 0.375000 0.750000
vt 0.625000 0.750000
vt 0.375000 0.500000
vt 0.625000 0.500000
vt 0.375000 0.000000
vt 0.375000 1.000000
vt 0.125000 0.750000
vt 0.625000 0.000000
vt 0.625000 1.000000
vt 0.875000 0.750000
vt 0.375000 0.250000
vt 0.125000 0.500000
vt 0.625000 0.250000
vt 0.875000 0.500000
vt 0.375000 0.750000
vt 0.625000 0.750000
vt 0.375000 0.500000
vt 0.625000 0.500000
vt 0.375000 0.000000
vt 0.375000 1.000000
vt 0.125000 0.750000
vt 0.625000 0.000000
vt 0.625000 1.000000
vt 0.875000 0.750000
vt 0.375000 0.250000
vt 0.125000 0.500000
vt 0.625000 0.250000
vt 0.875000 0.500000
vt 0.375000 0.750000
vt 0.625000 0.750000
vt 0.375000 0.500000
vt 0.625000 0.500000
vt 0.375000 0.000000
vt 0.375000 1.000000
vt 0.125000 0.750000
vt 0.625000 0.000000
vt 0.625000 1.000000
vt 0.875000 0.750000
vt 0.375000 0.250000
vt 0.125000 0.500000
vt 0.625000 0.250000
vt 0.875000 0.500000
vt 0.375000 0.750000
vt 0.625000 0.750000
vt 0.375000 0.500000
vt 0.625000 0.500000
vt 0.375000 0.000000
vt 0.375000 1.000000
vt 0.125000 0.750000
vt 0.625000 0.000000
vt 0.625000 1.000000
vt 0.875000 0.750000
vt 0.375000 0.250000
vt 0.125000 0.500000
vt 0.625000 0.250000
vt 0.875000 0.500000
vt 0.375000 0.750000
vt 0.625000 0.750000
vt 0.375000 0.500000
vt 0.625000 0.500000
vt 0.375000 0.000000
vt 0.375000 1.000000
vt 0.125000 0.750000
vt 0.625000 0.000000
vt 0.625000 1.000000
vt 0.875000 0.750000
vt 0.375000 0.250000
vt 0.125000 0.500000
vt 0.625000 0.250000
vt 0.875000 0.500000
vt 0.375000 0.750000
vt 0.625000 0.750000
vt 0.375000 0.500000
vt 0.625000 0.500000
vt 0.375000 0.000000
vt 0.375000 1.000000
vt 0.125000 0.750000
vt 0.625000 0.000000
vt 0.625000 1.000000
vt 0.875000 0.750000
vt 0.375000 0.250000
vt 0.125000 0.500000
vt 0.625000 0.250000
vt 0.875000 0.500000
vt 0.375000 0.750000
vt 0.625000 0.750000
vt 0.375000 0.500000
vt 0.625000 0.500000
s 0
f 41/49/7 42/52/7 44/57/7 43/55/7
f 43/55/8 44/57/8 48/62/8 47/61/8
f 47/61/9 48/62/9 46/60/9 45/59/9
f 45/59/10 46/60/10 42/53/10 41/50/10
f 43/56/11 47/61/11 45/59/11 41/51/11
f 48/62/12 44/58/12 42/54/12 46/60/12
f 49/63/7 50/66/7 52/71/7 51/69/7
f 51/69/8 52/71/8 56/76/8 55/75/8
f 55/75/9 56/76/9 54/74/9 53/73/9
f 53/73/10 54/74/10 50/67/10 49/64/10
f 51/70/11 55/75/11 53/73/11 49/65/11
f 56/76/12 52/72/12 50/68/12 54/74/12
f 57/77/7 58/80/7 60/85/7 59/83/7
f 59/83/8 60/85/8 64/90/8 63/89/8
f 63/89/9 64/90/9 62/88/9 61/87/9
f 61/87/10 62/88/10 58/81/10 57/78/10
f 59/84/11 63/89/11 61/87/11 57/79/11
f 64/90/12 60/86/12 58/82/12 62/88/12
f 65/91/7 66/94/7 68/99/7 67/97/7
f 67/97/8 68/99/8 72/104/8 71/103/8
f 71/103/9 72/104/9 70/102/9 69/101/9
f 69/101/10 70/102/10 66/95/10 65/92/10
f 67/98/11 71/103/11 69/101/11 65/93/11
f 72/104/12 68/100/12 66/96/12 70/102/12
f 73/105/7 74/108/7 76/113/7 75/111/7
f 75/111/8 76/113/8 80/118/8 79/117/8
f 79/117/9 80/118/9 78/116/9 77/115/9
f 77/115/10 78/116/10 74/109/10 73/106/10
f 75/112/11 79/117/11 77/115/11 73/107/11
f 80/118/12 76/114/12 74/110/12 78/116/12
f 81/119/7 82/122/7 84/127/7 83/125/7
f 83/125/8 84/127/8 88/132/8 87/131/8
f 87/131/9 88/132/9 86/130/9 85/129/9
f 85/129/10 86/130/10 82/123/10 81/120/10
f 83/126/11 87/131/11 85/129/11 81/121/11
f 88/132/12 84/128/12 82/124/12 86/130/12
f 89/133/7 90/136/7 92/141/7 91/139/7
f 91/139/8 92/141/8 96/146/8 95/145/8
f 95/145/9 96/146/9 94/144/9 93/143/9
f 93/143/10 94/144/10 90/137/10 89/134/10
f 91/140/11 95/145/11 93/143/11 89/135/11
f 96/146/12 92/142/12 90/138/12 94/144/12
