# Blender 3.5.0
# www.blender.org
o crossfire_world_geometry.001
v 12.874753 0.280062 43.696133
v 5.852160 0.280062 43.696133
v 5.852160 0.280062 36.673542
v 12.874753 0.280062 36.673542
v -5.852160 0.280062 43.696133
v -12.874753 0.280062 43.696133
v -12.874753 0.280062 36.673542
v -5.852160 0.280062 36.673542
v -5.852160 62.867710 43.696133
v -12.874753 62.867710 43.696133
v -5.852160 62.867710 36.673542
v 12.874753 62.867710 43.696133
v 5.852160 62.867710 43.696133
v 12.874753 62.867710 36.673542
v -12.874753 62.867710 36.673542
v 5.852160 62.867710 36.673542
vn -0.0000 -0.0000 -1.0000
vn -1.0000 -0.0000 -0.0000
vn -0.0000 -0.0000 1.0000
vn 1.0000 -0.0000 -0.0000
vt 0.687500 -2.875000
vt 0.125000 -2.875000
vt 0.125000 -2.312500
vt 0.687500 -2.312500
vt -0.812500 -2.875000
vt -1.375000 -2.875000
vt -1.375000 -2.312500
vt -0.812500 -2.312500
vt -0.812500 -2.875000
vt -1.375000 -2.875000
vt -0.812500 -2.312500
vt 0.687500 -2.875000
vt 0.125000 -2.875000
vt 0.687500 -2.312500
vt -1.375000 -2.312500
vt 0.125000 -2.312500
s 0
f 8/8/1 7/7/1 15/15/1 11/11/1
f 7/7/2 6/6/2 10/10/2 15/15/2
f 2/2/3 1/1/3 12/12/3 13/13/3
f 6/6/3 5/5/3 9/9/3 10/10/3
f 4/4/1 3/3/1 16/16/1 14/14/1
f 3/3/2 2/2/2 13/13/2 16/16/2
f 1/1/4 4/4/4 14/14/4 12/12/4
f 5/5/4 8/8/4 11/11/4 9/9/4
o crossfire_world_geometry.002
v 24.969217 -8.579578 -40.574978
v 16.386049 -8.579578 -40.574978
v 8.193025 -8.579578 -40.574978
v 0.000000 -8.579578 -40.574978
v 24.969217 -8.579578 -37.063683
v 24.969217 -8.579578 -23.408642
v 24.969217 -8.579578 -9.753600
v 24.969217 -8.579578 3.901440
v -3.511296 -8.579578 -40.574978
v -11.704321 -8.579578 -40.574978
v -19.897345 -8.579578 -40.574978
v -28.090370 -8.579578 -40.574978
v -28.090370 -8.579578 -28.870659
v -28.090370 -8.579578 -17.946627
v -28.090370 -8.579578 -7.022593
v -28.090370 -8.579578 3.901440
v 24.969217 -8.579578 16.386049
v 24.969217 -8.579578 30.041092
v 24.969217 -8.579578 43.696133
v 21.848066 -8.579578 43.696133
v 15.605762 -8.579578 43.696133
v 4.681728 -8.579578 43.696133
v 0.195072 -8.579578 43.696133
v -28.090370 -8.579578 10.924033
v -28.090370 -8.579578 21.848066
v -28.090370 -8.579578 32.772099
v -28.090370 -8.579578 43.696133
v -4.681728 -8.579578 43.696133
v -12.874753 -8.579578 43.696133
v -15.605762 -8.579578 43.696133
v -24.969217 -8.579578 43.696133
v 24.969217 41.989574 -40.574978
v 16.386049 41.989574 -40.574978
v 8.193025 41.989574 -40.574978
v 0.000000 41.989574 -40.574978
v 24.969217 41.989574 -37.063683
v 24.969217 41.989574 -23.408642
v 24.969217 41.989574 -9.753600
v 24.969217 41.989574 3.901440
v -3.511296 41.989574 -40.574978
v -11.704321 41.989574 -40.574978
v -19.897345 41.989574 -40.574978
v -28.090370 41.989574 -40.574978
v -28.090370 41.989574 -28.870659
v -28.090370 41.989574 -17.946627
v -28.090370 41.989574 -7.022593
v -28.090370 41.989574 3.901440
v 24.969217 41.989574 16.386049
v 24.969217 41.989574 30.041092
v 24.969217 41.989574 43.696133
v 21.848066 41.989574 43.696133
v 15.605762 41.989574 43.696133
v 4.681728 41.989574 43.696133
v 0.195072 41.989574 43.696133
v -28.090370 41.989574 10.924033
v -28.090370 41.989574 21.848066
v -28.090370 41.989574 32.772099
v -28.090370 41.989574 43.696133
v -4.681728 41.989574 43.696133
v -12.874753 41.989574 43.696133
v -15.605762 41.989574 43.696133
v -24.969217 41.989574 43.696133
v 6.242304 -5.572098 -31.211521
v 6.242304 -5.572098 -32.772099
v 10.924031 -5.572098 -32.772099
v 10.924031 -5.572098 -26.529793
v 9.753600 -5.572098 -26.529793
v 7.412736 -5.572098 -26.529793
v 6.242304 -5.572098 -26.529793
v 21.848063 -5.572098 -35.112961
v 21.848063 -5.572098 -32.772099
v 17.166336 -5.572098 -32.772099
v 17.166336 -5.572098 -37.453823
v 21.848063 -5.572098 -37.453823
v 6.242304 -5.572098 -34.332672
v 6.242304 -5.572098 -37.453823
v 14.435328 -5.572098 -37.453823
v 0.000000 -5.572098 1.560576
v 10.924031 -5.572098 1.560576
v 10.924031 -5.572098 3.901440
v 0.195072 -5.572098 3.901440
v 0.000000 -5.572098 3.901440
v 21.848063 -5.572098 -18.726912
v 17.166336 -5.572098 -18.726912
v 12.484608 -5.572098 -18.726912
v 10.924031 -5.572098 -18.726912
v 10.924031 -5.572098 -21.848063
v 21.848063 -5.572098 -21.848063
v 21.848063 -5.572098 -26.919935
v 1.560576 -5.572098 -34.332672
v 1.560576 -5.572098 -31.211521
v 1.560576 -5.572098 -30.041088
v 1.560576 -5.572098 -29.650944
v 1.560576 -5.572098 -26.529793
v 0.000000 -5.572098 -26.529793
v 0.000000 -5.572098 -37.453823
v 1.560576 -5.572098 -37.453823
v 10.924031 -5.572098 -1.560576
v 21.848063 -5.572098 -1.560576
v 21.848063 -5.572098 1.560576
v 18.726912 -5.572098 1.560576
v 14.045184 -5.572098 1.560576
v 0.000000 -5.572098 -1.560576
v 0.000000 -5.572098 -4.681728
v 6.242304 -5.572098 -4.681728
v 6.242304 -5.572098 -3.121152
v 6.242304 -5.572098 -1.950720
v 0.000000 -5.572098 -1.950720
v 10.924031 -5.572098 -1.950720
v 17.166336 -5.572098 -1.950720
v 21.848063 -5.572098 -1.950720
v 21.848063 -5.572098 -3.121152
v 17.166336 -5.572098 -3.121152
v 17.166336 -5.572098 -14.045184
v 21.848063 -5.572098 -14.045184
v 21.848063 -5.572098 -6.632448
v 6.242304 -5.572098 -12.874752
v 6.242304 -5.572098 -13.655040
v 6.242304 -5.572098 -14.045184
v 12.484608 -5.572098 -14.045184
v -21.457918 -5.572098 -32.772099
v -21.457918 -5.572098 -33.552383
v -19.117056 -5.572098 -33.552383
v -19.117056 -5.572098 -32.772099
v -18.726912 -5.572098 -21.848063
v -18.726912 -5.572098 -17.946625
v -18.726912 -5.572098 -17.166336
v -24.969215 -5.572098 -17.166336
v -24.969215 -5.572098 -17.946625
v -24.969215 -5.572098 -24.969215
v -18.726912 -5.572098 -24.969215
v -15.605761 -5.572098 -24.969215
v -16.386049 -5.572098 -24.969215
v -18.336769 -5.572098 -24.969215
v -24.969215 -5.572098 -26.139648
v -24.969215 -5.572098 -32.772099
v -15.605761 -5.572098 -32.772099
v -10.924031 -5.572098 3.901440
v -10.924031 -5.572098 1.560576
v -3.121152 -5.572098 1.560576
v -7.802880 -5.572098 -26.529793
v -10.924031 -5.572098 -26.529793
v -10.924031 -5.572098 -34.722816
v -10.924031 -5.572098 -37.453823
v -2.731008 -5.572098 -37.453823
v -15.605761 -5.572098 -4.681728
v -24.969215 -5.572098 -4.681728
v -24.969215 -5.572098 -6.242304
v -15.605761 -5.572098 -6.242304
v -24.969215 -5.572098 -6.632448
v -24.969215 -5.572098 -14.825472
v -15.995905 -5.572098 -17.166336
v -15.605761 -5.572098 -17.166336
v -15.605761 -5.572098 -15.605761
v -15.605761 -5.572098 -10.924031
v -3.121152 -5.572098 -1.560576
v -14.045184 -5.572098 -1.560576
v -13.264896 -5.572098 1.560576
v -14.045184 -5.572098 1.560576
v -16.386049 -5.572098 1.560576
v -19.507200 -5.572098 1.560576
v -22.628351 -5.572098 1.560576
v -24.969215 -5.572098 1.560576
v -24.969215 -5.572098 -1.560576
v -3.121152 -5.572098 -4.681728
v -3.121152 -5.572098 -1.950720
v -14.045184 -5.572098 -4.681728
v -5.852160 -5.572098 -4.681728
v -14.045184 -5.572098 -1.950720
v -24.969215 -5.572098 -1.950720
v 10.924031 -5.572098 7.802880
v 8.388096 -5.572098 7.802880
v 0.195072 -5.572098 7.802880
v -10.924031 -5.572098 7.802880
v -2.731008 -5.572098 7.802880
v 1.560576 45.381401 -29.650944
v 1.560576 45.381401 -26.529793
v 17.166336 45.381401 -1.950720
v 10.924031 45.381401 -1.950720
v -24.969215 45.381401 -17.166336
v -24.969215 45.381401 -17.946625
v -10.924031 45.381401 -37.453823
v -2.731008 45.381401 -37.453823
v -24.969215 45.381401 -14.825472
v -16.386049 45.381401 1.560576
v -19.507200 45.381401 1.560576
v -10.924031 45.381401 7.802880
v -2.731008 45.381401 7.802880
v 12.484608 45.381401 -18.726912
v 10.924031 45.381401 -18.726912
v 18.726912 45.381401 1.560576
v 14.045184 45.381401 1.560576
v 6.242304 45.381401 -12.874752
v 6.242304 45.381401 -13.655040
v -15.995905 45.381401 -17.166336
v -15.605761 45.381401 -17.166336
v 0.195072 45.381401 7.802880
v 10.924031 45.381401 1.560576
v 0.000000 45.381401 -26.529793
v 0.000000 45.381401 -1.560576
v -24.969215 45.381401 -24.969215
v -22.628351 45.381401 1.560576
v 21.848063 45.381401 -1.950720
v 21.848063 45.381401 -35.112961
v 21.848063 45.381401 -32.772099
v 21.848063 45.381401 -37.453823
v 10.924031 45.381401 -21.848063
v 6.242304 45.381401 -14.045184
v -21.457918 45.381401 -32.772099
v -21.457918 45.381401 -33.552383
v -19.117056 45.381401 -32.772099
v -24.969215 45.381401 -32.772099
v -15.605761 45.381401 -15.605761
v -14.045184 45.381401 -1.950720
v -24.969215 45.381401 -1.950720
v 6.242304 45.381401 -31.211521
v 6.242304 45.381401 -32.772099
v 6.242304 45.381401 -26.529793
v 10.924031 45.381401 3.901440
v 0.000000 45.381401 -37.453823
v 10.924031 45.381401 -1.560576
v 21.848063 45.381401 -3.121152
v -18.726912 45.381401 -24.969215
v -24.969215 45.381401 -26.139648
v -7.802880 45.381401 -26.529793
v -15.605761 45.381401 -4.681728
v -24.969215 45.381401 -4.681728
v -15.605761 45.381401 -6.242304
v -24.969215 45.381401 1.560576
v -14.045184 45.381401 -4.681728
v -10.924031 45.381401 3.901440
v 12.484608 45.381401 -14.045184
v 21.848063 45.381401 -21.848063
v 21.848063 45.381401 -26.919935
v -10.924031 45.381401 1.560576
v -15.605761 45.381401 -10.924031
v -3.121152 45.381401 -1.560576
v -19.117056 45.381401 -33.552383
v 1.560576 45.381401 -37.453823
v 21.848063 45.381401 -6.632448
v 6.242304 45.381401 -34.332672
v -18.336769 45.381401 -24.969215
v -24.969215 45.381401 -6.242304
v -24.969215 45.381401 -1.560576
v 10.924031 45.381401 7.802880
v 17.166336 45.381401 -37.453823
v 0.000000 45.381401 -4.681728
v 6.242304 45.381401 -4.681728
v 0.000000 45.381401 -1.950720
v -13.264896 45.381401 1.560576
v -3.121152 45.381401 -4.681728
v -15.605761 45.381401 -24.969215
v -16.386049 45.381401 -24.969215
v -15.605761 45.381401 -32.772099
v -24.969215 45.381401 -6.632448
v 17.166336 45.381401 -14.045184
v 10.924031 45.381401 -26.529793
v 8.388096 45.381401 7.802880
v -14.045184 45.381401 -1.560576
v 14.435328 45.381401 -37.453823
v -3.121152 45.381401 -1.950720
v -5.852160 45.381401 -4.681728
v 6.242304 45.381401 -1.950720
v 9.753600 45.381401 -26.529793
v 21.848063 45.381401 -1.560576
v 21.848063 45.381401 -14.045184
v -18.726912 45.381401 -21.848063
v -18.726912 45.381401 -17.946625
v -10.924031 45.381401 -26.529793
v -14.045184 45.381401 1.560576
v 1.560576 45.381401 -34.332672
v 1.560576 45.381401 -31.211521
v 7.412736 45.381401 -26.529793
v 21.848063 45.381401 -18.726912
v 21.848063 45.381401 1.560576
v -10.924031 45.381401 -34.722816
v 1.560576 45.381401 -30.041088
v -18.726912 45.381401 -17.166336
v 6.242304 45.381401 -37.453823
v 17.166336 45.381401 -18.726912
vn -0.0000 -0.0000 1.0000
vn -1.0000 -0.0000 -0.0000
vn -0.0000 -0.0000 -1.0000
vn 1.0000 -0.0000 -0.0000
vn -0.0000 -1.0000 -0.0000
vt 0.000000 0.000000
vt 0.000000 0.000000
vt 0.000000 0.000000
vt 0.000000 0.000000
vt 0.000000 0.000000
vt 0.000000 0.000000
vt 0.000000 0.000000
vt 0.000000 0.000000
vt 0.000000 0.000000
vt 0.000000 0.000000
vt 0.000000 0.000000
vt 0.000000 0.000000
vt 0.000000 0.000000
vt 0.000000 0.000000
vt 0.000000 0.000000
vt 0.000000 0.000000
vt 0.000000 0.000000
vt 0.000000 0.000000
vt 0.000000 0.000000
vt 0.000000 0.000000
vt 0.000000 0.000000
vt 0.000000 0.000000
vt 0.000000 0.000000
vt 0.000000 0.000000
vt 0.000000 0.000000
vt 0.000000 0.000000
vt 0.000000 0.000000
vt 0.000000 0.000000
vt 0.000000 0.000000
vt 0.000000 0.000000
vt 0.000000 0.000000
vt 0.000000 0.000000
vt 0.000000 0.000000
vt 0.000000 0.000000
vt 0.000000 0.000000
vt 0.000000 0.000000
vt 0.000000 0.000000
vt 0.000000 0.000000
vt 0.000000 0.000000
vt 0.000000 0.000000
vt 0.000000 0.000000
vt 0.000000 0.000000
vt 0.000000 0.000000
vt 0.000000 0.000000
vt 0.000000 0.000000
vt 0.000000 0.000000
vt 0.000000 0.000000
vt 0.000000 0.000000
vt 0.000000 0.000000
vt 0.000000 0.000000
vt 0.000000 0.000000
vt 0.000000 0.000000
vt 0.000000 0.000000
vt 0.000000 0.000000
vt 0.000000 0.000000
vt 0.000000 0.000000
vt 0.000000 0.000000
vt 0.000000 0.000000
vt 0.000000 0.000000
vt 0.000000 0.000000
vt 0.000000 0.000000
vt 0.000000 0.000000
vt 1.000000 6.000000
vt 1.000000 6.250000
vt 1.750000 6.250000
vt 1.750000 5.250000
vt 1.562500 5.250000
vt 1.187500 5.250000
vt 1.000000 5.250000
vt 3.500000 6.625000
vt 3.500000 6.250000
vt 2.750000 6.250000
vt 2.750000 7.000000
vt 3.500000 7.000000
vt 1.000000 6.500000
vt 1.000000 7.000000
vt 2.312500 7.000000
vt 0.000000 0.750000
vt 1.750000 0.750000
vt 1.750000 0.375000
vt 0.031250 0.375000
vt 0.000000 0.375000
vt 3.500000 4.000000
vt 2.750000 4.000000
vt 2.000000 4.000000
vt 1.750000 4.000000
vt 1.750000 4.500000
vt 3.500000 4.500000
vt 3.500000 5.312500
vt 0.250000 6.500000
vt 0.250000 6.000000
vt 0.250000 5.812500
vt 0.250000 5.750000
vt 0.250000 5.250000
vt 0.000000 5.250000
vt 0.000000 7.000000
vt 0.250000 7.000000
vt 1.750000 1.250000
vt 3.500000 1.250000
vt 3.500000 0.750000
vt 3.000000 0.750000
vt 2.250000 0.750000
vt 0.000000 1.250000
vt 0.000000 1.750000
vt 1.000000 1.750000
vt 1.000000 1.500000
vt 1.000000 1.312500
vt 0.000000 1.312500
vt 1.750000 1.312500
vt 2.750000 1.312500
vt 3.500000 1.312500
vt 3.500000 1.500000
vt 2.750000 1.500000
vt 2.750000 3.250000
vt 3.500000 3.250000
vt 3.500000 2.062500
vt 1.000000 3.062500
vt 1.000000 3.187500
vt 1.000000 3.250000
vt 2.000000 3.250000
vt -3.437500 6.250000
vt -3.437500 6.375000
vt -3.062500 6.375000
vt -3.062500 6.250000
vt -3.000000 4.500000
vt -3.000000 3.875000
vt -3.000000 3.750000
vt -4.000000 3.750000
vt -4.000000 3.875000
vt -4.000000 5.000000
vt -3.000000 5.000000
vt -2.500000 5.000000
vt -2.625000 5.000000
vt -2.937500 5.000000
vt -4.000000 5.187500
vt -4.000000 6.250000
vt -2.500000 6.250000
vt -1.750000 0.375000
vt -1.750000 0.750000
vt -0.500000 0.750000
vt -1.250000 5.250000
vt -1.750000 5.250000
vt -1.750000 6.562500
vt -1.750000 7.000000
vt -0.437500 7.000000
vt -2.500000 1.750000
vt -4.000000 1.750000
vt -4.000000 2.000000
vt -2.500000 2.000000
vt -4.000000 2.062500
vt -4.000000 3.375000
vt -2.562500 3.750000
vt -2.500000 3.750000
vt -2.500000 3.500000
vt -2.500000 2.750000
vt -0.500000 1.250000
vt -2.250000 1.250000
vt -2.125000 0.750000
vt -2.250000 0.750000
vt -2.625000 0.750000
vt -3.125000 0.750000
vt -3.625000 0.750000
vt -4.000000 0.750000
vt -4.000000 1.250000
vt -0.500000 1.750000
vt -0.500000 1.312500
vt -2.250000 1.750000
vt -0.937500 1.750000
vt -2.250000 1.312500
vt -4.000000 1.312500
vt 1.750000 -0.250000
vt 1.343750 -0.250000
vt 0.031250 -0.250000
vt -1.750000 -0.250000
vt -0.437500 -0.250000
vt 0.250000 5.750000
vt 0.250000 5.250000
vt 2.750000 1.312500
vt 1.750000 1.312500
vt -4.000000 3.750000
vt -4.000000 3.875000
vt -1.750000 7.000000
vt -0.437500 7.000000
vt -4.000000 3.375000
vt -2.625000 0.750000
vt -3.125000 0.750000
vt -1.750000 -0.250000
vt -0.437500 -0.250000
vt 2.000000 4.000000
vt 1.750000 4.000000
vt 3.000000 0.750000
vt 2.250000 0.750000
vt 1.000000 3.062500
vt 1.000000 3.187500
vt -2.562500 3.750000
vt -2.500000 3.750000
vt 0.031250 -0.250000
vt 1.750000 0.750000
vt 0.000000 5.250000
vt 0.000000 1.250000
vt -4.000000 5.000000
vt -3.625000 0.750000
vt 3.500000 1.312500
vt 3.500000 6.625000
vt 3.500000 6.250000
vt 3.500000 7.000000
vt 1.750000 4.500000
vt 1.000000 3.250000
vt -3.437500 6.250000
vt -3.437500 6.375000
vt -3.062500 6.250000
vt -4.000000 6.250000
vt -2.500000 3.500000
vt -2.250000 1.312500
vt -4.000000 1.312500
vt 1.000000 6.000000
vt 1.000000 6.250000
vt 1.000000 5.250000
vt 1.750000 0.375000
vt 0.000000 7.000000
vt 1.750000 1.250000
vt 3.500000 1.500000
vt -3.000000 5.000000
vt -4.000000 5.187500
vt -1.250000 5.250000
vt -2.500000 1.750000
vt -4.000000 1.750000
vt -2.500000 2.000000
vt -4.000000 0.750000
vt -2.250000 1.750000
vt -1.750000 0.375000
vt 2.000000 3.250000
vt 3.500000 4.500000
vt 3.500000 5.312500
vt -1.750000 0.750000
vt -2.500000 2.750000
vt -0.500000 1.250000
vt -3.062500 6.375000
vt 0.250000 7.000000
vt 3.500000 2.062500
vt 1.000000 6.500000
vt -2.937500 5.000000
vt -4.000000 2.000000
vt -4.000000 1.250000
vt 1.750000 -0.250000
vt 2.750000 7.000000
vt 0.000000 1.750000
vt 1.000000 1.750000
vt 0.000000 1.312500
vt -2.125000 0.750000
vt -0.500000 1.750000
vt -2.500000 5.000000
vt -2.625000 5.000000
vt -2.500000 6.250000
vt -4.000000 2.062500
vt 2.750000 3.250000
vt 1.750000 5.250000
vt 1.343750 -0.250000
vt -2.250000 1.250000
vt 2.312500 7.000000
vt -0.500000 1.312500
vt -0.937500 1.750000
vt 1.000000 1.312500
vt 1.562500 5.250000
vt 3.500000 1.250000
vt 3.500000 3.250000
vt -3.000000 4.500000
vt -3.000000 3.875000
vt -1.750000 5.250000
vt -2.250000 0.750000
vt 0.250000 6.500000
vt 0.250000 6.000000
vt 1.187500 5.250000
vt 3.500000 4.000000
vt 3.500000 0.750000
vt -1.750000 6.562500
vt 0.250000 5.812500
vt -3.000000 3.750000
vt 1.000000 7.000000
vt 2.750000 4.000000
s 0
f 26/26/5 25/25/5 56/56/5 57/57/5
f 33/33/6 34/34/6 65/65/6 64/64/6
f 47/47/7 43/43/7 74/74/7 78/78/7
f 28/28/5 27/27/5 58/58/5 59/59/5
f 20/20/5 19/19/5 50/50/5 51/51/5
f 31/31/8 30/30/8 61/61/8 62/62/8
f 22/22/6 23/23/6 54/54/6 53/53/6
f 43/43/8 42/42/8 73/73/8 74/74/8
f 40/40/8 32/32/8 63/63/8 71/71/8
f 24/24/6 33/33/6 64/64/6 55/55/6
f 18/18/5 17/17/5 48/48/5 49/49/5
f 35/35/7 36/36/7 67/67/7 66/66/7
f 45/45/7 46/46/7 77/77/7 76/76/7
f 17/17/6 21/21/6 52/52/6 48/48/6
f 46/46/7 47/47/7 78/78/7 77/77/7
f 19/19/5 18/18/5 49/49/5 50/50/5
f 36/36/7 37/37/7 68/68/7 67/67/7
f 27/27/5 26/26/5 57/57/5 58/58/5
f 21/21/6 22/22/6 53/53/6 52/52/6
f 23/23/6 24/24/6 55/55/6 54/54/6
f 44/44/7 45/45/7 76/76/7 75/75/7
f 37/37/7 38/38/7 69/69/7 68/68/7
f 25/25/5 20/20/5 51/51/5 56/56/5
f 29/29/8 28/28/8 59/59/8 60/60/8
f 30/30/8 29/29/8 60/60/8 61/61/8
f 32/32/8 31/31/8 62/62/8 63/63/8
f 42/42/8 41/41/8 72/72/8 73/73/8
f 34/34/6 35/35/6 66/66/6 65/65/6
f 39/39/7 44/44/7 75/75/7 70/70/7
f 41/41/8 40/40/8 71/71/8 72/72/8
f 38/38/7 39/39/7 70/70/7 69/69/7
f 49/49/9 48/48/9 52/52/9 53/53/9 54/54/9 55/55/9 64/64/9 65/65/9 66/66/9 67/67/9 68/68/9 69/69/9 70/70/9 75/75/9 76/76/9 77/77/9 78/78/9 74/74/9 73/73/9 72/72/9 71/71/9 63/63/9 62/62/9 61/61/9 60/60/9 59/59/9 58/58/9 57/57/9 56/56/9 51/51/9 50/50/9
f 85/85/9 79/79/9 80/80/9 81/81/9 82/82/9 83/83/9 84/84/9
f 90/90/9 86/86/9 87/87/9 88/88/9 89/89/9
f 89/89/9 88/88/9 81/81/9 80/80/9 91/91/9 92/92/9 93/93/9
f 98/98/9 94/94/9 95/95/9 96/96/9 97/97/9
f 104/104/9 99/99/9 100/100/9 101/101/9 102/102/9 103/103/9
f 104/104/9 103/103/9 82/82/9 81/81/9 88/88/9 87/87/9 105/105/9
f 113/113/9 106/106/9 107/107/9 108/108/9 109/109/9 110/110/9 111/111/9 112/112/9
f 95/95/9 114/114/9 115/115/9 116/116/9 117/117/9 118/118/9
f 94/94/9 119/119/9 114/114/9 95/95/9
f 124/124/9 120/120/9 121/121/9 122/122/9 123/123/9
f 129/129/9 128/128/9 127/127/9 126/126/9
f 129/129/9 130/130/9 131/131/9 132/132/9 128/128/9
f 126/126/9 125/125/9 123/123/9 122/122/9 129/129/9
f 129/129/9 122/122/9 121/121/9 133/133/9 134/134/9 135/135/9 136/136/9 130/130/9
f 140/140/9 137/137/9 138/138/9 139/139/9
f 147/147/9 141/141/9 142/142/9 143/143/9 144/144/9 145/145/9 146/146/9
f 153/153/9 148/148/9 149/149/9 150/150/9 147/147/9 146/146/9 151/151/9 152/152/9 137/137/9 140/140/9
f 98/98/9 154/154/9 155/155/9 156/156/9 94/94/9
f 112/112/9 111/111/9 157/157/9 158/158/9 159/159/9 160/160/9 161/161/9
f 165/165/9 162/162/9 163/163/9 164/164/9
f 165/165/9 164/164/9 166/166/9 167/167/9 144/144/9 143/143/9 168/168/9 169/169/9 170/170/9 171/171/9
f 156/156/9 172/172/9 119/119/9 94/94/9
f 175/175/9 173/173/9 172/172/9 156/156/9 155/155/9 174/174/9
f 175/175/9 176/176/9 177/177/9 178/178/9 179/179/9 180/180/9 173/173/9
f 182/182/9 181/181/9 120/120/9 124/124/9
f 185/185/9 183/183/9 184/184/9 181/181/9 182/182/9
f 185/185/9 186/186/9 163/163/9 162/162/9 183/183/9
f 189/189/9 97/97/9 96/96/9 187/187/9 188/188/9
f 189/189/9 191/191/9 190/190/9 154/154/9 98/98/9 97/97/9
f 151/151/6 146/146/6 217/217/6 240/240/6
f 150/150/5 149/149/5 269/269/5 258/258/5
f 157/157/5 111/111/5 215/215/5 241/241/5
f 165/165/8 171/171/8 252/252/8 244/244/8
f 162/162/8 165/165/8 244/244/8 242/242/8
f 179/179/5 178/178/5 218/218/5 245/245/5
f 181/181/7 184/184/7 278/278/7 267/267/7
f 183/183/7 162/162/7 242/242/7 246/246/7
f 154/154/6 190/190/6 203/203/6 247/247/6
f 83/83/5 82/82/5 273/273/5 280/280/5
f 136/136/7 135/135/7 224/224/7 248/248/7
f 82/82/6 103/103/6 223/223/6 273/273/6
f 115/115/7 114/114/7 237/237/7 281/281/7
f 114/114/7 119/119/7 216/216/7 237/237/7
f 105/105/8 87/87/8 221/221/8 250/250/8
f 131/131/7 130/130/7 272/272/7 282/282/7
f 155/155/6 154/154/6 247/247/6 251/251/6
f 142/142/8 141/141/8 283/283/8 284/284/8
f 171/171/8 170/170/8 229/229/8 252/252/8
f 141/141/8 147/147/8 239/239/8 283/283/8
f 119/119/7 172/172/7 253/253/7 216/216/7
f 110/110/8 109/109/8 192/192/8 193/193/8
f 158/158/5 157/157/5 241/241/5 285/285/5
f 139/139/7 138/138/7 226/226/7 254/254/7
f 125/125/5 126/126/5 194/194/5 195/195/5
f 145/145/6 144/144/6 196/196/6 197/197/6
f 173/173/7 180/180/7 260/260/7 275/275/7
f 113/113/7 112/112/7 236/236/7 255/255/7
f 161/161/7 160/160/7 198/198/7 199/199/7
f 130/130/7 136/136/7 248/248/7 272/272/7
f 128/128/8 132/132/8 256/256/8 238/238/8
f 144/144/6 167/167/6 200/200/6 196/196/6
f 107/107/8 106/106/8 287/287/8 288/288/8
f 177/177/5 176/176/5 201/201/5 202/202/5
f 106/106/8 113/113/8 255/255/8 287/287/8
f 91/91/6 80/80/6 233/233/6 257/257/6
f 190/190/5 191/191/5 204/204/5 203/203/5
f 102/102/5 101/101/5 205/205/5 206/206/5
f 167/167/6 166/166/6 271/271/6 200/200/6
f 147/147/5 150/150/5 258/258/5 239/239/5
f 118/118/5 117/117/5 207/207/5 208/208/5
f 185/185/5 182/182/5 277/277/5 230/230/5
f 112/112/7 161/161/7 199/199/7 236/236/7
f 134/134/6 133/133/6 209/209/6 210/210/6
f 84/84/5 83/83/5 280/280/5 289/289/5
f 164/164/6 163/163/6 243/243/6 259/259/6
f 169/169/7 168/168/7 211/211/7 212/212/7
f 99/99/8 104/104/8 249/249/8 290/290/8
f 180/180/6 179/179/6 245/245/6 260/260/6
f 191/191/5 189/189/5 213/213/5 204/204/5
f 116/116/8 115/115/8 281/281/8 291/291/8
f 163/163/6 186/186/6 231/231/6 243/243/6
f 132/132/8 131/131/8 282/282/8 256/256/8
f 187/187/8 96/96/8 235/235/8 261/261/8
f 159/159/6 158/158/6 285/285/6 292/292/6
f 111/111/5 110/110/5 193/193/5 215/215/5
f 175/175/5 174/174/5 266/266/5 286/286/5
f 104/104/8 105/105/8 250/250/8 249/249/8
f 108/108/8 107/107/8 288/288/8 293/293/8
f 121/121/7 120/120/7 263/263/7 264/264/7
f 124/124/5 123/123/5 279/279/5 265/265/5
f 146/146/6 145/145/6 197/197/6 217/217/6
f 143/143/8 142/142/8 284/284/8 294/294/8
f 189/189/5 188/188/5 274/274/5 213/213/5
f 174/174/5 155/155/5 251/251/5 266/266/5
f 178/178/5 177/177/5 202/202/5 218/218/5
f 92/92/6 91/91/6 257/257/6 295/295/6
f 120/120/7 181/181/7 267/267/7 263/263/7
f 126/126/5 127/127/5 219/219/5 194/194/5
f 123/123/5 125/125/5 195/195/5 279/279/5
f 140/140/8 139/139/8 254/254/8 227/227/8
f 87/87/8 86/86/8 220/220/8 221/221/8
f 100/100/5 99/99/5 290/290/5 296/296/5
f 149/149/5 148/148/5 268/268/5 269/269/5
f 86/86/8 90/90/8 222/222/8 220/220/8
f 152/152/6 151/151/6 240/240/6 228/228/6
f 148/148/8 153/153/8 270/270/8 268/268/8
f 103/103/6 102/102/6 206/206/6 223/223/6
f 184/184/7 183/183/7 246/246/7 278/278/7
f 135/135/6 134/134/6 210/210/6 224/224/6
f 166/166/6 164/164/6 259/259/6 271/271/6
f 138/138/6 137/137/6 225/225/6 226/226/6
f 109/109/8 108/108/8 293/293/8 192/192/8
f 85/85/5 84/84/5 289/289/5 234/234/5
f 137/137/7 152/152/7 228/228/7 225/225/7
f 117/117/5 116/116/5 291/291/5 207/207/5
f 170/170/8 169/169/8 212/212/8 229/229/8
f 186/186/5 185/185/5 230/230/5 231/231/5
f 160/160/6 159/159/6 292/292/6 198/198/6
f 188/188/5 187/187/5 261/261/5 274/274/5
f 80/80/6 79/79/6 232/232/6 233/233/6
f 101/101/5 100/100/5 296/296/5 205/205/5
f 153/153/7 140/140/7 227/227/7 270/270/7
f 79/79/6 85/85/6 234/234/6 232/232/6
f 168/168/7 143/143/7 294/294/7 211/211/7
f 96/96/8 95/95/8 214/214/8 235/235/8
f 176/176/5 175/175/5 286/286/5 201/201/5
f 172/172/7 173/173/7 275/275/7 253/253/7
f 182/182/5 124/124/5 265/265/5 277/277/5
f 90/90/7 89/89/7 262/262/7 222/222/7
f 93/93/7 92/92/7 295/295/7 276/276/7
f 89/89/7 93/93/7 276/276/7 262/262/7
f 95/95/5 118/118/5 208/208/5 214/214/5
f 127/127/8 128/128/8 238/238/8 219/219/8
f 133/133/6 121/121/6 264/264/6 209/209/6
