# Blender 3.4.1
# www.blender.org
o ladder
v 14.284148 0.699928 -15.901872
v 14.284148 6.744654 -15.901872
v 13.727439 0.699928 -16.280226
v 13.727439 6.744654 -16.280226
v 14.435131 0.699928 -16.124027
v 14.435131 6.744654 -16.124027
v 13.878424 0.699928 -16.502378
v 13.878424 6.744654 -16.502378
vn -0.5621 -0.0000 0.8271
vn -0.8271 -0.0000 -0.5621
vn 0.5621 -0.0000 -0.8271
vn 0.8271 -0.0000 0.5621
vn -0.0000 1.0000 -0.0000
vn -0.0000 -1.0000 -0.0000
vt 0.375000 0.000000
vt 0.375000 1.000000
vt 0.625000 0.000000
vt 0.625000 1.000000
vt 0.875000 0.750000
vt 0.375000 0.250000
vt 0.625000 0.250000
vt 0.875000 0.500000
vt 0.375000 0.750000
vt 0.625000 0.750000
vt 0.375000 0.500000
vt 0.625000 0.500000
s 0
f 1/1/1 2/3/1 4/7/1 3/6/1
f 3/6/2 4/7/2 8/12/2 7/11/2
f 7/11/3 8/12/3 6/10/3 5/9/3
f 5/9/4 6/10/4 2/4/4 1/2/4
f 8/12/5 4/8/5 2/5/5 6/10/5
f 3/6/6 7/11/6 5/9/6 1/2/6
