# Blender 3.5.0
# www.blender.org
mtllib head.mtl
o Quad_Sphere
v 0.500000 0.807107 -0.200000
v 0.707107 0.100000 -0.407107
v 0.500000 -0.607107 -0.200000
v 0.707107 0.807107 0.300000
v 1.000000 0.100000 0.300000
v 0.707107 -0.607107 0.300000
v 0.500000 0.807107 0.800000
v 0.707107 0.100000 1.007107
v 0.500000 -0.607107 0.800000
v 0.000000 0.807107 1.007107
v 0.000000 0.100000 1.300000
v 0.000000 -0.607107 1.007107
v -0.500000 0.807107 0.800000
v -0.707107 0.100000 1.007107
v -0.500000 -0.607107 0.800000
v 0.000000 -0.900000 0.300000
v -0.707107 0.807107 0.300000
v -1.000000 0.100000 0.300000
v -0.707107 -0.607107 0.300000
v -0.500000 0.807107 -0.200000
v -0.707107 0.100000 -0.407107
v -0.500000 -0.607107 -0.200000
v 0.000000 1.100000 0.300000
v 0.000000 0.807107 -0.407107
v 0.000000 0.100000 -0.700000
v 0.000000 -0.607107 -0.407107
v 0.300000 0.800000 0.500000
v 0.473205 0.800000 0.800000
v 0.126795 0.800000 0.800000
v 0.800000 1.600000 1.100000
v -0.300000 0.800000 0.500000
v -0.126795 0.800000 0.800000
v -0.473205 0.800000 0.800000
v -0.800000 1.600000 1.100000
v 0.300000 0.800000 -0.200000
v 0.473205 0.800000 0.100000
v 0.126795 0.800000 0.100000
v 0.800000 1.600000 -0.500000
v -0.300000 0.800000 -0.200000
v -0.126795 0.800000 0.100000
v -0.473205 0.800000 0.100000
v -0.800000 1.600000 -0.500000
v 0.300000 0.800000 0.123550
v 0.473205 0.800000 0.423550
v 0.126795 0.800000 0.423550
v 0.816000 1.100000 0.300000
v -0.300000 0.800000 0.123550
v -0.126795 0.800000 0.423550
v -0.473205 0.800000 0.423550
v -0.816000 1.100000 0.300000
vn 0.3574 -0.3574 -0.8629
vn 0.1566 0.9125 -0.3780
vn 0.1566 -0.9125 -0.3780
vn 0.3574 0.3574 -0.8629
vn 0.8629 -0.3574 -0.3574
vn 0.3780 0.9125 -0.1566
vn 0.3780 -0.9125 -0.1566
vn 0.8629 0.3574 -0.3574
vn 0.8629 -0.3574 0.3574
vn 0.3780 0.9125 0.1566
vn 0.3780 -0.9125 0.1566
vn 0.8629 0.3574 0.3574
vn 0.3574 -0.3574 0.8629
vn 0.1566 0.9125 0.3780
vn 0.1566 -0.9125 0.3780
vn 0.3574 0.3574 0.8629
vn -0.3574 0.3574 0.8629
vn -0.3574 -0.3574 0.8629
vn -0.1566 0.9125 0.3780
vn -0.1566 -0.9125 0.3780
vn -0.3780 -0.9125 0.1566
vn -0.8629 0.3574 0.3574
vn -0.8629 -0.3574 0.3574
vn -0.3780 0.9125 0.1566
vn -0.3780 -0.9125 -0.1566
vn -0.8629 0.3574 -0.3574
vn -0.8629 -0.3574 -0.3574
vn -0.3780 0.9125 -0.1566
vn -0.1566 -0.9125 -0.3780
vn -0.3574 0.3574 -0.8629
vn -0.3574 -0.3574 -0.8629
vn -0.1566 0.9125 -0.3780
vn 0.8543 -0.1640 -0.4932
vn -0.0000 -1.0000 -0.0000
vn -0.0000 -0.3511 0.9363
vn -0.6385 0.6756 -0.3687
vn 0.6385 0.6756 -0.3687
vn -0.8543 -0.1640 -0.4932
vn 0.6999 -0.5890 -0.4041
vn -0.0000 0.6000 0.8000
vn -0.8164 0.3335 -0.4714
vn 0.8164 0.3335 -0.4714
vn -0.6999 -0.5890 -0.4041
vn 0.5557 -0.7670 -0.3208
vn -0.0000 0.3808 0.9247
vn -0.4235 0.8723 -0.2445
vn 0.4235 0.8723 -0.2445
vn -0.5557 -0.7670 -0.3208
vt 0.917701 0.759979
vt 0.578807 0.490215
vt 0.579196 0.780000
vt 0.953443 0.454903
vt 0.612000 0.500000
vt 0.917701 0.149828
vt 0.579196 0.220000
vt 0.578807 0.490215
vt 0.591621 0.412879
vt 0.500000 0.780000
vt 0.500000 0.500000
vt 0.500000 0.220000
vt 0.591621 0.412879
vt 0.420804 0.780000
vt 0.578807 0.335542
vt 0.253118 0.800000
vt 0.388000 0.500000
vt 0.288266 0.500000
vt 0.420804 0.220000
vt 0.253118 0.200000
vt 0.578807 0.335542
vt 0.168265 0.800000
vt 0.547872 0.303508
vt 0.168265 0.500000
vt 0.168265 0.200000
vt 0.547872 0.303508
vt 0.083413 0.800000
vt 0.420804 0.780000
vt 0.516938 0.335542
vt 0.048266 0.500000
vt 0.388000 0.500000
vt 0.083413 0.200000
vt 0.516938 0.335542
vt 0.420804 0.220000
vt 0.547872 0.412879
vt 0.500000 0.780000
vt 0.504124 0.412879
vt 0.500000 0.500000
vt 0.504124 0.412879
vt 0.500000 0.220000
vt 0.579196 0.780000
vt 0.745124 0.759979
vt 0.516938 0.490215
vt 0.612000 0.500000
vt 0.709382 0.454903
vt 0.579196 0.220000
vt 0.516938 0.490215
vt 0.745124 0.149828
vt 0.547872 0.412879
vt 0.831412 0.759979
vt 0.547872 0.522249
vt 0.831412 0.454903
vt 0.547872 0.522249
vt 0.831412 0.149828
vt 0.412972 0.822349
vt 0.403491 0.799344
vt 0.406135 0.806595
vt 0.412969 0.788965
vt 0.407239 0.809140
vt 0.399345 0.790948
vt 0.405074 0.770774
vt 0.384550 0.842773
vt 0.399938 0.878234
vt 0.425947 0.786651
vt 0.410188 0.814776
vt 0.412972 0.822349
vt 0.419666 0.804396
vt 0.413936 0.824571
vt 0.411771 0.786205
vt 0.406042 0.806380
vt 0.406135 0.806595
vt 0.409854 0.749569
vt 0.383846 0.841151
vt 0.384550 0.842773
vt 0.390586 0.844785
vt 0.408554 0.812169
vt 0.401717 0.796415
vt 0.400064 0.834406
vt 0.407239 0.809140
vt 0.392169 0.816215
vt 0.399345 0.790948
vt 0.401717 0.796415
vt 0.399938 0.878234
vt 0.400642 0.879856
vt 0.397283 0.860217
vt 0.408554 0.812169
vt 0.401717 0.796415
vt 0.406761 0.849838
vt 0.413936 0.824571
vt 0.398866 0.831646
vt 0.406042 0.806380
vt 0.401717 0.796415
vt 0.383846 0.841151
vt 0.400642 0.879856
vt 0.396551 0.823782
vt 0.406029 0.813403
vt 0.407239 0.809140
vt 0.399345 0.790948
vt 0.398134 0.795211
vt 0.409521 0.846616
vt 0.411563 0.839425
vt 0.403248 0.839213
vt 0.412726 0.828834
vt 0.413936 0.824571
vt 0.406042 0.806380
vt 0.404831 0.810643
vt 0.392699 0.807853
vt 0.394741 0.800662
s 0
usemtl Material.002
f 26/54/1 25/52/1 2/4/1 3/6/1
f 24/51/2 23/49/2 1/2/2
f 16/35/3 26/53/3 3/8/3
f 25/52/4 24/50/4 1/1/4 2/4/4
f 3/7/5 2/5/5 5/11/5 6/12/5
f 1/2/6 23/49/6 4/9/6
f 16/35/7 3/8/7 6/13/7
f 2/5/8 1/3/8 4/10/8 5/11/8
f 6/12/9 5/11/9 8/17/9 9/19/9
f 4/9/10 23/49/10 7/15/10
f 16/35/11 6/13/11 9/21/11
f 5/11/12 4/10/12 7/14/12 8/17/12
f 9/20/13 8/18/13 11/24/13 12/25/13
f 7/15/14 23/49/14 10/23/14
f 16/35/15 9/21/15 12/26/15
f 8/18/16 7/16/16 10/22/16 11/24/16
f 11/24/17 10/22/17 13/27/17 14/30/17
f 12/25/18 11/24/18 14/30/18 15/32/18
f 10/23/19 23/49/19 13/29/19
f 16/35/20 12/26/20 15/33/20
f 16/35/21 15/33/21 19/39/21
f 14/31/22 13/28/22 17/36/22 18/38/22
f 15/34/23 14/31/23 18/38/23 19/40/23
f 13/29/24 23/49/24 17/37/24
f 16/35/25 19/39/25 22/47/25
f 18/38/26 17/36/26 20/41/26 21/44/26
f 19/40/27 18/38/27 21/44/27 22/46/27
f 17/37/28 23/49/28 20/43/28
f 16/35/29 22/47/29 26/53/29
f 21/45/30 20/42/30 24/50/30 25/52/30
f 22/48/31 21/45/31 25/52/31 26/54/31
f 20/43/32 23/49/32 24/51/32
f 27/55/33 30/62/33 28/57/33
f 27/56/34 28/58/34 29/61/34
f 28/59/35 30/63/35 29/60/35
f 29/61/36 30/64/36 27/56/36
f 31/65/37 34/72/37 32/67/37
f 31/65/34 32/67/34 33/69/34
f 32/68/35 34/73/35 33/70/35
f 33/71/38 34/74/38 31/66/38
f 35/76/39 38/84/39 36/77/39
f 35/75/34 36/78/34 37/80/34
f 36/79/40 38/83/40 37/81/40
f 37/82/41 38/84/41 35/76/41
f 39/86/42 42/94/42 40/87/42
f 39/85/34 40/88/34 41/90/34
f 40/89/40 42/93/40 41/91/40
f 41/92/43 42/94/43 39/86/43
f 43/95/44 46/101/44 44/96/44
f 43/95/34 44/96/34 45/99/34
f 44/97/45 46/100/45 45/98/45
f 45/99/46 46/101/46 43/95/46
f 47/102/47 50/108/47 48/103/47
f 47/102/34 48/103/34 49/106/34
f 48/104/45 50/107/45 49/105/45
f 49/106/48 50/108/48 47/102/48
