# Blender 3.5.0
# www.blender.org
mtllib bounce.mtl
o cpm22out.030
v 1.013645 3.970644 -9.240498
v -0.708849 3.970644 -9.921484
v 0.332659 3.970644 -9.921484
v 1.013645 3.970644 -8.198990
v -1.389835 3.970644 -9.240498
v 0.332659 3.970644 -7.518004
v -1.389835 3.970644 -8.198990
v -0.708849 3.970644 -7.518004
vn -0.0000 1.0000 -0.0000
vt 0.968750 0.296875
vt 0.296875 0.031250
vt 0.703125 0.031250
vt 0.968750 0.703125
vt 0.031250 0.296875
vt 0.703125 0.968750
vt 0.031250 0.703125
vt 0.296875 0.968750
s 0
usemtl Material
f 5/5/1 4/4/1 2/2/1
f 2/2/1 4/4/1 1/1/1
f 5/5/1 6/6/1 4/4/1
f 3/3/1 2/2/1 1/1/1
f 7/7/1 6/6/1 5/5/1
f 7/7/1 8/8/1 6/6/1
