# Blender 3.5.0
# www.blender.org
mtllib slippery.mtl
o cpm22out.032
v 5.259791 8.235462 2.336260
v 5.259791 8.235462 0.894173
v 4.138167 6.553027 0.894173
v 4.138167 6.553027 3.618116
v 4.138167 6.553027 2.336260
v 4.138167 6.553027 5.060204
v 5.259791 8.235462 5.060203
v 5.259791 8.235462 3.618115
vn -0.8321 0.5547 -0.0000
vt 0.690505 -0.000372
vt 1.194411 -0.000372
vt -0.001803 -0.000372
vt -0.001803 0.999628
vt 1.809796 0.999628
vt 1.305890 0.999628
vt 0.690505 0.999628
vt 1.194411 0.999628
vt 1.998197 0.999628
vt 1.998197 -0.000372
vt 1.809796 -0.000372
vt 1.305890 -0.000372
s 0
usemtl nothing
f 2/3/1 5/7/1 1/1/1
f 2/3/1 3/4/1 5/7/1
f 5/8/1 4/5/1 1/2/1
f 4/5/1 8/11/1 1/2/1
f 4/6/1 6/9/1 8/12/1
f 6/9/1 7/10/1 8/12/1
