# Blender 3.4.1
# www.blender.org
o Cube.007
v -0.320056 -0.980659 -18.137077
v -0.320056 1.320331 -18.137077
v -0.320056 -0.980659 -18.863209
v -0.320056 1.320331 -18.863209
v 0.042487 -0.980659 -18.137077
v 0.042487 1.451822 -18.137077
v 0.042487 -0.980659 -18.863209
v 0.042487 1.451822 -18.863209
vn -0.0000 -0.0000 -1.0000
vn 1.0000 -0.0000 -0.0000
vn -0.0000 -0.0000 1.0000
vn -0.0000 -1.0000 -0.0000
vn -0.3410 0.9401 -0.0000
vt 0.454617 0.897659
vt 0.227341 0.670383
vt 0.742241 0.897659
vt 0.772659 0.670383
vt 0.454617 0.352341
vt 0.227341 0.579617
vt 0.742241 0.352341
vt 0.772659 0.579617
vt 0.454617 0.670383
vt 0.454617 0.852341
vt 0.272659 0.670383
vt 0.758677 0.670383
vt 0.758677 0.852341
vt 0.727341 0.670383
vt 0.454617 0.397659
vt 0.454617 0.579617
vt 0.272659 0.579617
vt 0.758677 0.397659
vt 0.758677 0.579617
vt 0.727341 0.579617
s 0
f 3/5/1 4/7/1 8/18/1 7/15/1
f 7/16/2 8/19/2 6/12/2 5/9/2
f 5/10/3 6/13/3 2/3/3 1/1/3
f 3/6/4 7/17/4 5/11/4 1/2/4
f 8/20/5 4/8/5 2/4/5 6/14/5
