# Blender 3.5.0
# www.blender.org
o Cube.007
v -0.758733 3.223182 -7.429584
v -0.758733 6.727745 -7.429584
v -0.748871 6.607591 -8.361115
v 0.374711 3.223182 -7.429584
v 0.374711 6.727745 -7.429584
v 0.384574 6.607591 -8.361115
v -0.758733 3.223182 -13.273710
v -0.758733 6.727745 -13.273710
v -0.748871 6.607591 -12.342180
v 0.374711 3.223182 -13.273710
v 0.374711 6.727745 -13.273710
v 0.384574 6.607591 -12.342180
vn -0.0000 -0.0000 1.0000
vn -0.0000 0.9918 -0.1279
vn -0.0000 -0.0000 -1.0000
vn -0.0000 0.9918 0.1279
vt 0.375000 0.939918
vt 0.890833 0.939918
vt 0.814918 0.750000
vt 0.813467 0.612889
vt 0.375000 0.773088
vt 0.890833 0.773088
vt 0.648088 0.750000
vt 0.646636 0.612889
vt 0.375000 0.939918
vt 0.890833 0.939918
vt 0.814918 0.750000
vt 0.813467 0.612889
vt 0.375000 0.773088
vt 0.890833 0.773088
vt 0.648088 0.750000
vt 0.646636 0.612889
s 0
f 4/5/1 5/6/1 2/2/1 1/1/1
f 6/8/2 3/4/2 2/3/2 5/7/2
f 10/13/3 7/9/3 8/10/3 11/14/3
f 12/16/4 11/15/4 8/11/4 9/12/4
