# Blender 3.5.0
# www.blender.org
mtllib door.mtl
o door
v -10.558290 9.246799 -1.815784
v -10.558290 9.246799 -3.815784
v -10.558290 7.246798 -1.815784
v -10.558290 7.246798 -3.815784
v -10.752168 9.246799 -3.815784
v -10.752168 9.246799 -1.815784
v -10.752168 7.246798 -3.815784
v -10.752168 7.246798 -1.815784
vn 1.0000 -0.0000 -0.0000
vn -1.0000 -0.0000 -0.0000
vn -0.0000 -0.0000 1.0000
vn -0.0000 -0.0000 -1.0000
vn -0.0000 -1.0000 -0.0000
vn -0.0000 1.0000 -0.0000
vt 0.463565 0.250000
vt 0.463565 0.750000
vt 0.963565 0.250000
vt 0.963565 0.750000
vt 0.463565 0.750000
vt 0.463565 0.250000
vt 0.963565 0.750000
vt 0.963565 0.250000
s 0
usemtl EntityWall
f 2/2/1 1/1/1 3/3/1 4/4/1
f 5/5/2 7/7/2 8/8/2 6/6/2
f 3/3/3 1/1/3 6/6/3 8/8/3
f 2/2/4 4/4/4 7/7/4 5/5/4
f 4/4/5 3/3/5 8/8/5 7/7/5
f 1/1/6 2/2/6 5/5/6 6/6/6
