# Blender v3.5.1 OBJ File: 'map.blend'
# www.blender.org
mtllib crate.mtl
o crate_Cube.004
v -27.351490 2.550338 -2.824019
v -27.351490 3.550338 -2.824019
v -26.362394 2.550338 -2.676751
v -26.362394 3.550338 -2.676751
v -27.498758 2.550338 -1.834922
v -27.498758 3.550338 -1.834922
v -26.509663 2.550338 -1.687654
v -26.509663 3.550338 -1.687654
v -7.652122 1.534481 2.948302
v -7.652122 2.534481 2.948302
v -7.262794 1.534481 2.027201
v -7.262794 2.534481 2.027201
v -6.731020 1.534481 3.337628
v -6.731020 2.534481 3.337628
v -6.341694 1.534481 2.416528
v -6.341694 2.534481 2.416528
v -7.653358 2.534481 2.419598
v -7.653358 3.534481 2.419598
v -6.734091 2.534481 2.025964
v -6.734091 3.534481 2.025964
v -7.259724 2.534481 3.338866
v -7.259724 3.534481 3.338866
v -6.340458 2.534481 2.945232
v -6.340458 3.534481 2.945232
v -12.770333 1.534481 1.258568
v -12.770333 2.534481 1.258568
v -12.019534 1.534481 0.598037
v -12.019534 2.534481 0.598037
v -12.109803 1.534481 2.009367
v -12.109803 2.534481 2.009367
v -11.359004 1.534481 1.348837
v -11.359004 2.534481 1.348837
v -12.541780 2.534481 0.781816
v -12.541780 3.534481 0.781816
v -11.542782 2.534481 0.826591
v -11.542782 3.534481 0.826591
v -12.586555 2.534481 1.780813
v -12.586555 3.534481 1.780813
v -11.587557 2.534481 1.825588
v -11.587557 3.534481 1.825588
v -10.497948 1.534481 2.142755
v -10.497948 2.534481 2.142755
v -9.518755 1.534481 1.939824
v -9.518755 2.534481 1.939824
v -10.295015 1.534481 3.121948
v -10.295015 2.534481 3.121948
v -9.315823 1.534481 2.919018
v -9.315823 2.534481 2.919018
v -15.557698 1.534481 2.548150
v -15.557698 2.534481 2.548150
v -14.712548 1.534481 2.013620
v -14.712548 2.534481 2.013620
v -15.023169 1.534481 3.393300
v -15.023169 2.534481 3.393300
v -14.178019 1.534481 2.858770
v -14.178019 2.534481 2.858770
v -27.097294 1.550338 -2.475981
v -27.097294 2.550338 -2.475981
v -26.252146 1.550338 -3.010511
v -26.252146 2.550338 -3.010511
v -26.562765 1.550338 -1.630832
v -26.562765 2.550338 -1.630832
v -25.717615 1.550338 -2.165362
v -25.717615 2.550338 -2.165362
v -28.126495 1.550338 -2.664338
v -28.126495 2.550338 -2.664338
v -27.132530 1.550338 -2.774020
v -27.132530 2.550338 -2.774020
v -28.016813 1.550338 -1.670371
v -28.016813 2.550338 -1.670371
v -27.022846 1.550338 -1.780053
v -27.022846 2.550338 -1.780053
vt 1.000000 0.000000
vt 0.000000 1.000000
vt 0.000000 0.000000
vt 1.000000 0.000000
vt 0.000000 1.000000
vt 0.000000 0.000000
vt 1.000000 0.000000
vt 0.000000 1.000000
vt 0.000000 0.000000
vt 1.000000 0.000000
vt 0.000000 1.000000
vt 0.000000 0.000000
vt 1.000000 0.000000
vt 0.000000 1.000000
vt 0.000000 0.000000
vt 1.000000 0.000000
vt 0.000000 1.000000
vt 0.000000 0.000000
vt 1.000000 0.000000
vt 0.000000 1.000000
vt 0.000000 0.000000
vt 1.000000 0.000000
vt 0.000000 1.000000
vt 0.000000 0.000000
vt 1.000000 0.000000
vt 0.000000 1.000000
vt 0.000000 0.000000
vt 1.000000 1.000000
vt 0.000000 1.000000
vt 0.000000 0.000000
vt 1.000000 0.000000
vt 0.000000 1.000000
vt 0.000000 0.000000
vt 1.000000 0.000000
vt 0.000000 1.000000
vt 0.000000 0.000000
vt 1.000000 0.000000
vt 0.000000 1.000000
vt 0.000000 0.000000
vt 1.000000 0.000000
vt 0.000000 1.000000
vt 0.000000 0.000000
vt 1.000000 1.000000
vt 0.000000 1.000000
vt 0.000000 0.000000
vt 1.000000 0.000000
vt 0.000000 1.000000
vt 0.000000 0.000000
vt 1.000000 0.000000
vt 0.000000 1.000000
vt 0.000000 0.000000
vt 1.000000 0.000000
vt 0.000000 1.000000
vt 0.000000 0.000000
vt 1.000000 0.000000
vt 0.000000 1.000000
vt 0.000000 0.000000
vt 1.000000 0.000000
vt 0.000000 0.000000
vt 1.000000 1.000000
vt 0.000000 1.000000
vt 1.000000 0.000000
vt 0.000000 1.000000
vt 0.000000 0.000000
vt 1.000000 0.000000
vt 0.000000 1.000000
vt 0.000000 0.000000
vt 1.000000 0.000000
vt 0.000000 1.000000
vt 0.000000 0.000000
vt 1.000000 0.000000
vt 0.000000 1.000000
vt 0.000000 0.000000
vt 1.000000 0.000000
vt 0.000000 1.000000
vt 0.000000 0.000000
vt 1.000000 0.000000
vt 0.000000 1.000000
vt 0.000000 0.000000
vt 1.000000 0.000000
vt 0.000000 1.000000
vt 0.000000 0.000000
vt 1.000000 0.000000
vt 0.000000 1.000000
vt 0.000000 0.000000
vt 1.000000 0.000000
vt 0.000000 1.000000
vt 0.000000 0.000000
vt 1.000000 1.000000
vt 0.000000 1.000000
vt 0.000000 0.000000
vt 1.000000 0.000000
vt 0.000000 1.000000
vt 0.000000 0.000000
vt 1.000000 0.000000
vt 0.000000 1.000000
vt 0.000000 0.000000
vt 1.000000 0.000000
vt 0.000000 1.000000
vt 0.000000 0.000000
vt 1.000000 0.000000
vt 0.000000 1.000000
vt 0.000000 0.000000
vt 1.000000 1.000000
vt 0.000000 1.000000
vt 0.000000 0.000000
vt 1.000000 0.000000
vt 0.000000 1.000000
vt 0.000000 0.000000
vt 1.000000 0.000000
vt 0.000000 1.000000
vt 0.000000 0.000000
vt 1.000000 0.000000
vt 0.000000 1.000000
vt 0.000000 0.000000
vt 1.000000 0.000000
vt 0.000000 1.000000
vt 0.000000 0.000000
vt 1.000000 0.000000
vt 0.000000 1.000000
vt 0.000000 0.000000
vt 1.000000 0.000000
vt 0.000000 1.000000
vt 0.000000 0.000000
vt 1.000000 0.000000
vt 0.000000 1.000000
vt 0.000000 0.000000
vt 1.000000 0.000000
vt 0.000000 1.000000
vt 0.000000 0.000000
vt 1.000000 0.000000
vt 0.000000 1.000000
vt 0.000000 0.000000
vt 1.000000 1.000000
vt 0.000000 1.000000
vt 0.000000 0.000000
vt 1.000000 1.000000
vt 1.000000 1.000000
vt 1.000000 1.000000
vt 1.000000 1.000000
vt 1.000000 1.000000
vt 1.000000 1.000000
vt 1.000000 1.000000
vt 1.000000 1.000000
vt 1.000000 1.000000
vt 1.000000 0.000000
vt 1.000000 1.000000
vt 1.000000 1.000000
vt 1.000000 1.000000
vt 1.000000 1.000000
vt 1.000000 0.000000
vt 1.000000 1.000000
vt 1.000000 1.000000
vt 1.000000 1.000000
vt 1.000000 1.000000
vt 1.000000 1.000000
vt 1.000000 1.000000
vt 1.000000 1.000000
vt 1.000000 1.000000
vt 1.000000 1.000000
vt 1.000000 1.000000
vt 1.000000 1.000000
vt 1.000000 1.000000
vt 1.000000 1.000000
vt 1.000000 0.000000
vt 1.000000 1.000000
vt 1.000000 1.000000
vt 1.000000 1.000000
vt 1.000000 1.000000
vt 1.000000 0.000000
vt 1.000000 1.000000
vt 1.000000 1.000000
vt 1.000000 1.000000
vt 1.000000 1.000000
vt 1.000000 1.000000
vt 1.000000 1.000000
vt 1.000000 1.000000
vt 1.000000 1.000000
vt 1.000000 1.000000
vt 1.000000 0.000000
vn 0.1473 0.0000 -0.9891
vn 0.9891 0.0000 0.1473
vn -0.1473 0.0000 0.9891
vn -0.9891 0.0000 -0.1473
vn 0.0000 -1.0000 -0.0000
vn 0.0000 1.0000 0.0000
vn -0.9211 0.0000 -0.3893
vn 0.3893 0.0000 -0.9211
vn 0.9211 0.0000 0.3893
vn -0.3893 0.0000 0.9211
vn -0.3936 0.0000 -0.9193
vn 0.9193 0.0000 -0.3936
vn 0.3936 0.0000 0.9193
vn -0.9193 0.0000 0.3936
vn -0.6605 0.0000 -0.7508
vn 0.7508 0.0000 -0.6605
vn 0.6605 0.0000 0.7508
vn -0.7508 0.0000 0.6605
vn 0.0448 0.0000 -0.9990
vn 0.9990 0.0000 0.0448
vn -0.0448 0.0000 0.9990
vn -0.9990 0.0000 -0.0448
vn -0.2029 0.0000 -0.9792
vn 0.9792 0.0000 -0.2029
vn 0.2029 0.0000 0.9792
vn -0.9792 0.0000 0.2029
vn -0.5345 0.0000 -0.8451
vn 0.8451 0.0000 -0.5345
vn 0.5345 0.0000 0.8451
vn -0.8451 0.0000 0.5345
vn -0.8452 0.0000 0.5345
vn -0.1097 0.0000 -0.9940
vn 0.9940 0.0000 -0.1097
vn 0.1097 0.0000 0.9940
vn -0.9940 0.0000 0.1097
usemtl crate
s off
f 2/1/1 3/2/1 1/3/1
f 4/4/2 7/5/2 3/6/2
f 8/7/3 5/8/3 7/9/3
f 6/10/4 1/11/4 5/12/4
f 7/13/5 1/11/5 3/6/5
f 4/4/6 6/14/6 8/15/6
f 10/16/7 11/17/7 9/18/7
f 12/19/8 15/20/8 11/21/8
f 16/22/9 13/23/9 15/24/9
f 14/25/10 9/26/10 13/27/10
f 11/21/5 13/28/5 9/26/5
f 12/19/6 14/29/6 16/30/6
f 18/31/11 19/32/11 17/33/11
f 20/34/12 23/35/12 19/36/12
f 24/37/13 21/38/13 23/39/13
f 22/40/14 17/41/14 21/42/14
f 19/36/5 21/43/5 17/41/5
f 20/34/6 22/44/6 24/45/6
f 26/46/15 27/47/15 25/48/15
f 28/49/16 31/50/16 27/51/16
f 32/52/17 29/53/17 31/54/17
f 30/55/18 25/56/18 29/57/18
f 31/58/5 25/56/5 27/51/5
f 32/59/6 26/60/6 30/61/6
f 34/62/19 35/63/19 33/64/19
f 36/65/20 39/66/20 35/67/20
f 40/68/21 37/69/21 39/70/21
f 38/71/22 33/72/22 37/73/22
f 39/74/5 33/72/5 35/67/5
f 36/65/6 38/75/6 40/76/6
f 42/77/23 43/78/23 41/79/23
f 44/80/24 47/81/24 43/82/24
f 48/83/25 45/84/25 47/85/25
f 46/86/26 41/87/26 45/88/26
f 43/82/5 45/89/5 41/87/5
f 44/80/6 46/90/6 48/91/6
f 50/92/27 51/93/27 49/94/27
f 52/95/28 55/96/28 51/97/28
f 56/98/29 53/99/29 55/100/29
f 54/101/30 49/102/30 53/103/30
f 51/97/5 53/104/5 49/102/5
f 52/95/6 54/105/6 56/106/6
f 58/107/27 59/108/27 57/109/27
f 60/110/28 63/111/28 59/112/28
f 64/113/29 61/114/29 63/115/29
f 62/116/31 57/117/31 61/118/31
f 63/119/5 57/117/5 59/112/5
f 60/110/6 62/120/6 64/121/6
f 66/122/32 67/123/32 65/124/32
f 68/125/33 71/126/33 67/127/33
f 72/128/34 69/129/34 71/130/34
f 70/131/35 65/132/35 69/133/35
f 67/127/5 69/134/5 65/132/5
f 68/125/6 70/135/6 72/136/6
f 2/1/1 4/137/1 3/2/1
f 4/4/2 8/138/2 7/5/2
f 8/7/3 6/139/3 5/8/3
f 6/10/4 2/140/4 1/11/4
f 7/13/5 5/141/5 1/11/5
f 4/4/6 2/140/6 6/14/6
f 10/16/7 12/142/7 11/17/7
f 12/19/8 16/143/8 15/20/8
f 16/22/9 14/144/9 13/23/9
f 14/25/10 10/145/10 9/26/10
f 11/21/5 15/146/5 13/28/5
f 12/19/6 10/145/6 14/29/6
f 18/31/11 20/147/11 19/32/11
f 20/34/12 24/148/12 23/35/12
f 24/37/13 22/149/13 21/38/13
f 22/40/14 18/150/14 17/41/14
f 19/36/5 23/151/5 21/43/5
f 20/34/6 18/150/6 22/44/6
f 26/46/15 28/152/15 27/47/15
f 28/49/16 32/153/16 31/50/16
f 32/52/17 30/154/17 29/53/17
f 30/55/18 26/60/18 25/56/18
f 31/58/5 29/155/5 25/56/5
f 32/59/6 28/49/6 26/60/6
f 34/62/19 36/156/19 35/63/19
f 36/65/20 40/157/20 39/66/20
f 40/68/21 38/158/21 37/69/21
f 38/71/22 34/159/22 33/72/22
f 39/74/5 37/160/5 33/72/5
f 36/65/6 34/159/6 38/75/6
f 42/77/23 44/161/23 43/78/23
f 44/80/24 48/162/24 47/81/24
f 48/83/25 46/163/25 45/84/25
f 46/86/26 42/164/26 41/87/26
f 43/82/5 47/165/5 45/89/5
f 44/80/6 42/164/6 46/90/6
f 50/92/27 52/166/27 51/93/27
f 52/95/28 56/167/28 55/96/28
f 56/98/29 54/168/29 53/99/29
f 54/101/30 50/169/30 49/102/30
f 51/97/5 55/170/5 53/104/5
f 52/95/6 50/169/6 54/105/6
f 58/107/27 60/171/27 59/108/27
f 60/110/28 64/172/28 63/111/28
f 64/113/29 62/173/29 61/114/29
f 62/116/31 58/174/31 57/117/31
f 63/119/5 61/175/5 57/117/5
f 60/110/6 58/174/6 62/120/6
f 66/122/32 68/176/32 67/123/32
f 68/125/33 72/177/33 71/126/33
f 72/128/34 70/178/34 69/129/34
f 70/131/35 66/179/35 65/132/35
f 67/127/5 71/180/5 69/134/5
f 68/125/6 66/179/6 70/135/6
