# Blender 3.5.0
# www.blender.org
mtllib stephens.mtl
o Cube
v -35.684597 1.396195 35.684597
v -35.684597 11.435637 35.684597
v -35.684597 1.396195 -35.684597
v -35.684597 11.435637 -35.684597
v 35.684597 1.396195 35.684597
v 35.684597 11.435637 35.684597
v 35.684597 1.396195 -35.684597
v 35.684597 11.435637 -35.684597
v -54.911957 10.889929 54.911957
v -54.911957 20.929373 54.911957
v -54.911957 10.889929 -54.911957
v -54.911957 20.929373 -54.911957
v 54.911957 10.889929 54.911957
v 54.911957 20.929373 54.911957
v 54.911957 10.889929 -54.911957
v 54.911957 20.929373 -54.911957
v -76.781258 19.234655 76.781258
v -76.781258 29.274097 76.781258
v -76.781258 19.234655 -76.781258
v -76.781258 29.274097 -76.781258
v 76.781258 19.234655 76.781258
v 76.781258 29.274097 76.781258
v 76.781258 19.234655 -76.781258
v 76.781258 29.274097 -76.781258
v -99.142921 41.038784 99.142921
v -99.142921 51.078228 99.142921
v -99.142921 41.038784 -99.142921
v -99.142921 51.078228 -99.142921
v 99.142921 41.038784 99.142921
v 99.142921 51.078228 99.142921
v 99.142921 41.038784 -99.142921
v 99.142921 51.078228 -99.142921
vn 1.0000 -0.0000 -0.0000
vn -0.0000 -0.0000 1.0000
vn -1.0000 -0.0000 -0.0000
vn -0.0000 -0.0000 -1.0000
vt 2.289353 0.032160
vt -1.289353 0.032161
vt 2.289353 0.967839
vt -1.289353 0.967840
vt -1.289353 0.032161
vt 2.289353 0.032160
vt -1.289353 0.967840
vt 2.289353 0.967839
vt -1.289353 0.032161
vt 2.289353 0.032160
vt -1.289353 0.967840
vt 2.289353 0.967839
vt -1.289353 0.032161
vt 2.289353 0.032160
vt -1.289353 0.967840
vt 2.289353 0.967839
vt 3.253482 0.032160
vt -2.253482 0.032161
vt 3.253482 0.967839
vt -2.253481 0.967840
vt -2.253482 0.032161
vt 3.253482 0.032160
vt -2.253481 0.967840
vt 3.253482 0.967839
vt -2.253482 0.032161
vt 3.253482 0.032160
vt -2.253481 0.967840
vt 3.253482 0.967839
vt -2.253482 0.032161
vt 3.253482 0.032160
vt -2.253481 0.967840
vt 3.253482 0.967839
vt 4.350087 0.032160
vt -3.350087 0.032161
vt 4.350087 0.967839
vt -3.350086 0.967840
vt -3.350087 0.032161
vt 4.350087 0.032160
vt -3.350086 0.967840
vt 4.350087 0.967839
vt -3.350087 0.032161
vt 4.350087 0.032160
vt -3.350086 0.967840
vt 4.350087 0.967839
vt -3.350087 0.032161
vt 4.350087 0.032160
vt -3.350086 0.967840
vt 4.350087 0.967839
vt 5.471381 0.032160
vt -4.471381 0.032161
vt 5.471381 0.967839
vt -4.471380 0.967840
vt -4.471381 0.032161
vt 5.471381 0.032160
vt -4.471380 0.967840
vt 5.471381 0.967839
vt -4.471381 0.032161
vt 5.471381 0.032160
vt -4.471380 0.967840
vt 5.471381 0.967839
vt -4.471381 0.032161
vt 5.471381 0.032160
vt -4.471380 0.967840
vt 5.471381 0.967839
s 0
usemtl Material.006
f 1/1/1 3/5/1 4/7/1 2/3/1
f 3/6/2 7/13/2 8/15/2 4/8/2
f 7/14/3 5/9/3 6/11/3 8/16/3
f 5/10/4 1/2/4 2/4/4 6/12/4
f 9/17/1 11/21/1 12/23/1 10/19/1
f 11/22/2 15/29/2 16/31/2 12/24/2
f 15/30/3 13/25/3 14/27/3 16/32/3
f 13/26/4 9/18/4 10/20/4 14/28/4
f 17/33/1 19/37/1 20/39/1 18/35/1
f 19/38/2 23/45/2 24/47/2 20/40/2
f 23/46/3 21/41/3 22/43/3 24/48/3
f 21/42/4 17/34/4 18/36/4 22/44/4
f 25/49/1 27/53/1 28/55/1 26/51/1
f 27/54/2 31/61/2 32/63/2 28/56/2
f 31/62/3 29/57/3 30/59/3 32/64/3
f 29/58/4 25/50/4 26/52/4 30/60/4
