# Blender 3.5.1
# www.blender.org
mtllib b3.mtl
o B3
v 0.000000 3.800000 8.400002
v 0.000000 6.200000 8.400002
v 0.000000 3.800000 7.999999
v 0.000000 6.200000 7.999999
v 2.000000 3.800000 8.400002
v 2.000000 6.200000 8.400002
v 2.000000 3.800000 7.999999
v 2.000000 6.200000 7.999999
vn -1.0000 -0.0000 -0.0000
vn -0.0000 -0.0000 -1.0000
vn 1.0000 -0.0000 -0.0000
vn -0.0000 -0.0000 1.0000
vn -0.0000 -1.0000 -0.0000
vn -0.0000 1.0000 -0.0000
vt 0.789964 0.570620
vt 0.789964 0.819086
vt 0.727848 0.756969
vt 0.852081 0.570620
vt 0.852081 0.819086
vt 0.914197 0.756969
vt 0.789964 0.632737
vt 0.727848 0.694853
vt 0.852081 0.632737
vt 0.914197 0.694853
vt 0.789964 0.756969
vt 0.852081 0.756969
vt 0.789964 0.694853
vt 0.852081 0.694853
s 0
usemtl Teleport
f 1/1/1 2/4/1 4/9/1 3/7/1
f 3/7/2 4/9/2 8/14/2 7/13/2
f 7/13/3 8/14/3 6/12/3 5/11/3
f 5/11/4 6/12/4 2/5/4 1/2/4
f 3/8/5 7/13/5 5/11/5 1/3/5
f 8/14/6 4/10/6 2/6/6 6/12/6
