# Blender 3.5.1
# www.blender.org
mtllib Door4.mtl
o Door4
v 0.900000 0.000000 22.000000
v 0.900000 2.000000 22.000000
v 1.100000 0.000000 22.000000
v 1.100000 2.000000 22.000000
v 0.900000 0.000000 24.000000
v 0.900000 2.000000 24.000000
v 1.100000 0.000000 24.000000
v 1.100000 2.000000 24.000000
vn -0.0000 -0.0000 -1.0000
vn 1.0000 -0.0000 -0.0000
vn -0.0000 -0.0000 1.0000
vn -1.0000 -0.0000 -0.0000
vn -0.0000 -1.0000 -0.0000
vn -0.0000 1.0000 -0.0000
vt 0.015625 0.000000
vt 0.000000 0.000000
vt 0.015625 1.000000
vt 0.000000 1.000000
vt 0.000000 0.000000
vt 0.000000 0.015625
vt 0.000000 1.000000
vt 0.000000 0.984375
vt 1.000000 0.000000
vt 1.000000 1.000000
vt 1.000000 0.000000
vt 0.984375 0.000000
vt 1.000000 0.015625
vt 1.000000 1.000000
vt 0.984375 1.000000
vt 1.000000 0.984375
s 0
usemtl Material.001
f 1/1/1 2/3/1 4/7/1 3/5/1
f 3/5/2 4/7/2 8/14/2 7/11/2
f 7/12/3 8/15/3 6/10/3 5/9/3
f 5/9/4 6/10/4 2/4/4 1/2/4
f 3/6/5 7/13/5 5/9/5 1/2/5
f 8/16/6 4/8/6 2/4/6 6/10/6
