# Blender 3.5.0
# www.blender.org
o Circle.001
v -3.082459 5.974773 -9.797082
v 0.077602 5.974773 -10.297585
v -5.933191 5.974773 -8.344561
v -8.195545 5.974773 -6.082206
v -9.648067 5.974773 -3.231474
v -10.148570 5.974773 -0.071413
v -9.648067 5.974773 3.088649
v -8.195545 5.974773 5.939380
v -5.933191 5.974773 8.201735
v -3.082459 5.974773 9.654256
v 0.077602 5.974773 10.154759
v 3.237663 5.974773 9.654256
v 6.088395 5.974773 8.201735
v 8.350750 5.974773 5.939380
v 9.803271 5.974773 3.088649
v 10.303775 5.974773 -0.071413
v 9.803271 5.974773 -3.231474
v 8.350750 5.974773 -6.082206
v 6.088395 5.974773 -8.344561
v 3.237663 5.974773 -9.797082
v -1.502429 5.974773 -10.047334
v -4.507825 5.974773 -9.070821
v -7.064368 5.974773 -7.213383
v -8.921805 5.974773 -4.656840
v -9.898318 5.974773 -1.651443
v -9.898318 5.974773 1.508618
v -8.921805 5.974773 4.514014
v -7.064368 5.974773 7.070557
v -4.507825 5.974773 8.927995
v -1.502429 5.974773 9.904508
v 1.657633 5.974773 9.904508
v 4.663029 5.974773 8.927995
v 7.219572 5.974773 7.070557
v 9.077010 5.974773 4.514014
v 10.053523 5.974773 1.508618
v 10.053523 5.974773 -1.651443
v 9.077010 5.974773 -4.656840
v 7.219572 5.974773 -7.213383
v 4.663029 5.974773 -9.070821
v 1.657633 5.974773 -10.047334
v -3.082459 14.874260 -9.797082
v 0.077602 14.874260 -10.297585
v -5.933191 14.874260 -8.344561
v -8.195545 14.874260 -6.082206
v -9.648067 14.874260 -3.231474
v -10.148570 14.874260 -0.071413
v -9.648067 14.874260 3.088649
v -8.195545 14.874260 5.939380
v -5.933191 14.874260 8.201735
v -3.082459 14.874260 9.654256
v 0.077602 14.874260 10.154759
v 3.237663 14.874260 9.654256
v 6.088395 14.874260 8.201735
v 8.350750 14.874260 5.939380
v 9.803271 14.874260 3.088649
v 10.303775 14.874260 -0.071413
v 9.803271 14.874260 -3.231474
v 8.350750 14.874260 -6.082206
v 6.088395 14.874260 -8.344561
v 3.237663 14.874260 -9.797082
v -1.502429 14.874260 -10.047334
v -4.507825 14.874260 -9.070821
v -7.064368 14.874260 -7.213383
v -8.921805 14.874260 -4.656840
v -9.898318 14.874260 -1.651443
v -9.898318 14.874260 1.508618
v -8.921805 14.874260 4.514014
v -7.064368 14.874260 7.070557
v -4.507825 14.874260 8.927995
v -1.502429 14.874260 9.904508
v 1.657633 14.874260 9.904508
v 4.663029 14.874260 8.927995
v 7.219572 14.874260 7.070557
v 9.077010 14.874260 4.514014
v 10.053523 14.874260 1.508618
v 10.053523 14.874260 -1.651443
v 9.077010 14.874260 -4.656840
v 7.219572 14.874260 -7.213383
v 4.663029 14.874260 -9.070821
v 1.657633 14.874260 -10.047334
vn -0.8910 -0.0000 -0.4540
vn 0.1564 -0.0000 0.9877
vn 0.7071 -0.0000 -0.7071
vn -0.9877 -0.0000 -0.1564
vn 0.4540 -0.0000 0.8910
vn 0.4540 -0.0000 -0.8910
vn -0.9877 -0.0000 0.1564
vn 0.7071 -0.0000 0.7071
vn 0.1564 -0.0000 -0.9877
vn -0.8910 -0.0000 0.4540
vn 0.8910 -0.0000 0.4540
vn -0.1564 -0.0000 -0.9877
vn -0.7071 -0.0000 0.7071
vn 0.9877 -0.0000 0.1564
vn -0.4540 -0.0000 -0.8910
vn -0.4540 -0.0000 0.8910
vn 0.9877 -0.0000 -0.1564
vn -0.7071 -0.0000 -0.7071
vn -0.1564 -0.0000 0.9877
vn 0.8910 -0.0000 -0.4540
vn -0.0000 1.0000 -0.0000
vt 0.000000 0.000000
vt 0.000000 0.000000
vt 0.000000 0.000000
vt 0.000000 0.000000
vt 0.000000 0.000000
vt 0.000000 0.000000
vt 0.000000 0.000000
vt 0.000000 0.000000
vt 0.000000 0.000000
vt 0.000000 0.000000
vt 0.000000 0.000000
vt 0.000000 0.000000
vt 0.000000 0.000000
vt 0.000000 0.000000
vt 0.000000 0.000000
vt 0.000000 0.000000
vt 0.000000 0.000000
vt 0.000000 0.000000
vt 0.000000 0.000000
vt 0.000000 0.000000
vt 0.000000 0.000000
vt 0.000000 0.000000
vt 0.000000 0.000000
vt 0.000000 0.000000
vt 0.000000 0.000000
vt 0.000000 0.000000
vt 0.000000 0.000000
vt 0.000000 0.000000
vt 0.000000 0.000000
vt 0.000000 0.000000
vt 0.000000 0.000000
vt 0.000000 0.000000
vt 0.000000 0.000000
vt 0.000000 0.000000
vt 0.000000 0.000000
vt 0.000000 0.000000
vt 0.000000 0.000000
vt 0.000000 0.000000
vt 0.000000 0.000000
vt 0.000000 0.000000
vt 0.000000 0.000000
vt 0.000000 0.000000
vt 0.000000 0.000000
vt 0.000000 0.000000
vt 0.000000 0.000000
vt 0.000000 0.000000
vt 0.000000 0.000000
vt 0.000000 0.000000
vt 0.000000 0.000000
vt 0.000000 0.000000
vt 0.000000 0.000000
vt 0.000000 0.000000
vt 0.000000 0.000000
vt 0.000000 0.000000
vt 0.000000 0.000000
vt 0.000000 0.000000
vt 0.000000 0.000000
vt 0.000000 0.000000
vt 0.000000 0.000000
vt 0.000000 0.000000
vt 0.000000 0.000000
vt 0.000000 0.000000
vt 0.000000 0.000000
vt 0.000000 0.000000
vt 0.000000 0.000000
vt 0.000000 0.000000
vt 0.000000 0.000000
vt 0.000000 0.000000
vt 0.000000 0.000000
vt 0.000000 0.000000
vt 0.000000 0.000000
vt 0.000000 0.000000
vt 0.000000 0.000000
vt 0.000000 0.000000
vt 0.000000 0.000000
vt 0.000000 0.000000
vt 0.000000 0.000000
vt 0.000000 0.000000
vt 0.000000 0.000000
vt 0.000000 0.000000
s 0
f 24/24/1 5/5/1 45/45/1 64/64/1
f 11/11/2 31/31/2 71/71/2 51/51/2
f 38/38/3 19/19/3 59/59/3 78/78/3
f 25/25/4 6/6/4 46/46/4 65/65/4
f 12/12/5 32/32/5 72/72/5 52/52/5
f 39/39/6 20/20/6 60/60/6 79/79/6
f 26/26/7 7/7/7 47/47/7 66/66/7
f 13/13/8 33/33/8 73/73/8 53/53/8
f 40/40/9 2/2/9 42/42/9 80/80/9
f 27/27/10 8/8/10 48/48/10 67/67/10
f 14/14/11 34/34/11 74/74/11 54/54/11
f 2/2/12 21/21/12 61/61/12 42/42/12
f 28/28/13 9/9/13 49/49/13 68/68/13
f 15/15/14 35/35/14 75/75/14 55/55/14
f 1/1/15 22/22/15 62/62/15 41/41/15
f 29/29/16 10/10/16 50/50/16 69/69/16
f 16/16/17 36/36/17 76/76/17 56/56/17
f 3/3/18 23/23/18 63/63/18 43/43/18
f 30/30/19 11/11/19 51/51/19 70/70/19
f 17/17/20 37/37/20 77/77/20 57/57/20
f 4/4/1 24/24/1 64/64/1 44/44/1
f 31/31/2 12/12/2 52/52/2 71/71/2
f 18/18/3 38/38/3 78/78/3 58/58/3
f 5/5/4 25/25/4 65/65/4 45/45/4
f 32/32/5 13/13/5 53/53/5 72/72/5
f 19/19/6 39/39/6 79/79/6 59/59/6
f 6/6/7 26/26/7 66/66/7 46/46/7
f 33/33/8 14/14/8 54/54/8 73/73/8
f 20/20/9 40/40/9 80/80/9 60/60/9
f 7/7/10 27/27/10 67/67/10 47/47/10
f 34/34/11 15/15/11 55/55/11 74/74/11
f 21/21/12 1/1/12 41/41/12 61/61/12
f 8/8/13 28/28/13 68/68/13 48/48/13
f 35/35/14 16/16/14 56/56/14 75/75/14
f 22/22/15 3/3/15 43/43/15 62/62/15
f 9/9/16 29/29/16 69/69/16 49/49/16
f 36/36/17 17/17/17 57/57/17 76/76/17
f 23/23/18 4/4/18 44/44/18 63/63/18
f 10/10/19 30/30/19 70/70/19 50/50/19
f 37/37/20 18/18/20 58/58/20 77/77/20
f 61/61/21 41/41/21 62/62/21 43/43/21 63/63/21 44/44/21 64/64/21 45/45/21 65/65/21 46/46/21 66/66/21 47/47/21 67/67/21 48/48/21 68/68/21 49/49/21 69/69/21 50/50/21 70/70/21 51/51/21 71/71/21 52/52/21 72/72/21 53/53/21 73/73/21 54/54/21 74/74/21 55/55/21 75/75/21 56/56/21 76/76/21 57/57/21 77/77/21 58/58/21 78/78/21 59/59/21 79/79/21 60/60/21 80/80/21 42/42/21
o Fence.001
v -47.770168 3.325530 47.776325
v 47.925354 3.325531 -47.919163
v 47.925350 3.325530 47.776344
v -47.770130 3.325531 -47.919186
v -47.770168 37.057629 47.776321
v 47.925354 37.057629 -47.919163
v -47.770130 37.057629 -47.919186
v 47.925343 37.057629 47.776344
v 1.227933 5.085151 47.776337
v 1.227935 3.321039 47.776333
v -2.337111 5.085151 49.171154
v -2.337110 3.321039 49.171150
vn 1.0000 -0.0000 -0.0000
vn -1.0000 -0.0000 -0.0000
vn -0.0000 -0.0000 1.0000
vn -0.0000 -1.0000 -0.0000
vn -0.0000 -0.0000 -1.0000
vn -0.3644 -0.0000 -0.9313
vt -20.349365 -0.002393
vt 21.349360 -0.002393
vt -20.349365 -0.002393
vt 21.349360 -0.002393
vt 21.349360 -0.002393
vt -20.349365 -0.002393
vt 21.349360 -0.002393
vt -20.349365 -0.002393
vt -20.349365 1.007785
vt 21.349360 1.007784
vt 21.349360 1.007784
vt -20.349365 1.007784
vt 21.349360 1.007784
vt -20.349365 1.007784
vt 21.349360 1.007785
vt -20.349365 1.007784
vt -0.001258 1.007784
vt -0.001258 -0.002393
vt 1.639509 1.007784
vt 1.639509 -0.002393
s 0
f 81/81/22 84/87/22 87/93/22 85/89/22
f 82/83/23 83/85/23 88/95/23 86/92/23
f 84/88/24 82/84/24 86/91/24 87/94/24
f 85/90/25 87/94/25 86/92/25 88/96/25
f 83/86/26 81/82/26 85/90/26 88/96/26
f 90/98/27 92/100/27 91/99/27 89/97/27
