# Blender 3.5.0
# www.blender.org
mtllib bye.mtl
o bye
v -3.082459 15.006065 -9.797082
v 0.077602 15.006065 -10.297585
v -5.933191 15.006065 -8.344561
v -8.195545 15.006065 -6.082206
v -9.648067 15.006065 -3.231474
v -10.148570 15.006065 -0.071413
v -9.648067 15.006065 3.088649
v -8.195545 15.006065 5.939380
v -5.933191 15.006065 8.201735
v -3.082459 15.006065 9.654256
v 0.077602 15.006065 10.154759
v 3.237663 15.006065 9.654256
v 6.088395 15.006065 8.201735
v 8.350750 15.006065 5.939380
v 9.803271 15.006065 3.088649
v 10.303775 15.006065 -0.071413
v 9.803271 15.006065 -3.231474
v 8.350750 15.006065 -6.082206
v 6.088395 15.006065 -8.344561
v 3.237663 15.006065 -9.797082
v -1.502429 15.006065 -10.047334
v -4.507825 15.006065 -9.070821
v -7.064368 15.006065 -7.213383
v -8.921805 15.006065 -4.656840
v -9.898318 15.006065 -1.651443
v -9.898318 15.006065 1.508618
v -8.921805 15.006065 4.514014
v -7.064368 15.006065 7.070557
v -4.507825 15.006065 8.927995
v -1.502429 15.006065 9.904508
v 1.657633 15.006065 9.904508
v 4.663029 15.006065 8.927995
v 7.219572 15.006065 7.070557
v 9.077010 15.006065 4.514014
v 10.053523 15.006065 1.508618
v 10.053523 15.006065 -1.651443
v 9.077010 15.006065 -4.656840
v 7.219572 15.006065 -7.213383
v 4.663029 15.006065 -9.070821
v 1.657633 15.006065 -10.047334
vn -0.0000 1.0000 -0.0000
vt 0.000000 0.000000
vt 0.000000 0.000000
vt 0.000000 0.000000
vt 0.000000 0.000000
vt 0.000000 0.000000
vt 0.000000 0.000000
vt 0.000000 0.000000
vt 0.000000 0.000000
vt 0.000000 0.000000
vt 0.000000 0.000000
vt 0.000000 0.000000
vt 0.000000 0.000000
vt 0.000000 0.000000
vt 0.000000 0.000000
vt 0.000000 0.000000
vt 0.000000 0.000000
vt 0.000000 0.000000
vt 0.000000 0.000000
vt 0.000000 0.000000
vt 0.000000 0.000000
vt 0.000000 0.000000
vt 0.000000 0.000000
vt 0.000000 0.000000
vt 0.000000 0.000000
vt 0.000000 0.000000
vt 0.000000 0.000000
vt 0.000000 0.000000
vt 0.000000 0.000000
vt 0.000000 0.000000
vt 0.000000 0.000000
vt 0.000000 0.000000
vt 0.000000 0.000000
vt 0.000000 0.000000
vt 0.000000 0.000000
vt 0.000000 0.000000
vt 0.000000 0.000000
vt 0.000000 0.000000
vt 0.000000 0.000000
vt 0.000000 0.000000
vt 0.000000 0.000000
s 0
usemtl blank
f 21/21/1 1/1/1 22/22/1 3/3/1 23/23/1 4/4/1 24/24/1 5/5/1 25/25/1 6/6/1 26/26/1 7/7/1 27/27/1 8/8/1 28/28/1 9/9/1 29/29/1 10/10/1 30/30/1 11/11/1 31/31/1 12/12/1 32/32/1 13/13/1 33/33/1 14/14/1 34/34/1 15/15/1 35/35/1 16/16/1 36/36/1 17/17/1 37/37/1 18/18/1 38/38/1 19/19/1 39/39/1 20/20/1 40/40/1 2/2/1
