# Blender 3.5.1
# www.blender.org
mtllib collision.mtl
o Cube.001
v -50.082417 -0.749768 36.371708
v -50.082417 57.750252 36.371708
v -50.082417 -0.749768 16.871700
v -50.082417 57.750252 16.871700
v -49.632412 -0.749768 36.371708
v -49.632412 57.750252 36.371708
v -49.632412 -0.749768 16.871700
v -49.632412 57.750252 16.871700
v -50.082417 -0.749768 37.121708
v -50.082417 57.750252 37.121708
v -49.632412 57.750252 37.121708
v -49.632412 -0.749768 37.121708
v 35.867611 57.750252 36.371708
v 35.867611 -0.749768 36.371708
v 35.867611 57.750252 37.121708
v 35.867611 -0.749768 37.121708
v 36.617611 57.750252 36.371708
v 36.617611 -0.749768 36.371708
v 36.617611 57.750252 37.121708
v 36.617611 -0.749768 37.121708
v 35.867611 57.750252 -34.128315
v 35.867611 -0.749768 -34.128315
v 36.617611 57.750252 -34.128315
v 36.617611 -0.749768 -34.128315
v 35.867611 57.750252 -35.628315
v 35.867611 -0.749768 -35.628315
v 36.617611 57.750252 -35.628315
v 36.617611 -0.749768 -35.628315
v -49.632412 57.750252 -34.128315
v -49.632412 -0.749768 -34.128315
v -49.632412 57.750252 -35.628315
v -49.632412 -0.749768 -35.628315
v -51.132412 57.750252 -34.128315
v -51.132412 -0.749768 -34.128315
v -51.132412 57.750252 -35.628315
v -51.132412 -0.749768 -35.628315
v -49.632412 57.750252 17.621700
v -49.632412 -0.749768 17.621700
v -51.132412 57.750252 17.621700
v -51.132412 -0.749768 17.621700
vn -1.0000 -0.0000 -0.0000
vn -0.0000 -0.0000 -1.0000
vn 1.0000 -0.0000 -0.0000
vn -0.0000 -1.0000 -0.0000
vn -0.0000 1.0000 -0.0000
vn -0.0000 -0.0000 1.0000
vt 0.375000 0.000000
vt 0.125000 0.750000
vt 0.625000 0.000000
vt 0.875000 0.750000
vt 0.375000 0.250000
vt 0.125000 0.500000
vt 0.625000 0.250000
vt 0.875000 0.500000
vt 0.375000 0.750000
vt 0.625000 0.750000
vt 0.375000 0.500000
vt 0.625000 0.500000
vt 0.375000 0.000000
vt 0.375000 1.000000
vt 0.125000 0.750000
vt 0.625000 0.000000
vt 0.625000 1.000000
vt 0.875000 0.750000
vt 0.625000 0.750000
vt 0.375000 0.750000
vt 0.625000 0.750000
vt 0.375000 0.750000
vt 0.625000 0.750000
vt 0.375000 0.750000
vt 0.625000 0.750000
vt 0.375000 0.750000
vt 0.625000 0.750000
vt 0.375000 0.750000
vt 0.625000 0.750000
vt 0.375000 0.750000
vt 0.625000 0.750000
vt 0.375000 0.750000
vt 0.625000 0.750000
vt 0.375000 0.750000
vt 0.625000 0.750000
vt 0.375000 0.750000
vt 0.625000 0.750000
vt 0.375000 0.750000
vt 0.625000 0.750000
vt 0.375000 0.750000
vt 0.625000 0.750000
vt 0.375000 0.750000
vt 0.625000 0.750000
vt 0.375000 0.750000
vt 0.625000 0.750000
vt 0.375000 0.750000
vt 0.625000 0.750000
vt 0.375000 0.750000
s 0
f 1/1/1 2/3/1 4/7/1 3/5/1
f 3/5/2 4/7/2 8/12/2 7/11/2
f 7/11/3 8/12/3 6/10/3 5/9/3
f 2/3/1 1/1/1 9/13/1 10/16/1
f 3/6/4 7/11/4 5/9/4 1/2/4
f 8/12/5 4/8/5 2/4/5 6/10/5
f 12/20/6 11/19/6 10/17/6 9/14/6
f 1/2/4 5/9/4 12/20/4 9/15/4
f 6/10/5 2/4/5 10/18/5 11/19/5
f 12/20/4 5/9/4 14/22/4 16/24/4
f 13/21/5 15/23/5 19/27/5 17/25/5
f 6/10/5 11/19/5 15/23/5 13/21/5
f 11/19/6 12/20/6 16/24/6 15/23/6
f 5/9/2 6/10/2 13/21/2 14/22/2
f 18/26/3 17/25/3 19/27/3 20/28/3
f 15/23/6 16/24/6 20/28/6 19/27/6
f 16/24/4 14/22/4 18/26/4 20/28/4
f 17/25/3 18/26/3 24/32/3 23/31/3
f 21/29/5 23/31/5 27/35/5 25/33/5
f 18/26/4 14/22/4 22/30/4 24/32/4
f 13/21/5 17/25/5 23/31/5 21/29/5
f 14/22/1 13/21/1 21/29/1 22/30/1
f 26/34/2 25/33/2 27/35/2 28/36/2
f 21/29/5 25/33/5 31/39/5 29/37/5
f 24/32/4 22/30/4 26/34/4 28/36/4
f 23/31/3 24/32/3 28/36/3 27/35/3
f 29/37/5 31/39/5 35/43/5 33/41/5
f 22/30/6 21/29/6 29/37/6 30/38/6
f 26/34/4 22/30/4 30/38/4 32/40/4
f 25/33/2 26/34/2 32/40/2 31/39/2
f 34/42/1 33/41/1 35/43/1 36/44/1
f 33/41/1 34/42/1 40/48/1 39/47/1
f 32/40/4 30/38/4 34/42/4 36/44/4
f 31/39/2 32/40/2 36/44/2 35/43/2
f 38/46/6 37/45/6 39/47/6 40/48/6
f 29/37/5 33/41/5 39/47/5 37/45/5
f 30/38/3 29/37/3 37/45/3 38/46/3
f 34/42/4 30/38/4 38/46/4 40/48/4
