# Blender v2.79 (sub 0) OBJ File: 'edited.blend'
# www.blender.org
mtllib ladder.mtl
o Ladder_Cube.003
v -3.918419 1.130264 17.296864
v -3.918419 4.422098 17.371136
v -3.918419 1.130264 17.073698
v -3.918419 4.601610 17.147970
v -3.365327 1.130264 17.296864
v -3.365327 4.422098 17.371136
v -3.365327 1.130264 17.073698
v -3.365327 4.601610 17.147970
v -3.918419 4.747095 17.505121
v -3.918419 4.747095 17.281956
v -3.365327 4.747095 17.281956
v -3.365327 4.747095 17.505121
v 7.891982 1.010058 1.869423
v 7.817710 4.301890 1.869423
v 8.115146 1.010058 1.869423
v 8.040874 4.481403 1.869423
v 7.891982 1.010058 2.422514
v 7.817710 4.301890 2.422514
v 8.115146 1.010058 2.422514
v 8.040874 4.481403 2.422514
v 7.683724 4.626887 1.869423
v 7.906888 4.626887 1.869423
v 7.906888 4.626887 2.422514
v 7.683724 4.626887 2.422514
vn -1.0000 0.0000 0.0000
vn 0.0000 0.0214 -0.9998
vn 1.0000 0.0000 0.0000
vn 0.0000 -0.0226 0.9997
vn 0.0000 -1.0000 0.0000
vn 0.0000 0.6774 -0.7356
vn 0.0000 1.0000 0.0000
vn 0.0000 -0.3811 0.9245
vn 0.0000 0.0000 -1.0000
vn 0.9998 0.0214 0.0000
vn 0.0000 0.0000 1.0000
vn -0.9997 -0.0226 0.0000
vn 0.7356 0.6774 0.0000
vn -0.9245 -0.3811 0.0000
usemtl None
s off
f 1//1 2//1 4//1 3//1
f 3//2 4//2 8//2 7//2
f 7//3 8//3 6//3 5//3
f 5//4 6//4 2//4 1//4
f 3//5 7//5 5//5 1//5
f 8//6 4//6 10//6 11//6
f 11//7 10//7 9//7 12//7
f 6//3 8//3 11//3 12//3
f 4//1 2//1 9//1 10//1
f 2//8 6//8 12//8 9//8
f 13//9 14//9 16//9 15//9
f 15//10 16//10 20//10 19//10
f 19//11 20//11 18//11 17//11
f 17//12 18//12 14//12 13//12
f 15//5 19//5 17//5 13//5
f 20//13 16//13 22//13 23//13
f 23//7 22//7 21//7 24//7
f 18//11 20//11 23//11 24//11
f 16//9 14//9 21//9 22//9
f 14//14 18//14 24//14 21//14
