# Blender v3.6.4 OBJ File: 'map.blend'
# www.blender.org
mtllib spinney.mtl
o spinney_Cylinder
v 24.233576 -4.046936 -10.731298
v 24.233576 4.011898 -10.731298
v 24.358595 -4.046936 -10.718986
v 24.358595 4.011898 -10.718986
v 24.478809 -4.046936 -10.682519
v 24.478809 4.011898 -10.682519
v 24.589600 -4.046936 -10.623300
v 24.589600 4.011898 -10.623300
v 24.686708 -4.046936 -10.543605
v 24.686708 4.011898 -10.543605
v 24.766405 -4.046936 -10.446496
v 24.766405 4.011898 -10.446496
v 24.825623 -4.046936 -10.335706
v 24.825623 4.011898 -10.335706
v 24.862089 -4.046936 -10.215490
v 24.862089 4.011898 -10.215490
v 24.874403 -4.046936 -10.090471
v 24.874403 4.011898 -10.090471
v 24.862089 -4.046936 -9.965452
v 24.862089 4.011898 -9.965452
v 24.825623 -4.046936 -9.845237
v 24.825623 4.011898 -9.845237
v 24.766405 -4.046936 -9.734447
v 24.766405 4.011898 -9.734447
v 24.686708 -4.046936 -9.637338
v 24.686708 4.011898 -9.637338
v 24.589600 -4.046936 -9.557643
v 24.589600 4.011898 -9.557643
v 24.478809 -4.046936 -9.498424
v 24.478809 4.011898 -9.498424
v 24.358595 -4.046936 -9.461957
v 24.358595 4.011898 -9.461957
v 24.233576 -4.046936 -9.449644
v 24.233576 4.011898 -9.449644
v 24.108557 -4.046936 -9.461957
v 24.108557 4.011898 -9.461957
v 23.988342 -4.046936 -9.498424
v 23.988342 4.011898 -9.498424
v 23.877552 -4.046936 -9.557643
v 23.877552 4.011898 -9.557643
v 23.780443 -4.046936 -9.637338
v 23.780443 4.011898 -9.637338
v 23.700747 -4.046936 -9.734447
v 23.700747 4.011898 -9.734447
v 23.641529 -4.046936 -9.845237
v 23.641529 4.011898 -9.845237
v 23.605062 -4.046936 -9.965452
v 23.605062 4.011898 -9.965452
v 23.592749 -4.046936 -10.090471
v 23.592749 4.011898 -10.090471
v 23.605062 -4.046936 -10.215490
v 23.605062 4.011898 -10.215490
v 23.641529 -4.046936 -10.335706
v 23.641529 4.011898 -10.335706
v 23.700747 -4.046936 -10.446496
v 23.700747 4.011898 -10.446496
v 23.780443 -4.046936 -10.543605
v 23.780443 4.011898 -10.543605
v 23.877552 -4.046936 -10.623300
v 23.877552 4.011898 -10.623300
v 23.988342 -4.046936 -10.682519
v 23.988342 4.011898 -10.682519
v 24.108557 -4.046936 -10.718986
v 24.108557 4.011898 -10.718986
v 24.428667 4.328104 -11.071257
v 24.233576 4.328104 -11.090471
v 24.616259 4.328104 -11.014351
v 24.789146 4.328104 -10.921941
v 24.940683 4.328104 -10.797578
v 25.065046 4.328104 -10.646042
v 25.157455 4.328104 -10.473155
v 25.214361 4.328104 -10.285562
v 25.233576 4.328104 -10.090471
v 25.214361 4.328104 -9.895381
v 25.157455 4.328104 -9.707788
v 25.065046 4.328104 -9.534901
v 24.940683 4.328104 -9.383365
v 24.789146 4.328104 -9.259002
v 24.616259 4.328104 -9.166592
v 24.428667 4.328104 -9.109686
v 24.233576 4.328104 -9.090471
v 24.038486 4.328104 -9.109686
v 23.850893 4.328104 -9.166592
v 23.678005 4.328104 -9.259002
v 23.526468 4.328104 -9.383365
v 23.402105 4.328104 -9.534901
v 23.309696 4.328104 -9.707788
v 23.252790 4.328104 -9.895381
v 23.233576 4.328104 -10.090471
v 23.252790 4.328104 -10.285562
v 23.309696 4.328104 -10.473155
v 23.402105 4.328104 -10.646042
v 23.526468 4.328104 -10.797578
v 23.678005 4.328104 -10.921941
v 23.850893 4.328104 -11.014351
v 24.038486 4.328104 -11.071257
v 24.739307 4.011899 -12.632958
v 24.233576 4.011899 -12.682769
v 25.225605 4.011899 -12.485442
v 25.673779 4.011899 -12.245888
v 26.066607 4.011899 -11.923502
v 26.388992 4.011899 -11.530674
v 26.628546 4.011899 -11.082500
v 26.776062 4.011899 -10.596204
v 26.825872 4.011899 -10.090471
v 26.776062 4.011899 -9.584739
v 26.628546 4.011899 -9.098442
v 26.388992 4.011899 -8.650269
v 26.066607 4.011899 -8.257441
v 25.673779 4.011899 -7.935055
v 25.225605 4.011899 -7.695500
v 24.739307 4.011899 -7.547984
v 24.233576 4.011899 -7.498174
v 23.727844 4.011899 -7.547984
v 23.241547 4.011899 -7.695500
v 22.793373 4.011899 -7.935055
v 22.400545 4.011899 -8.257441
v 22.078159 4.011899 -8.650269
v 21.838606 4.011899 -9.098442
v 21.691090 4.011899 -9.584739
v 21.641279 4.011899 -10.090471
v 21.691090 4.011899 -10.596204
v 21.838606 4.011899 -11.082500
v 22.078159 4.011899 -11.530674
v 22.400545 4.011899 -11.923502
v 22.793373 4.011899 -12.245888
v 23.241547 4.011899 -12.485442
v 23.727844 4.011899 -12.632958
v 24.739307 4.328104 -12.632958
v 24.233576 4.328104 -12.682769
v 25.225605 4.328104 -12.485441
v 25.673779 4.328104 -12.245888
v 26.066607 4.328104 -11.923502
v 26.388992 4.328104 -11.530674
v 26.628546 4.328104 -11.082500
v 26.776062 4.328104 -10.596204
v 26.825872 4.328104 -10.090471
v 26.776062 4.328104 -9.584739
v 26.628546 4.328104 -9.098442
v 26.388992 4.328104 -8.650269
v 26.066607 4.328104 -8.257441
v 25.673779 4.328104 -7.935055
v 25.225605 4.328104 -7.695501
v 24.739307 4.328104 -7.547984
v 24.233576 4.328104 -7.498174
v 23.727844 4.328104 -7.547984
v 23.241547 4.328104 -7.695500
v 22.793373 4.328104 -7.935055
v 22.400545 4.328104 -8.257441
v 22.078159 4.328104 -8.650269
v 21.838606 4.328104 -9.098442
v 21.691090 4.328104 -9.584739
v 21.641279 4.328104 -10.090471
v 21.691090 4.328104 -10.596204
v 21.838606 4.328104 -11.082500
v 22.078159 4.328104 -11.530674
v 22.400545 4.328104 -11.923502
v 22.793373 4.328104 -12.245888
v 23.241547 4.328104 -12.485442
v 23.727844 4.328104 -12.632958
vt 0.499763 4.275480
vt 0.562272 0.246064
vt 0.499763 0.246064
vt 0.561807 4.275480
vt 0.621915 0.246064
vt 0.561807 0.246064
vt 0.621476 4.275480
vt 0.676872 0.246064
vt 0.621476 0.246064
vt 0.676477 4.275480
vt 0.725032 0.246064
vt 0.676477 0.246064
vt 0.725032 4.275480
vt 0.676477 0.246064
vt 0.676872 4.275481
vt 0.621476 0.246064
vt 0.676872 0.246064
vt 0.621915 4.275480
vt 0.561807 0.246064
vt 0.621915 0.246064
vt 0.562272 4.275480
vt 0.499763 0.246064
vt 0.562272 0.246064
vt 0.500237 4.275480
vt 0.437727 0.246064
vt 0.500237 0.246064
vt 0.438193 4.275480
vt 0.378085 0.246064
vt 0.438193 0.246064
vt 0.378523 4.275480
vt 0.323128 0.246064
vt 0.378523 0.246064
vt 0.323522 4.275480
vt 0.274968 0.246064
vt 0.323522 0.246064
vt 0.725032 4.275480
vt 0.676477 0.246064
vt 0.725032 0.246064
vt 0.676872 4.275481
vt 0.621476 0.246064
vt 0.676872 0.246064
vt 0.621915 4.275480
vt 0.561807 0.246064
vt 0.621915 0.246064
vt 0.562272 4.275480
vt 0.499763 0.246064
vt 0.562272 0.246064
vt 0.500237 4.275480
vt 0.437727 0.246064
vt 0.500237 0.246064
vt 0.438193 4.275481
vt 0.378085 0.246064
vt 0.438193 0.246064
vt 0.378523 4.275480
vt 0.323128 0.246064
vt 0.378523 0.246064
vt 0.323522 4.275480
vt 0.274968 0.246064
vt 0.323522 0.246064
vt 0.274968 4.275480
vt 0.323522 0.246064
vt 0.323128 4.275481
vt 0.378523 0.246064
vt 0.323128 0.246064
vt 0.378085 4.275480
vt 0.438193 0.246064
vt 0.378085 0.246064
vt 0.437727 4.275480
vt 0.500237 0.246064
vt 0.437727 0.246064
vt 0.499763 4.275480
vt 0.562272 0.246064
vt 0.499763 0.246064
vt 0.561807 4.275480
vt 0.621915 0.246064
vt 0.561807 0.246064
vt 0.621476 4.275480
vt 0.676872 0.246064
vt 0.621476 0.246064
vt 0.676477 4.275480
vt 0.725032 0.246064
vt 0.676477 0.246064
vt 0.274968 4.275480
vt 0.323522 0.246064
vt 0.274968 0.246064
vt 0.323128 4.275481
vt 0.378523 0.246064
vt 0.323128 0.246064
vt 0.203976 0.377383
vt -0.771243 0.247134
vt 0.185743 0.437490
vt 0.378085 4.275480
vt 0.438193 0.246064
vt 0.378085 0.246064
vt 0.437727 4.275480
vt 0.500237 0.246064
vt 0.437727 0.246064
vt 0.308658 0.038060
vt 0.961940 0.308658
vt 0.691342 0.961940
vt 0.000000 0.500000
vt -0.771243 0.752866
vt -0.796149 0.500000
vt 0.622617 0.203976
vt 1.220102 -0.577708
vt 0.996015 -0.697485
vt -0.771243 0.247134
vt 0.009607 0.402455
vt 0.726567 0.726567
vt 1.577708 1.220102
vt 0.766414 0.678012
vt 0.377383 0.796024
vt 0.247134 1.771243
vt 0.437490 0.814257
vt 0.038060 0.308658
vt -0.697485 0.003985
vt -0.577708 -0.220102
vt -0.697485 0.003985
vt -0.577708 -0.220102
vt 0.084265 0.222215
vt 0.726567 0.273433
vt 0.678012 0.233586
vt -0.416516 -0.416516
vt 0.146447 0.146447
vt 0.678012 0.766414
vt 1.416516 1.416516
vt -0.220102 1.577708
vt 0.003985 1.697485
vt 0.222215 0.084265
vt -0.220102 -0.577708
vt 0.273433 0.273433
vt 0.233586 0.321988
vt 0.003985 -0.697485
vt 0.766414 0.321988
vt 1.416516 -0.416516
vt 0.402455 0.009607
vt 0.247134 -0.771243
vt 0.622617 0.796024
vt 1.220102 1.577708
vt 0.273433 0.726567
vt 0.321988 0.766414
vt 0.500000 0.000000
vt 0.500000 -0.796149
vt 0.321988 0.233586
vt -0.416516 -0.416516
vt 0.752866 -0.771243
vt 0.597545 0.009607
vt 0.796024 0.377383
vt 1.577708 -0.220102
vt 0.996015 -0.697485
vt 0.691342 0.038060
vt 0.562510 0.814257
vt 0.996015 1.697485
vt 0.233586 0.678012
vt -0.416516 1.416516
vt 1.220102 -0.577708
vt 0.777785 0.084265
vt 0.377383 0.203976
vt -0.220102 -0.577708
vt 1.416516 -0.416516
vt 0.853553 0.146447
vt 0.814257 0.437490
vt 1.697485 0.003985
vt 0.915735 0.222215
vt 1.577708 -0.220102
vt 1.220102 4.275481
vt 0.996015 4.433584
vt 1.220102 4.433584
vt -0.220102 4.275481
vt -0.416516 4.433584
vt -0.416516 4.275481
vt -0.416516 4.275481
vt -0.220102 4.433584
vt -0.220102 4.275481
vt -0.220102 4.275481
vt 0.003985 4.433584
vt 0.003985 4.275481
vt 0.752866 4.275481
vt 0.500000 4.433584
vt 0.500000 4.275481
vt 0.500000 4.275481
vt 0.247134 4.433584
vt 0.247134 4.275481
vt 0.752866 4.275481
vt 0.996015 4.433584
vt 0.996015 4.275481
vt 1.416516 4.433584
vt 1.416516 4.275481
vt 1.416516 4.275481
vt 1.220102 4.433584
vt 1.220102 4.275481
vt 0.003985 4.433584
vt 0.003985 4.275481
vt 0.247134 4.275481
vt 0.247134 4.433584
vt 0.247134 4.433584
vt 0.247134 4.275481
vt 0.003985 4.433584
vt 0.003985 4.275481
vt 1.220102 4.433584
vt 1.220102 4.275481
vt 1.220102 4.433584
vt 1.220102 4.275481
vt 0.996015 4.433584
vt 0.996015 4.275481
vt 0.247134 4.433584
vt 0.247134 4.275481
vt 0.752866 4.275481
vt 0.500000 4.433584
vt 0.752866 4.433584
vt 0.500000 4.275481
vt 0.003985 4.433584
vt 0.003985 4.275481
vt -0.220102 4.433584
vt -0.220102 4.275481
vt 1.416516 4.433584
vt 1.416516 4.275481
vt 0.996015 4.433584
vt 0.996015 4.275481
vt 0.752866 4.433584
vt 0.752866 4.275481
vt 0.500000 4.433584
vt 0.500000 4.275481
vt 0.996015 4.275481
vt -0.220102 4.433584
vt -0.416516 4.433584
vt -0.416516 4.275481
vt -0.220102 4.433584
vt 0.752866 4.433584
vt 0.500000 4.433584
vt 0.752866 4.433584
vt 0.038060 0.691342
vt 0.009607 0.597545
vt 0.500000 1.796149
vt 0.500000 0.820414
vt 0.796024 0.622617
vt 1.697485 0.996015
vt 0.084265 0.777785
vt -0.697485 0.996015
vt 0.597545 0.990393
vt 0.500000 1.796149
vt 0.500000 1.000000
vt 0.562510 0.185743
vt 0.752866 -0.771243
vt -0.416516 1.416516
vt -0.577708 1.220102
vt 0.752866 1.771243
vt 0.179586 0.500000
vt -0.796149 0.500000
vt 0.222215 0.915735
vt 0.146447 0.853553
vt 0.777785 0.915735
vt 0.996015 1.697485
vt 1.771243 0.752866
vt 0.814257 0.562510
vt 0.308658 0.961940
vt -0.220102 1.577708
vt 1.416516 1.416516
vt 1.220102 1.577708
vt 0.500000 -0.796149
vt 0.500000 0.179586
vt 0.402455 0.990393
vt 0.003985 1.697485
vt 0.915735 0.777785
vt 0.853553 0.853553
vt -0.771243 0.752866
vt 0.185743 0.562510
vt 0.247134 1.771243
vt 0.961940 0.691342
vt 1.577708 1.220102
vt 1.796149 0.500000
vt 0.820414 0.500000
vt 0.990393 0.597545
vt 1.697485 0.996015
vt 0.247134 -0.771243
vt 0.437490 0.185743
vt 1.000000 0.500000
vt 1.771243 0.752866
vt -0.697485 0.996015
vt 0.203976 0.622617
vt 1.771243 0.247134
vt 1.796149 0.500000
vt 1.771243 0.247134
vt 0.990393 0.402455
vt 0.003985 -0.697485
vt 0.752866 1.771243
vt 1.697485 0.003985
vt -0.577708 1.220102
vt 0.562272 4.275480
vt 0.621915 4.275481
vt 0.676872 4.275481
vt 0.676477 4.275481
vt 0.621477 4.275481
vt 0.561807 4.275481
vt 0.499763 4.275481
vt 0.437728 4.275480
vt 0.378085 4.275481
vt 0.323128 4.275481
vt 0.274968 4.275481
vt 0.676477 4.275481
vt 0.621477 4.275481
vt 0.561807 4.275481
vt 0.499763 4.275481
vt 0.437728 4.275480
vt 0.378085 4.275481
vt 0.323128 4.275481
vt 0.323523 4.275481
vt 0.378523 4.275481
vt 0.438193 4.275481
vt 0.500237 4.275480
vt 0.562272 4.275481
vt 0.621915 4.275481
vt 0.676872 4.275481
vt 0.725032 4.275481
vt 0.323523 4.275481
vt 0.378523 4.275481
vt 0.438193 4.275481
vt 0.500237 4.275481
vt 1.416516 4.433584
vt -0.416516 4.433584
vn 0.0980 0.0000 -0.9952
vn 0.2903 0.0000 -0.9569
vn 0.4714 0.0000 -0.8819
vn 0.6344 0.0000 -0.7730
vn 0.7730 0.0000 -0.6344
vn 0.8819 0.0000 -0.4714
vn 0.9569 0.0000 -0.2903
vn 0.9952 0.0000 -0.0980
vn 0.9952 0.0000 0.0980
vn 0.9569 0.0000 0.2903
vn 0.8819 0.0000 0.4714
vn 0.7730 0.0000 0.6344
vn 0.6344 0.0000 0.7730
vn 0.4714 0.0000 0.8819
vn 0.2903 0.0000 0.9569
vn 0.0980 0.0000 0.9952
vn -0.0980 0.0000 0.9952
vn -0.2903 0.0000 0.9569
vn -0.4714 0.0000 0.8819
vn -0.6344 0.0000 0.7730
vn -0.7730 0.0000 0.6344
vn -0.8819 0.0000 0.4714
vn -0.9569 0.0000 0.2903
vn -0.9952 0.0000 0.0980
vn -0.9952 0.0000 -0.0980
vn -0.9569 0.0000 -0.2903
vn -0.8819 0.0000 -0.4714
vn -0.7730 0.0000 -0.6344
vn -0.6344 0.0000 -0.7730
vn -0.4714 0.0000 -0.8819
vn -0.0000 -1.0000 0.0000
vn -0.2903 0.0000 -0.9569
vn -0.0980 0.0000 -0.9952
vn 0.0000 1.0000 0.0000
usemtl wallspin
s off
f 2/1/1 3/2/1 1/3/1
f 4/4/2 5/5/2 3/6/2
f 6/7/3 7/8/3 5/9/3
f 8/10/4 9/11/4 7/12/4
f 10/13/5 11/14/5 9/11/5
f 12/15/6 13/16/6 11/17/6
f 14/18/7 15/19/7 13/20/7
f 16/21/8 17/22/8 15/23/8
f 18/24/9 19/25/9 17/26/9
f 20/27/10 21/28/10 19/29/10
f 22/30/11 23/31/11 21/32/11
f 24/33/12 25/34/12 23/35/12
f 26/36/13 27/37/13 25/38/13
f 28/39/14 29/40/14 27/41/14
f 30/42/15 31/43/15 29/44/15
f 32/45/16 33/46/16 31/47/16
f 34/48/17 35/49/17 33/50/17
f 36/51/18 37/52/18 35/53/18
f 38/54/19 39/55/19 37/56/19
f 40/57/20 41/58/20 39/59/20
f 42/60/21 43/61/21 41/58/21
f 44/62/22 45/63/22 43/64/22
f 46/65/23 47/66/23 45/67/23
f 48/68/24 49/69/24 47/70/24
f 50/71/25 51/72/25 49/73/25
f 52/74/26 53/75/26 51/76/26
f 54/77/27 55/78/27 53/79/27
f 56/80/28 57/81/28 55/82/28
f 58/83/29 59/84/29 57/85/29
f 60/86/30 61/87/30 59/88/30
f 46/89/31 120/90/31 48/91/31
f 62/92/32 63/93/32 61/94/32
f 64/95/33 1/96/33 63/97/33
f 83/98/34 75/99/34 67/100/34
f 89/101/34 154/102/34 153/103/34
f 30/104/31 110/105/31 111/106/31
f 89/101/34 152/107/34 88/108/34
f 10/109/31 102/110/31 12/111/31
f 62/112/31 128/113/31 64/114/31
f 87/115/34 152/107/34 151/116/34
f 46/89/31 118/117/31 119/118/31
f 87/115/34 150/119/34 86/120/34
f 26/121/31 110/105/31 28/122/31
f 86/120/34 149/123/34 85/124/34
f 8/125/31 101/126/31 10/109/31
f 62/112/31 126/127/31 127/128/31
f 84/129/34 149/123/34 148/130/34
f 42/131/31 118/117/31 44/132/31
f 84/129/34 147/133/34 83/98/34
f 24/134/31 109/135/31 26/121/31
f 82/136/34 147/133/34 146/137/34
f 6/138/31 100/139/31 8/125/31
f 58/140/31 126/127/31 60/141/31
f 81/142/34 146/137/34 145/143/34
f 40/144/31 117/145/31 42/131/31
f 81/142/34 144/146/34 80/147/34
f 22/148/31 108/149/31 24/134/31
f 80/147/34 143/150/34 79/151/34
f 4/152/31 99/153/31 6/138/31
f 56/154/31 125/155/31 58/140/31
f 79/151/34 142/156/34 78/157/34
f 38/158/31 116/159/31 40/144/31
f 78/157/34 141/160/34 77/161/34
f 20/162/31 107/163/31 22/148/31
f 76/164/34 141/160/34 140/165/34
f 100/166/3 131/167/3 132/168/3
f 108/169/12 141/170/12 109/171/12
f 117/172/21 150/173/21 118/174/21
f 126/175/30 159/176/30 127/177/30
f 104/178/8 137/179/8 105/180/8
f 113/181/17 146/182/17 114/183/17
f 122/184/26 155/185/26 123/186/26
f 100/166/4 133/187/4 101/188/4
f 109/189/13 142/190/13 110/191/13
f 118/174/22 151/192/22 119/193/22
f 128/194/32 159/176/32 160/195/32
f 105/180/9 138/196/9 106/197/9
f 114/183/18 147/198/18 115/199/18
f 123/186/27 156/200/27 124/201/27
f 101/188/5 134/202/5 102/203/5
f 110/191/14 143/204/14 111/205/14
f 119/193/23 152/206/23 120/207/23
f 97/208/1 130/209/1 129/210/1
f 128/194/33 130/209/33 98/211/33
f 106/197/10 139/212/10 107/213/10
f 115/199/19 148/214/19 116/215/19
f 124/201/28 157/216/28 125/217/28
f 102/203/6 135/218/6 103/219/6
f 111/205/15 144/220/15 112/221/15
f 120/207/24 153/222/24 121/223/24
f 99/224/2 129/210/2 131/167/2
f 107/213/11 140/225/11 108/169/11
f 116/215/20 149/226/20 117/172/20
f 125/227/29 158/228/29 126/175/29
f 103/219/7 136/229/7 104/178/7
f 112/221/16 145/230/16 113/181/16
f 121/223/25 154/231/25 122/184/25
f 91/232/34 154/102/34 90/233/34
f 64/114/31 98/234/31 2/235/31
f 14/236/31 102/110/31 103/237/31
f 92/238/34 155/239/34 91/232/34
f 65/240/34 130/241/34 66/242/34
f 32/243/31 111/106/31 112/244/31
f 92/238/34 157/245/34 156/246/34
f 67/100/34 129/247/34 65/240/34
f 50/248/31 120/90/31 121/249/31
f 94/250/34 157/245/34 93/251/34
f 68/252/34 131/253/34 67/100/34
f 14/236/31 104/254/31 16/255/31
f 95/256/34 158/257/34 94/250/34
f 68/252/34 133/258/34 132/259/34
f 32/243/31 113/260/31 34/261/31
f 96/262/34 159/263/34 95/256/34
f 70/264/34 133/258/34 69/265/34
f 50/248/31 122/266/31 52/267/31
f 66/242/34 160/268/34 96/262/34
f 71/269/34 134/270/34 70/264/34
f 16/255/31 105/271/31 18/272/31
f 72/273/34 135/274/34 71/269/34
f 34/261/31 114/275/31 36/276/31
f 73/277/34 136/278/34 72/273/34
f 52/267/31 123/279/31 54/280/31
f 73/277/34 138/281/34 137/282/34
f 18/272/31 106/283/31 20/162/31
f 75/99/34 138/281/34 74/284/34
f 36/276/31 115/285/31 38/158/31
f 2/235/31 97/286/31 4/152/31
f 76/164/34 139/287/34 75/99/34
f 54/280/31 124/288/31 56/154/31
f 2/1/1 4/289/1 3/2/1
f 4/4/2 6/290/2 5/5/2
f 6/7/3 8/291/3 7/8/3
f 8/10/4 10/13/4 9/11/4
f 10/13/5 12/292/5 11/14/5
f 12/15/6 14/293/6 13/16/6
f 14/18/7 16/294/7 15/19/7
f 16/21/8 18/295/8 17/22/8
f 18/24/9 20/296/9 19/25/9
f 20/27/10 22/297/10 21/28/10
f 22/30/11 24/298/11 23/31/11
f 24/33/12 26/299/12 25/34/12
f 26/36/13 28/300/13 27/37/13
f 28/39/14 30/301/14 29/40/14
f 30/42/15 32/302/15 31/43/15
f 32/45/16 34/303/16 33/46/16
f 34/48/17 36/304/17 35/49/17
f 36/51/18 38/305/18 37/52/18
f 38/54/19 40/306/19 39/55/19
f 40/57/20 42/60/20 41/58/20
f 42/60/21 44/307/21 43/61/21
f 44/62/22 46/308/22 45/63/22
f 46/65/23 48/309/23 47/66/23
f 48/68/24 50/310/24 49/69/24
f 50/71/25 52/311/25 51/72/25
f 52/74/26 54/312/26 53/75/26
f 54/77/27 56/313/27 55/78/27
f 56/80/28 58/314/28 57/81/28
f 58/83/29 60/315/29 59/84/29
f 60/86/30 62/316/30 61/87/30
f 46/89/31 119/118/31 120/90/31
f 62/92/32 64/317/32 63/93/32
f 64/95/33 2/318/33 1/96/33
f 67/100/34 65/240/34 95/256/34
f 65/240/34 66/242/34 95/256/34
f 66/242/34 96/262/34 95/256/34
f 95/256/34 94/250/34 93/251/34
f 93/251/34 92/238/34 91/232/34
f 91/232/34 90/233/34 89/101/34
f 89/101/34 88/108/34 87/115/34
f 87/115/34 86/120/34 83/98/34
f 86/120/34 85/124/34 83/98/34
f 85/124/34 84/129/34 83/98/34
f 83/98/34 82/136/34 79/151/34
f 82/136/34 81/142/34 79/151/34
f 81/142/34 80/147/34 79/151/34
f 79/151/34 78/157/34 77/161/34
f 77/161/34 76/164/34 75/99/34
f 75/99/34 74/284/34 73/277/34
f 73/277/34 72/273/34 75/99/34
f 72/273/34 71/269/34 75/99/34
f 71/269/34 70/264/34 69/265/34
f 69/265/34 68/252/34 67/100/34
f 95/256/34 93/251/34 91/232/34
f 91/232/34 89/101/34 83/98/34
f 89/101/34 87/115/34 83/98/34
f 79/151/34 77/161/34 83/98/34
f 77/161/34 75/99/34 83/98/34
f 71/269/34 69/265/34 75/99/34
f 69/265/34 67/100/34 75/99/34
f 67/100/34 95/256/34 83/98/34
f 95/256/34 91/232/34 83/98/34
f 89/101/34 90/233/34 154/102/34
f 30/104/31 28/122/31 110/105/31
f 89/101/34 153/103/34 152/107/34
f 10/109/31 101/126/31 102/110/31
f 62/112/31 127/128/31 128/113/31
f 87/115/34 88/108/34 152/107/34
f 46/89/31 44/132/31 118/117/31
f 87/115/34 151/116/34 150/119/34
f 26/121/31 109/135/31 110/105/31
f 86/120/34 150/119/34 149/123/34
f 8/125/31 100/139/31 101/126/31
f 62/112/31 60/141/31 126/127/31
f 84/129/34 85/124/34 149/123/34
f 42/131/31 117/145/31 118/117/31
f 84/129/34 148/130/34 147/133/34
f 24/134/31 108/149/31 109/135/31
f 82/136/34 83/98/34 147/133/34
f 6/138/31 99/153/31 100/139/31
f 58/140/31 125/155/31 126/127/31
f 81/142/34 82/136/34 146/137/34
f 40/144/31 116/159/31 117/145/31
f 81/142/34 145/143/34 144/146/34
f 22/148/31 107/163/31 108/149/31
f 80/147/34 144/146/34 143/150/34
f 4/152/31 97/286/31 99/153/31
f 56/154/31 124/288/31 125/155/31
f 79/151/34 143/150/34 142/156/34
f 38/158/31 115/285/31 116/159/31
f 78/157/34 142/156/34 141/160/34
f 20/162/31 106/283/31 107/163/31
f 76/164/34 77/161/34 141/160/34
f 100/166/3 99/224/3 131/167/3
f 108/169/12 140/225/12 141/170/12
f 117/172/21 149/226/21 150/173/21
f 126/175/30 158/228/30 159/176/30
f 104/178/8 136/229/8 137/179/8
f 113/181/17 145/230/17 146/182/17
f 122/184/26 154/231/26 155/185/26
f 100/166/4 132/168/4 133/187/4
f 109/189/13 141/319/13 142/190/13
f 118/174/22 150/173/22 151/192/22
f 128/194/32 127/177/32 159/176/32
f 105/180/9 137/179/9 138/196/9
f 114/183/18 146/182/18 147/198/18
f 123/186/27 155/185/27 156/200/27
f 101/188/5 133/187/5 134/202/5
f 110/191/14 142/190/14 143/204/14
f 119/193/23 151/192/23 152/206/23
f 97/208/1 98/211/1 130/209/1
f 128/194/33 160/195/33 130/209/33
f 106/197/10 138/196/10 139/212/10
f 115/199/19 147/198/19 148/214/19
f 124/201/28 156/200/28 157/216/28
f 102/203/6 134/202/6 135/218/6
f 111/205/15 143/204/15 144/220/15
f 120/207/24 152/206/24 153/222/24
f 99/224/2 97/208/2 129/210/2
f 107/213/11 139/212/11 140/225/11
f 116/215/20 148/214/20 149/226/20
f 125/227/29 157/320/29 158/228/29
f 103/219/7 135/218/7 136/229/7
f 112/221/16 144/220/16 145/230/16
f 121/223/25 153/222/25 154/231/25
f 91/232/34 155/239/34 154/102/34
f 64/114/31 128/113/31 98/234/31
f 14/236/31 12/111/31 102/110/31
f 92/238/34 156/246/34 155/239/34
f 65/240/34 129/247/34 130/241/34
f 32/243/31 30/104/31 111/106/31
f 92/238/34 93/251/34 157/245/34
f 67/100/34 131/253/34 129/247/34
f 50/248/31 48/91/31 120/90/31
f 94/250/34 158/257/34 157/245/34
f 68/252/34 132/259/34 131/253/34
f 14/236/31 103/237/31 104/254/31
f 95/256/34 159/263/34 158/257/34
f 68/252/34 69/265/34 133/258/34
f 32/243/31 112/244/31 113/260/31
f 96/262/34 160/268/34 159/263/34
f 70/264/34 134/270/34 133/258/34
f 50/248/31 121/249/31 122/266/31
f 66/242/34 130/241/34 160/268/34
f 71/269/34 135/274/34 134/270/34
f 16/255/31 104/254/31 105/271/31
f 72/273/34 136/278/34 135/274/34
f 34/261/31 113/260/31 114/275/31
f 73/277/34 137/282/34 136/278/34
f 52/267/31 122/266/31 123/279/31
f 73/277/34 74/284/34 138/281/34
f 18/272/31 105/271/31 106/283/31
f 75/99/34 139/287/34 138/281/34
f 36/276/31 114/275/31 115/285/31
f 2/235/31 98/234/31 97/286/31
f 76/164/34 140/165/34 139/287/34
f 54/280/31 123/279/31 124/288/31
