# Blender v3.5.1 OBJ File: 'map.blend'
# www.blender.org
mtllib Plane.002.mtl
o Plane.002
v -34.666672 6.523879 31.712521
v -10.578790 6.523879 31.712521
v -34.666672 6.523879 13.022782
v -10.578790 6.523879 13.022782
v -33.250290 6.523879 31.712521
v -33.250290 6.523879 13.022782
v -34.666672 6.523879 0.275314
v -33.250290 6.523879 0.275314
v -23.335588 6.523879 13.022782
v -23.335588 6.523879 0.275314
v -23.335588 6.523879 31.712521
v -34.666672 6.523879 8.773625
v -33.250290 6.523879 8.773625
v -23.335588 6.523879 8.773625
v -8.463541 6.523879 13.022782
v -8.463541 6.523879 8.773625
v -10.578791 6.523879 8.773625
v -10.578790 6.523879 15.678505
v -8.463541 6.523879 15.678505
v -33.250290 6.523879 -7.514811
v -23.335588 6.523879 -7.514811
v -34.666672 3.182158 13.022782
v -34.666672 3.182158 31.712521
v -23.335588 3.182158 31.712521
v -10.578790 3.182158 31.712521
v -10.578790 3.182158 13.022782
v -33.250290 3.182158 31.712521
v -23.335588 3.182158 8.773625
v -33.250290 3.182158 0.275314
v -34.666672 3.182158 0.275314
v -34.666672 3.182158 8.773625
v -23.335588 3.182158 0.275314
v -8.463541 3.182158 13.022782
v -8.463541 3.182158 8.773625
v -10.578791 3.182158 8.773625
v -10.578790 3.182158 15.678505
v -8.463541 3.182158 15.678505
v -23.335588 3.182158 -7.514811
v -33.250290 3.182158 -7.514811
vt 0.982185 1.000000
vt 1.000000 0.000000
vt 0.982185 0.000000
vt 0.000000 1.000000
vt 0.964369 0.000000
vt 0.000000 0.000000
vt 0.000000 1.000000
vt 0.964369 1.000000
vt 0.000000 1.000000
vt 0.964369 1.000000
vt 0.964369 1.000000
vt 0.964369 1.000000
vt 0.964369 1.000000
vt 0.964369 1.000000
vt 0.964369 1.000000
vt 0.964369 1.000000
vt 0.964369 1.000000
vt 0.964369 1.000000
vt 0.964369 1.000000
vt 0.964369 1.000000
vt 0.964369 1.000000
vt 0.964369 0.000000
vt 0.964369 1.000000
vt 0.964369 1.000000
vt 0.964369 1.000000
vt 0.964369 1.000000
vt 0.964369 1.000000
vt 0.964369 1.000000
vt 0.964369 1.000000
vt 0.000000 1.000000
vt 0.000000 1.000000
vt 0.964369 1.000000
vt 0.000000 1.000000
vt 0.964369 1.000000
vt 0.982185 0.000000
vt 0.964369 1.000000
vt 1.000000 1.000000
vt 1.000000 0.000000
vt 0.964369 1.000000
vt 0.964369 1.000000
vt 0.000000 0.000000
vt 1.000000 1.000000
vn 0.0000 -1.0000 0.0000
vn -1.0000 0.0000 0.0000
vn 0.0000 0.0000 -1.0000
vn 0.0000 0.0000 1.0000
vn 1.0000 0.0000 0.0000
usemtl None
s off
f 9/1/1 2/2/1 11/3/1
f 3/4/1 5/5/1 1/6/1
f 7/7/1 13/8/1 12/9/1
f 14/10/1 6/11/1 13/8/1
f 6/11/1 11/3/1 5/5/1
f 10/12/1 13/8/1 8/13/1
f 12/9/1 6/11/1 3/4/1
f 16/14/1 4/15/1 17/16/1
f 17/16/1 9/17/1 14/10/1
f 19/18/1 4/15/1 15/19/1
f 20/20/1 10/12/1 8/13/1
f 16/14/2 33/21/2 15/19/2
f 11/3/3 27/22/3 5/5/3
f 20/20/4 38/23/4 21/24/4
f 14/10/4 35/25/4 17/16/4
f 8/13/5 39/26/5 20/20/5
f 7/7/4 29/27/4 8/13/4
f 18/28/5 26/29/5 4/15/5
f 1/6/5 22/30/5 3/4/5
f 12/9/5 30/31/5 7/7/5
f 21/24/2 32/32/2 10/12/2
f 3/4/5 31/33/5 12/9/5
f 17/16/4 34/34/4 16/14/4
f 2/2/3 24/35/3 11/3/3
f 15/19/2 37/36/2 19/18/2
f 4/37/2 25/38/2 2/2/2
f 10/12/2 28/39/2 14/10/2
f 19/18/3 36/40/3 18/28/3
f 5/5/3 23/41/3 1/6/3
f 9/1/1 4/37/1 2/2/1
f 3/4/1 6/11/1 5/5/1
f 7/7/1 8/13/1 13/8/1
f 14/10/1 9/17/1 6/11/1
f 6/11/1 9/1/1 11/3/1
f 10/12/1 14/10/1 13/8/1
f 12/9/1 13/8/1 6/11/1
f 16/14/1 15/19/1 4/15/1
f 17/16/1 4/15/1 9/17/1
f 19/18/1 18/28/1 4/15/1
f 20/20/1 21/24/1 10/12/1
f 16/14/2 34/34/2 33/21/2
f 11/3/3 24/35/3 27/22/3
f 20/20/4 39/26/4 38/23/4
f 14/10/4 28/39/4 35/25/4
f 8/13/5 29/27/5 39/26/5
f 7/7/4 30/31/4 29/27/4
f 18/28/5 36/40/5 26/29/5
f 1/6/5 23/41/5 22/30/5
f 12/9/5 31/33/5 30/31/5
f 21/24/2 38/23/2 32/32/2
f 3/4/5 22/30/5 31/33/5
f 17/16/4 35/25/4 34/34/4
f 2/2/3 25/38/3 24/35/3
f 15/19/2 33/21/2 37/36/2
f 4/37/2 26/42/2 25/38/2
f 10/12/2 32/32/2 28/39/2
f 19/18/3 37/36/3 36/40/3
f 5/5/3 27/22/3 23/41/3
