# Blender 3.5.0
# www.blender.org
mtllib ladder.mtl
o Cube.016
v 22.093264 0.167196 0.370575
v 22.093264 10.743145 0.370575
v 22.093264 0.167196 -0.370575
v 22.093264 10.743145 -0.370575
v 22.834414 0.167196 0.370575
v 22.834414 10.743145 0.370575
v 22.834414 0.167196 -0.370575
v 22.834414 10.743145 -0.370575
vn -1.0000 -0.0000 -0.0000
vn -0.0000 -0.0000 -1.0000
vn 1.0000 -0.0000 -0.0000
vn -0.0000 -0.0000 1.0000
vn -0.0000 -1.0000 -0.0000
vn -0.0000 1.0000 -0.0000
vt 0.375000 0.000000
vt 0.375000 1.000000
vt 0.125000 0.750000
vt 0.625000 0.000000
vt 0.625000 1.000000
vt 0.875000 0.750000
vt 0.375000 0.250000
vt 0.125000 0.500000
vt 0.625000 0.250000
vt 0.875000 0.500000
vt 0.375000 0.750000
vt 0.625000 0.750000
vt 0.375000 0.500000
vt 0.625000 0.500000
s 0
f 1/1/1 2/4/1 4/9/1 3/7/1
f 3/7/2 4/9/2 8/14/2 7/13/2
f 7/13/3 8/14/3 6/12/3 5/11/3
f 5/11/4 6/12/4 2/5/4 1/2/4
f 3/8/5 7/13/5 5/11/5 1/3/5
f 8/14/6 4/10/6 2/6/6 6/12/6
o Cube.017
v 14.608687 0.167196 -14.577427
v 14.608687 8.375476 -14.577427
v 14.608687 0.167196 -15.318579
v 14.608687 8.375476 -15.318579
v 15.349839 0.167196 -14.577427
v 15.349839 8.375476 -14.577427
v 15.349839 0.167196 -15.318579
v 15.349839 8.375476 -15.318579
vn -1.0000 -0.0000 -0.0000
vn -0.0000 -0.0000 -1.0000
vn 1.0000 -0.0000 -0.0000
vn -0.0000 -0.0000 1.0000
vn -0.0000 -1.0000 -0.0000
vn -0.0000 1.0000 -0.0000
vt 0.375000 0.000000
vt 0.375000 1.000000
vt 0.125000 0.750000
vt 0.625000 0.000000
vt 0.625000 1.000000
vt 0.875000 0.750000
vt 0.375000 0.250000
vt 0.125000 0.500000
vt 0.625000 0.250000
vt 0.875000 0.500000
vt 0.375000 0.750000
vt 0.625000 0.750000
vt 0.375000 0.500000
vt 0.625000 0.500000
s 0
f 9/15/7 10/18/7 12/23/7 11/21/7
f 11/21/8 12/23/8 16/28/8 15/27/8
f 15/27/9 16/28/9 14/26/9 13/25/9
f 13/25/10 14/26/10 10/19/10 9/16/10
f 11/22/11 15/27/11 13/25/11 9/17/11
f 16/28/12 12/24/12 10/20/12 14/26/12
o Cube.019
v -8.895080 -0.303384 -18.869213
v -10.059044 22.282110 -18.429686
v -9.352994 -0.308126 -19.676807
v -10.516957 22.277369 -19.237280
v -8.713908 -0.292429 -18.972067
v -9.877872 22.293066 -18.532539
v -9.171823 -0.297171 -19.779661
v -10.335786 22.288324 -19.340134
vn -0.8685 -0.0543 0.4928
vn -0.4933 -0.0085 -0.8698
vn 0.8685 0.0543 -0.4928
vn 0.4933 0.0085 0.8698
vn 0.0482 -0.9986 -0.0215
vn -0.0482 0.9986 0.0215
vt 0.375000 0.000000
vt 0.375000 1.000000
vt 0.125000 0.750000
vt 0.625000 0.000000
vt 0.625000 1.000000
vt 0.875000 0.750000
vt 0.375000 0.250000
vt 0.125000 0.500000
vt 0.625000 0.250000
vt 0.875000 0.500000
vt 0.375000 0.750000
vt 0.625000 0.750000
vt 0.375000 0.500000
vt 0.625000 0.500000
s 0
f 17/29/13 18/32/13 20/37/13 19/35/13
f 19/35/14 20/37/14 24/42/14 23/41/14
f 23/41/15 24/42/15 22/40/15 21/39/15
f 21/39/16 22/40/16 18/33/16 17/30/16
f 19/36/17 23/41/17 21/39/17 17/31/17
f 24/42/18 20/38/18 18/34/18 22/40/18
