# Blender 3.4.1
# www.blender.org
o collision
v -8.598572 0.135715 0.758625
v -8.598572 1.233029 0.758625
v -8.598572 0.135715 -0.435660
v -8.598572 1.233029 -0.435660
v -7.802864 0.135715 0.758625
v -7.802864 1.233029 0.758625
v -7.802864 0.135715 -0.435660
v -7.802864 1.233029 -0.435660
v -31.178528 -1.207147 32.830776
v -31.178528 15.809552 32.830776
v -31.178528 -1.207147 -19.456009
v -31.178528 15.809552 -19.456009
v 21.108257 -1.207147 32.830776
v 21.108257 15.809552 32.830776
v 21.108257 -1.207147 -19.456009
v 21.108257 15.809552 -19.456009
v -8.732777 0.001510 0.161482
v -8.721880 0.684372 0.881933
v -8.732777 1.367234 0.161482
v -8.721880 0.684372 -0.558968
v -8.200718 0.046299 -0.525076
v -8.200718 1.322445 -0.525076
v -7.679556 0.684372 -0.558968
v -7.668660 0.001510 0.161482
v -7.668660 1.367234 0.161482
v -7.679556 0.684372 0.881933
v -8.200718 0.046299 0.848041
v -8.200718 1.322445 0.848041
v -8.200718 1.606826 0.161482
v -8.200718 -0.238083 0.161482
v -8.200718 0.684372 1.097805
v -7.381136 0.684372 0.161482
v -8.200718 0.684372 -0.774840
v -9.020300 0.684372 0.161482
vn -0.8870 0.3284 -0.3247
vn 0.3267 0.3142 -0.8914
vn 0.8870 0.3284 0.3247
vn -0.3267 0.3142 0.8914
vn 0.3431 -0.8819 0.3234
vn -0.3431 0.8819 0.3234
vn -1.0000 -0.0000 -0.0000
vn -0.0000 -0.0000 -1.0000
vn 1.0000 -0.0000 -0.0000
vn -0.0000 -0.0000 1.0000
vn -0.0000 1.0000 -0.0000
vn 0.3431 0.8819 0.3234
vn 0.3431 0.8819 -0.3234
vn -0.3431 0.8819 -0.3234
vn -0.3431 -0.8819 0.3234
vn -0.3431 -0.8819 -0.3234
vn 0.3431 -0.8819 -0.3234
vn -0.3267 -0.3142 0.8914
vn 0.3267 -0.3142 0.8914
vn 0.3267 0.3142 0.8914
vn 0.8870 -0.3284 0.3247
vn 0.8870 -0.3284 -0.3247
vn 0.8870 0.3284 -0.3247
vn 0.3267 -0.3142 -0.8914
vn -0.3267 -0.3142 -0.8914
vn -0.3267 0.3142 -0.8914
vn -0.8870 -0.3284 -0.3247
vn -0.8870 -0.3284 0.3247
vn -0.8870 0.3284 0.3247
vt -0.841577 0.514185
vt -0.018520 1.966577
vt -0.018520 0.235815
vt 0.611640 1.966577
vt 1.841580 0.514187
vt 0.611639 0.235815
vt -0.841577 0.368957
vt -0.018520 -0.716577
vt -0.018520 0.381044
vt 0.611639 0.381044
vt 1.841579 0.368958
vt 0.611640 -0.716577
vt -0.696348 0.514186
vt -0.018520 1.821348
vt -0.018520 0.514185
vt 0.611639 0.514185
vt 1.696351 0.514187
vt 0.611640 1.821349
vt -0.696348 0.368957
vt -0.018520 0.368956
vt -0.018520 -0.571347
vt 0.611640 -0.571348
vt 1.696351 0.368958
vt 0.611639 0.368956
vt 0.286203 -4.130860
vt 0.286212 4.771581
vt 2.413291 -4.130860
vt 2.413300 4.771580
vt 4.646602 4.880858
vt 0.286208 2.404993
vt 0.286205 -3.521581
vt 2.413296 2.404992
vt 2.413293 -3.521581
vt 4.646581 -1.655008
vt 0.286210 4.880861
vt 0.286199 -1.764261
vt 2.413298 4.880862
vt 2.413286 -1.764261
vt -1.889252 4.880883
vt 0.286208 3.014263
vt 0.286204 -1.654995
vt 2.413296 3.014261
vt 2.413292 -1.654993
vt -1.889272 -1.654987
vt -0.841577 0.441571
vt -0.018520 0.308429
vt 0.296560 1.966577
vt 0.296560 0.235815
vt 1.841580 0.441572
vt 0.611639 0.308429
vt 0.296560 -0.716577
vt 0.296560 0.381044
vt -0.768963 0.368957
vt -0.018520 -0.643962
vt 1.768965 0.368958
vt 0.611640 -0.643962
vt 0.296559 0.368956
vt 0.296560 -0.571348
vt -0.696348 0.441571
vt -0.018520 0.441570
vt 1.696351 0.441572
vt 0.611639 0.441571
vt 0.296560 1.821348
vt 0.296560 0.514185
vt -0.768962 0.514186
vt -0.018520 1.893963
vt 1.768965 0.514187
vt 0.611640 1.893963
vt 1.768965 0.441572
vt -0.768963 0.441571
vt 0.296560 1.893963
vt 0.296560 0.441570
vt 0.296560 -0.643962
vt 0.296560 0.308429
s 0
f 34/74/1 19/50/1 4/10/1 20/52/1
f 33/73/2 22/56/2 8/22/2 23/58/2
f 32/72/3 25/62/3 6/16/3 26/64/3
f 31/71/4 28/68/4 2/4/4 18/47/4
f 30/70/5 24/59/5 5/13/5 27/65/5
f 29/69/6 19/49/6 2/5/6 28/67/6
f 9/25/7 10/27/7 12/32/7 11/30/7
f 11/31/8 12/33/8 16/42/8 15/40/8
f 15/41/9 16/43/9 14/37/9 13/35/9
f 13/36/10 14/38/10 10/28/10 9/26/10
f 16/44/11 12/34/11 10/29/11 14/39/11
f 25/61/12 29/69/12 28/67/12 6/17/12
f 8/23/13 22/55/13 29/69/13 25/61/13
f 22/55/14 4/11/14 19/49/14 29/69/14
f 17/45/15 30/70/15 27/65/15 1/1/15
f 3/7/16 21/53/16 30/70/16 17/45/16
f 21/53/17 7/19/17 24/59/17 30/70/17
f 27/66/18 31/71/18 18/47/18 1/2/18
f 5/14/19 26/63/19 31/71/19 27/66/19
f 26/63/20 6/18/20 28/68/20 31/71/20
f 24/60/21 32/72/21 26/64/21 5/15/21
f 7/20/22 23/57/22 32/72/22 24/60/22
f 23/57/23 8/24/23 25/62/23 32/72/23
f 21/54/24 33/73/24 23/58/24 7/21/24
f 3/8/25 20/51/25 33/73/25 21/54/25
f 20/51/26 4/12/26 22/56/26 33/73/26
f 17/46/27 34/74/27 20/52/27 3/9/27
f 1/3/28 18/48/28 34/74/28 17/46/28
f 18/48/29 2/6/29 19/50/29 34/74/29
