# Blender 3.5.0
# www.blender.org
mtllib baseflinger.mtl
o baseflinger
v -22.194736 -1.478370 19.205593
v -22.194736 1.706019 19.205593
v -22.194736 -1.478370 18.574314
v -22.194736 1.706019 18.574314
v -21.563457 -1.478370 19.205593
v -21.563457 1.706019 19.205593
v -21.563457 -1.478370 18.574314
v -21.563457 1.706019 18.574314
vn -1.0000 -0.0000 -0.0000
vn -0.0000 -0.0000 -1.0000
vn 1.0000 -0.0000 -0.0000
vn -0.0000 -0.0000 1.0000
vn -0.0000 -1.0000 -0.0000
vn -0.0000 1.0000 -0.0000
vt -0.039923 0.000000
vt -0.039923 1.000000
vt 0.125000 0.750000
vt 1.506917 0.000000
vt 1.506917 1.000000
vt 0.875000 0.750000
vt -0.039923 0.250000
vt 0.125000 0.500000
vt 1.506917 0.250000
vt 0.875000 0.500000
vt -0.039923 0.750000
vt 0.375000 0.750000
vt 1.506917 0.750000
vt 0.625000 0.750000
vt -0.039923 0.500000
vt 0.375000 0.500000
vt 1.506917 0.500000
vt 0.625000 0.500000
s 0
usemtl Material.003
f 1/1/1 2/4/1 4/9/1 3/7/1
f 3/7/2 4/9/2 8/17/2 7/15/2
f 7/15/3 8/17/3 6/13/3 5/11/3
f 5/11/4 6/13/4 2/5/4 1/2/4
f 3/8/5 7/16/5 5/12/5 1/3/5
f 8/18/6 4/10/6 2/6/6 6/14/6
