# Blender 3.5.0
# www.blender.org
mtllib plank.mtl
o Cube
v -2.325987 0.780596 36.168362
v -2.325987 0.884293 36.168362
v -2.325987 0.780596 1.609575
v -2.325987 0.884293 1.609575
v -1.392754 0.780596 36.168362
v -1.392754 0.884293 36.168362
v -1.392754 0.780596 1.609575
v -1.392754 0.884293 1.609575
vn -1.0000 -0.0000 -0.0000
vn -0.0000 -0.0000 -1.0000
vn 1.0000 -0.0000 -0.0000
vn -0.0000 -0.0000 1.0000
vn -0.0000 -1.0000 -0.0000
vn -0.0000 1.0000 -0.0000
vt -86.437782 0.249999
vt 0.000000 0.250000
vt 0.000000 -42.968891
vt -86.437782 0.749999
vt 0.000000 0.750000
vt 0.000000 -42.968891
vt 1.000000 0.250000
vt 0.000000 0.250000
vt 0.000000 0.750000
vt 1.000000 0.750000
vt 0.000000 0.750000
vt -86.437775 0.250001
vt 1.000000 0.250000
vt 1.000000 -42.968891
vt -86.437775 0.750001
vt 1.000000 0.750000
vt 1.000000 -42.968891
vt 1.000000 0.250000
vt 1.000000 0.750000
vt 1.000000 0.750000
s 0
usemtl Material
f 1/1/1 2/4/1 4/10/1 3/7/1
f 3/8/2 4/11/2 8/20/2 7/18/2
f 7/18/3 8/20/3 6/15/3 5/12/3
f 5/13/4 6/16/4 2/5/4 1/2/4
f 3/9/5 7/19/5 5/14/5 1/3/5
f 8/20/6 4/11/6 2/6/6 6/17/6
