# Blender 3.5.1
# www.blender.org
mtllib jon.mtl
o lift4
v -19.897345 -14.545414 -30.431234
v -20.677633 -14.545414 -30.431234
v -21.848066 -14.545414 -30.431234
v -21.848066 -14.545414 -29.260803
v -18.726913 -14.545414 -29.260803
v -18.726913 -14.545414 -30.431234
v -18.726913 -14.545414 -32.381954
v -21.848066 -14.545414 -32.381954
v -21.848066 -14.545414 -31.211523
v -20.677633 -14.545414 -31.211523
v -19.897345 -14.545414 -31.211523
v -18.726913 -14.545414 -31.211523
v -21.848066 -14.155266 -29.260803
v -18.726913 -14.155266 -29.260803
v -18.726913 -14.155266 -32.381954
v -21.848066 -14.155266 -32.381954
v -19.897345 -18.446854 -30.431234
v -20.677633 -18.446854 -30.431234
v -20.677633 -18.446854 -31.211523
v -19.897345 -18.446854 -31.211523
vn -0.0000 -1.0000 -0.0000
vn -0.0000 -0.0000 1.0000
vn 1.0000 -0.0000 -0.0000
vn -1.0000 -0.0000 -0.0000
vn -0.0000 -0.0000 -1.0000
vn -0.0000 1.0000 -0.0000
vt -13.500000 20.500000
vt -13.375000 27.031250
vt -13.375000 -37.468750
vt -14.000000 20.500000
vt -13.375000 28.031250
vt -13.375000 -37.468750
vt -14.750000 20.500000
vt -107.000000 -18.500000
vt -14.750000 19.750000
vt -107.000000 15.000000
vt -107.000000 -17.750000
vt -12.750000 19.750000
vt -107.000000 13.000000
vt -107.000000 -17.750000
vt -12.750000 20.500000
vt -107.000000 -18.500000
vt -12.750000 21.750000
vt -107.000000 -19.750000
vt -107.000000 13.000000
vt -14.750000 21.750000
vt -107.000000 -19.750000
vt -107.000000 15.000000
vt -14.750000 21.000000
vt -107.000000 -19.000000
vt -14.000000 21.000000
vt -13.375000 -38.468750
vt -13.375000 28.031250
vt -13.500000 21.000000
vt -13.375000 27.031250
vt -13.375000 -38.468750
vt -12.750000 21.000000
vt -107.000000 -19.000000
vt -106.000000 15.000000
vt -106.000000 -17.750000
vt -14.750000 19.750000
vt -106.000000 13.000000
vt -106.000000 -17.750000
vt -12.750000 19.750000
vt -106.000000 -19.750000
vt -106.000000 13.000000
vt -12.750000 21.750000
vt -106.000000 -19.750000
vt -106.000000 15.000000
vt -14.750000 21.750000
vt -14.625000 27.031250
vt 9.750000 27.031250
vt -14.625000 -37.468750
vt -14.625000 28.031250
vt -14.625000 -37.468750
vt 9.750000 28.031250
vt -14.625000 -38.468750
vt 10.000000 28.031250
vt -14.625000 28.031250
vt 10.000000 27.031250
vt -14.625000 27.031250
vt -14.625000 -38.468750
s 0
usemtl CRETE2_FLR03A_RM0
f 6/15/1 5/12/1 4/9/1 3/7/1 2/4/1 1/1/1
f 12/31/1 11/28/1 10/25/1 9/23/1 8/20/1 7/17/1
f 11/28/1 12/31/1 6/15/1 1/1/1
f 10/25/1 2/4/1 3/7/1 9/23/1
f 15/41/6 16/44/6 13/35/6 14/38/6
usemtl CRETE2_FLR03C_RM0
f 14/36/2 13/33/2 4/10/2 5/13/2
f 14/37/3 5/14/3 6/16/3 12/32/3 7/18/3 15/39/3
f 16/42/4 8/21/4 9/24/4 3/8/4 4/11/4 13/34/4
f 16/43/5 15/40/5 7/19/5 8/22/5
usemtl GENERIC031B_RM0
f 2/5/2 18/48/2 17/45/2 1/2/2
f 10/26/4 19/51/4 18/49/4 2/6/4
f 17/46/1 18/50/1 19/52/1 20/54/1
f 11/29/5 20/55/5 19/53/5 10/27/5
f 1/3/3 17/47/3 20/56/3 11/30/3
