# Blender 3.5.1
# www.blender.org
mtllib phil.mtl
o lift2
v -7.412737 -14.545414 -32.381954
v -8.193025 -14.545414 -32.381954
v -9.363457 -14.545414 -32.381954
v -9.363457 -14.545414 -31.211523
v -6.242304 -14.545414 -31.211523
v -6.242304 -14.545414 -32.381954
v -6.242304 -14.545414 -34.332676
v -9.363457 -14.545414 -34.332676
v -9.363457 -14.545414 -33.162243
v -8.193025 -14.545414 -33.162243
v -7.412737 -14.545414 -33.162243
v -6.242304 -14.545414 -33.162243
v -6.242304 -14.155266 -34.332676
v -9.363457 -14.155266 -34.332676
v -9.363457 -14.155266 -31.211523
v -6.242304 -14.155266 -31.211523
v -7.412737 -18.446854 -32.381954
v -8.193025 -18.446854 -32.381954
v -8.193025 -18.446854 -33.162243
v -7.412737 -18.446854 -33.162243
vn -0.0000 -1.0000 -0.0000
vn -0.0000 -0.0000 -1.0000
vn -1.0000 -0.0000 -0.0000
vn -0.0000 -0.0000 1.0000
vn 1.0000 -0.0000 -0.0000
vn -0.0000 1.0000 -0.0000
vt -5.500000 21.750000
vt -13.375000 11.031250
vt -13.375000 -39.968750
vt -6.000000 21.750000
vt -13.375000 12.031250
vt -13.375000 -39.968750
vt -6.750000 21.750000
vt -107.000000 -19.750000
vt -6.750000 21.000000
vt -107.000000 -19.000000
vt -6.750000 -25.750000
vt -4.750000 21.000000
vt -4.750000 -25.750000
vt -107.000000 -19.000000
vt -4.750000 21.750000
vt -107.000000 -19.750000
vt -4.750000 23.000000
vt -107.000000 5.000000
vt -107.000000 -21.000000
vt -6.750000 23.000000
vt -107.000000 7.000000
vt -107.000000 -21.000000
vt -6.750000 22.250000
vt -107.000000 -20.250000
vt -6.000000 22.250000
vt -13.375000 -40.968750
vt -13.375000 12.031250
vt -5.500000 22.250000
vt -13.375000 -40.968750
vt -13.375000 11.031250
vt -4.750000 22.250000
vt -107.000000 -20.250000
vt -106.000000 5.000000
vt -106.000000 -21.000000
vt -4.750000 23.000000
vt -106.000000 7.000000
vt -106.000000 -21.000000
vt -6.750000 23.000000
vt -106.000000 -19.000000
vt -6.750000 -25.500000
vt -6.750000 21.000000
vt -4.750000 -25.500000
vt -106.000000 -19.000000
vt -4.750000 21.000000
vt -14.625000 11.031250
vt 10.375000 11.031250
vt -14.625000 -39.968750
vt -14.625000 12.031250
vt -14.625000 -39.968750
vt 10.375000 12.031250
vt -14.625000 -40.968750
vt 10.625000 12.031250
vt -14.625000 12.031250
vt 10.625000 11.031250
vt -14.625000 -40.968750
vt -14.625000 11.031250
s 0
usemtl CRETE2_FLR03A_RM0
f 6/15/1 5/12/1 4/9/1 3/7/1 2/4/1 1/1/1
f 12/31/1 11/28/1 10/25/1 9/23/1 8/20/1 7/17/1
f 11/28/1 12/31/1 6/15/1 1/1/1
f 10/25/1 2/4/1 3/7/1 9/23/1
f 16/42/4 15/40/4 4/11/4 5/13/4
f 13/35/6 14/38/6 15/41/6 16/44/6
usemtl CRETE2_FLR03C_RM0
f 14/36/2 13/33/2 7/18/2 8/21/2
f 14/37/3 8/22/3 9/24/3 3/8/3 4/10/3 15/39/3
f 16/43/5 5/14/5 6/16/5 12/32/5 7/19/5 13/34/5
usemtl GENERIC031B_RM0
f 2/5/4 18/48/4 17/45/4 1/2/4
f 10/26/3 19/51/3 18/49/3 2/6/3
f 17/46/1 18/50/1 19/52/1 20/54/1
f 1/3/5 17/47/5 20/55/5 11/29/5
f 11/30/2 20/56/2 19/53/2 10/27/2
