# Blender 3.5.1
# www.blender.org
mtllib philbutt.mtl
o func_button_31
v -9.363457 -13.179909 -32.967171
v -9.460993 -13.179909 -32.967171
v -9.460993 -13.179909 -32.577026
v -9.363457 -13.179909 -32.577026
v -9.363457 -12.789764 -32.577026
v -9.656065 -12.789764 -32.577026
v -9.363457 -12.789764 -32.967171
v -9.656065 -12.789764 -32.967171
vn -0.0000 -1.0000 -0.0000
vn -0.0000 -0.0000 1.0000
vn 1.0000 -0.0000 -0.0000
vn -0.0000 -0.0000 -1.0000
vn -0.0000 1.0000 -0.0000
vn -0.8944 -0.4472 -0.0000
vt -12.000000 43.250000
vt 85.000000 -103.000000
vt -12.000000 -50.750000
vt -12.125000 43.250000
vt -12.125000 -50.750000
vt 42.250000 -50.750000
vt -12.125000 42.750000
vt -12.125000 -50.750000
vt 41.750000 -50.750000
vt -12.000000 42.750000
vt -12.000000 -50.750000
vt 84.000000 -103.000000
vt -12.000000 -50.250000
vt 84.000000 -102.000000
vt -12.000000 42.750000
vt -12.375000 -50.250000
vt -12.375000 42.750000
vt 41.750000 -50.250000
vt 85.000000 -102.000000
vt -12.000000 -50.250000
vt -12.000000 43.250000
vt -12.375000 -50.250000
vt -12.375000 43.250000
vt 42.250000 -50.250000
s 0
usemtl STRIPES2_RM0
f 4/10/1 3/7/1 2/4/1 1/1/1
f 6/16/2 3/8/2 4/11/2 5/13/2
f 7/20/4 1/3/4 2/5/4 8/22/4
f 7/21/5 8/23/5 6/17/5 5/15/5
f 8/24/6 2/6/6 3/9/6 6/18/6
usemtl +ABUTTON1_RM0
f 5/14/3 4/12/3 1/2/3 7/19/3
