# Blender 3.5.1
# www.blender.org
mtllib pualbutt.mtl
o func_button_24
v 9.460993 -13.179909 -1.755648
v 9.363457 -13.179909 -1.755648
v 9.363457 -13.179909 -1.365504
v 9.460993 -13.179909 -1.365504
v 9.363457 -12.789764 -1.755648
v 9.656065 -12.789764 -1.755648
v 9.363457 -12.789764 -1.365504
v 9.656065 -12.789764 -1.365504
vn -0.0000 -1.0000 -0.0000
vn -0.0000 -0.0000 -1.0000
vn -1.0000 -0.0000 -0.0000
vn -0.0000 -0.0000 1.0000
vn -0.0000 1.0000 -0.0000
vn 0.8944 -0.4472 -0.0000
vt 12.125000 3.250000
vt 12.125000 -50.750000
vt 2.250000 -50.750000
vt 12.000000 3.250000
vt 12.000000 -50.750000
vt 5.000000 -103.000000
vt 12.000000 2.750000
vt 4.000000 -103.000000
vt 12.000000 -50.750000
vt 12.125000 2.750000
vt 12.125000 -50.750000
vt 1.750000 -50.750000
vt 12.000000 -50.250000
vt 5.000000 -102.000000
vt 12.000000 3.250000
vt 12.375000 -50.250000
vt 12.375000 3.250000
vt 2.250000 -50.250000
vt 4.000000 -102.000000
vt 12.000000 -50.250000
vt 12.000000 2.750000
vt 12.375000 -50.250000
vt 12.375000 2.750000
vt 1.750000 -50.250000
s 0
usemtl STRIPES2_RM0
f 4/10/1 3/7/1 2/4/1 1/1/1
f 6/16/2 1/2/2 2/5/2 5/13/2
f 7/20/4 3/9/4 4/11/4 8/22/4
f 6/17/5 5/15/5 7/21/5 8/23/5
f 8/24/6 4/12/6 1/3/6 6/18/6
usemtl +ABUTTON1_RM0
f 5/14/3 2/6/3 3/8/3 7/19/3
