# Blender 3.5.0
# www.blender.org
mtllib breakable5.mtl
o map.008
v -33.449921 -4.780644 29.517565
v -33.449921 -2.391364 29.517565
v -33.449921 -2.391364 29.716671
v -33.449921 -4.780644 29.716671
v -31.857069 -2.391364 29.716671
v -31.857069 -4.780644 29.716671
v -31.857069 -4.780644 29.517565
v -31.857069 -2.391364 29.517565
vn -1.0000 -0.0000 -0.0000
vn -0.0000 -0.0000 1.0000
vn -0.0000 -0.0000 -1.0000
vt -36.625000 -5.000000
vt -42.000000 -5.000000
vt -36.625000 -2.000000
vt -42.000000 -2.000000
vt -36.875000 -2.000000
vt -42.000000 -2.000000
vt -36.875000 -5.000000
vt -42.000000 -5.000000
vt -40.000000 -2.000000
vt -40.000000 -5.000000
vt -40.000000 -5.000000
vt -40.000000 -2.000000
s 0
usemtl stone
f 4/7/1 3/5/1 2/3/1 1/1/1
f 3/6/2 4/8/2 6/10/2 5/9/2
f 8/12/3 7/11/3 1/2/3 2/4/3
