# Blender 3.5.0
# www.blender.org
mtllib breakable3.mtl
o breakable3
v -39.821335 -3.984221 4.778561
v -39.821335 -4.780648 4.778561
v -39.024910 -4.780648 4.778561
v -39.024910 -4.780648 3.982134
v -39.024910 -3.984221 4.778561
v -39.821335 -3.984221 3.982134
v -39.024910 -3.984221 3.185707
v -39.024910 -4.780648 3.185707
v -39.024910 -3.984221 3.982134
v -39.821335 -4.780648 3.982134
v -39.821335 -4.780648 3.185707
v -39.024910 -3.187794 3.185707
v -39.821335 -3.984221 3.185707
v -39.821335 -3.187794 3.185707
v -39.821335 -3.187794 3.982134
v -39.024910 -3.187794 4.778561
v -39.821335 -3.187794 4.778561
v -39.821335 -2.391367 4.778560
v -39.024910 -2.391367 4.778560
v -39.024910 -2.391367 3.982134
v -39.024910 -3.187794 3.982134
v -39.821335 -2.391367 3.982134
v -39.821331 -3.984221 4.778560
v -39.024906 -3.984221 4.778560
v -39.821331 -3.984221 3.982134
v -39.024906 -3.984221 3.982134
v -39.024906 -3.187794 3.185707
v -39.821331 -3.187794 3.185707
v -39.821331 -3.187794 3.982133
v -39.024906 -3.187794 4.778560
v -39.821331 -3.187794 4.778560
v -39.024906 -2.391367 3.982133
v -39.024906 -2.391367 3.185707
v -39.024906 -3.187794 3.982133
v -39.821331 -2.391367 3.185707
v -39.821331 -2.391367 3.982133
vn -1.0000 -0.0000 -0.0000
vn 1.0000 -0.0000 -0.0000
vn -0.0000 -0.0000 1.0000
vn -0.0000 -0.0000 -1.0000
vn -0.0000 -1.0000 -0.0000
vn -0.0000 1.0000 -0.0000
vt -6.000000 -4.000000
vt -50.000000 -4.000000
vt -50.000000 -6.000000
vt -6.000000 -5.000000
vt -50.000000 -5.000000
vt -50.000000 -6.000000
vt -6.000000 -5.000000
vt -49.000000 -5.000000
vt -49.000000 -6.000000
vt 49.000000 -5.000000
vt -5.000000 -5.000000
vt -49.000000 -5.000000
vt -6.000000 -4.000000
vt -49.000000 -4.000000
vt -49.000000 -6.000000
vt 50.000000 -4.000000
vt -50.000000 -5.000000
vt -5.000000 -4.000000
vt -50.000000 -4.000000
vt -49.000000 -4.000000
vt -4.000000 -4.000000
vt 49.000000 -4.000000
vt -4.000000 -5.000000
vt 49.000000 -5.000000
vt -49.000000 -4.000000
vt 49.000000 -4.000000
vt -49.000000 -5.000000
vt -5.000000 -4.000000
vt -49.000000 -4.000000
vt 50.000000 -5.000000
vt -5.000000 -5.000000
vt -50.000000 -5.000000
vt -4.000000 -5.000000
vt 50.000000 -5.000000
vt -50.000000 -4.000000
vt -4.000000 -3.000000
vt 49.000000 -3.000000
vt -49.000000 -4.000000
vt -50.000000 -4.000000
vt -4.000000 -4.000000
vt 50.000000 -4.000000
vt -4.000000 -3.000000
vt 50.000000 -3.000000
vt -50.000000 -4.000000
vt -50.000000 -3.000000
vt -50.000000 -5.000000
vt -5.000000 -3.000000
vt 50.000000 -3.000000
vt -6.000000 -3.000000
vt -49.000000 -3.000000
vt -6.000000 -3.000000
vt -50.000000 -3.000000
vt -6.000000 -2.000000
vt -50.000000 -2.000000
vt -50.000000 -6.000000
vt -6.000000 -2.000000
vt -49.000000 -2.000000
vt -49.000000 -6.000000
vt -5.000000 -2.000000
vt 49.000000 -2.000000
vt -49.000000 -5.000000
vt -49.000000 -3.000000
vt -49.000000 -5.000000
vt -5.000000 -3.000000
vt 49.000000 -3.000000
vt -5.000000 -2.000000
vt 50.000000 -2.000000
vt -50.000000 -5.000000
vt -6.000000 -4.000000
vt -50.000000 -4.000000
vt -6.000000 -4.000000
vt -49.000000 -4.000000
vt -5.000000 -4.000000
vt -5.000000 -4.000000
vt -4.000000 -3.000000
vt 49.000000 -3.000000
vt -4.000000 -3.000000
vt 50.000000 -3.000000
vt -50.000000 -5.000000
vt -5.000000 -3.000000
vt -6.000000 -3.000000
vt -49.000000 -3.000000
vt -49.000000 -6.000000
vt -6.000000 -3.000000
vt -50.000000 -3.000000
vt -50.000000 -6.000000
vt -5.000000 -2.000000
vt -49.000000 -5.000000
vt -4.000000 -2.000000
vt 49.000000 -2.000000
vt -49.000000 -4.000000
vt -49.000000 -5.000000
vt -5.000000 -3.000000
vt -4.000000 -2.000000
vt 50.000000 -2.000000
vt -50.000000 -4.000000
vt -5.000000 -2.000000
vt -50.000000 -5.000000
s 0
usemtl cobble
f 2/4/1 1/1/1 6/18/1 10/31/1
f 4/11/2 9/28/2 5/13/2 3/7/2
f 1/2/3 2/5/3 3/8/3 5/14/3
f 9/26/4 4/10/4 10/30/4 6/16/4
f 3/9/5 2/6/5 10/32/5 4/12/5
f 9/27/6 6/17/6 1/3/6 5/15/6
f 10/31/1 6/18/1 13/40/1 11/33/1
f 8/23/2 7/21/2 9/28/2 4/11/2
f 7/22/4 8/24/4 11/34/4 13/41/4
f 4/12/5 10/32/5 11/35/5 8/25/5
f 7/20/6 13/39/6 6/17/6 9/27/6
f 6/18/1 15/47/1 14/42/1 13/40/1
f 7/21/2 12/36/2 21/64/2 9/28/2
f 15/45/3 6/19/3 9/29/3 21/62/3
f 12/37/4 7/22/4 13/41/4 14/43/4
f 12/38/6 14/44/6 15/46/6 21/63/6
f 17/51/1 18/53/1 22/66/1 15/47/1
f 21/64/2 20/59/2 19/56/2 16/49/2
f 18/54/3 17/52/3 16/50/3 19/57/3
f 20/60/4 21/65/4 15/48/4 22/67/4
f 20/61/6 22/68/6 18/55/6 19/58/6
usemtl damage2
f 23/69/1 31/84/1 29/80/1 25/73/1
f 26/74/2 34/93/2 30/81/2 24/71/2
f 31/85/3 23/70/3 24/72/3 30/82/3
f 34/92/6 29/79/6 31/86/6 30/83/6
f 29/80/1 36/97/1 35/94/1 28/77/1
f 27/75/2 33/89/2 32/87/2 34/93/2
f 33/90/4 27/76/4 28/78/4 35/95/4
f 33/91/6 35/96/6 36/98/6 32/88/6
