# Blender v3.5.1 OBJ File: 'map.blend'
# www.blender.org
o Cube_Cube.003
v -1.091736 -0.467270 2.467974
v -1.091736 3.094656 2.467974
v -1.091736 -0.467270 1.882796
v -1.091736 3.094656 1.882796
v -0.486355 -0.467270 2.467974
v -0.486355 3.094656 2.467974
v -0.486355 -0.467270 1.882796
v -0.486355 3.094656 1.882796
v 10.619144 -0.467270 2.467974
v 10.619144 3.094656 2.467974
v 10.619144 -0.467270 1.882796
v 10.619144 3.094656 1.882796
v 10.013762 -0.467270 2.467974
v 10.013762 3.094656 2.467974
v 10.013762 -0.467270 1.882796
v 10.013762 3.094656 1.882796
vt 0.722620 0.092017
vt 0.277380 0.165165
vt 0.277380 0.092017
vt 0.722620 0.337164
vt 0.277379 0.412836
vt 0.277380 0.337164
vt 0.722621 0.584836
vt 0.277380 0.657983
vt 0.277380 0.584835
vt 0.722620 0.837164
vt 0.277380 0.912836
vt 0.277380 0.837164
vt 0.287836 0.584836
vt 0.212164 0.657983
vt 0.212164 0.584836
vt 0.787836 0.584836
vt 0.712164 0.657983
vt 0.712164 0.584836
vt 0.277380 0.165165
vt 0.722620 0.092017
vt 0.277380 0.092017
vt 0.277379 0.412836
vt 0.722620 0.337164
vt 0.277380 0.337164
vt 0.277380 0.657983
vt 0.722621 0.584836
vt 0.277380 0.584835
vt 0.277380 0.912836
vt 0.722620 0.837164
vt 0.277380 0.837164
vt 0.212164 0.657983
vt 0.287836 0.584836
vt 0.212164 0.584836
vt 0.712164 0.657983
vt 0.787836 0.584836
vt 0.712164 0.584836
vt 0.722621 0.165165
vt 0.722620 0.412836
vt 0.722621 0.657983
vt 0.722620 0.912836
vt 0.287836 0.657983
vt 0.787836 0.657983
vt 0.722621 0.165165
vt 0.722620 0.412836
vt 0.722621 0.657983
vt 0.722620 0.912836
vt 0.287836 0.657983
vt 0.787836 0.657983
vn -1.0000 0.0000 0.0000
vn 0.0000 0.0000 -1.0000
vn 1.0000 0.0000 0.0000
vn 0.0000 0.0000 1.0000
vn 0.0000 -1.0000 0.0000
vn 0.0000 1.0000 0.0000
s off
f 2/1/1 3/2/1 1/3/1
f 4/4/2 7/5/2 3/6/2
f 8/7/3 5/8/3 7/9/3
f 6/10/4 1/11/4 5/12/4
f 7/13/5 1/14/5 3/15/5
f 4/16/6 6/17/6 8/18/6
f 11/19/3 10/20/3 9/21/3
f 15/22/2 12/23/2 11/24/2
f 13/25/1 16/26/1 15/27/1
f 9/28/4 14/29/4 13/30/4
f 9/31/5 15/32/5 11/33/5
f 14/34/6 12/35/6 16/36/6
f 2/1/1 4/37/1 3/2/1
f 4/4/2 8/38/2 7/5/2
f 8/7/3 6/39/3 5/8/3
f 6/10/4 2/40/4 1/11/4
f 7/13/5 5/41/5 1/14/5
f 4/16/6 2/42/6 6/17/6
f 11/19/3 12/43/3 10/20/3
f 15/22/2 16/44/2 12/23/2
f 13/25/1 14/45/1 16/26/1
f 9/28/4 10/46/4 14/29/4
f 9/31/5 13/47/5 15/32/5
f 14/34/6 10/48/6 12/35/6
o Cube.002_Cube.005
v -9.213029 0.435296 -2.425354
v -9.213029 3.997223 -2.425354
v -9.213028 0.435296 -1.840176
v -9.213028 3.997223 -1.840176
v -9.818411 0.435296 -2.425354
v -9.818411 3.997223 -2.425354
v -9.818410 0.435296 -1.840176
v -9.818410 3.997223 -1.840176
vt 0.722620 0.092017
vt 0.277380 0.165165
vt 0.277380 0.092017
vt 0.722620 0.337164
vt 0.277379 0.412836
vt 0.277380 0.337164
vt 0.722621 0.584836
vt 0.277380 0.657983
vt 0.277380 0.584835
vt 0.722620 0.837164
vt 0.277380 0.912836
vt 0.277380 0.837164
vt 0.287836 0.584836
vt 0.212164 0.657983
vt 0.212164 0.584836
vt 0.787836 0.584836
vt 0.712164 0.657983
vt 0.712164 0.584836
vt 0.722621 0.165165
vt 0.722620 0.412836
vt 0.722621 0.657983
vt 0.722620 0.912836
vt 0.287836 0.657983
vt 0.787836 0.657983
vn 1.0000 0.0000 -0.0000
vn 0.0000 0.0000 1.0000
vn -1.0000 0.0000 0.0000
vn 0.0000 0.0000 -1.0000
vn 0.0000 -1.0000 0.0000
vn 0.0000 1.0000 -0.0000
s off
f 18/49/7 19/50/7 17/51/7
f 20/52/8 23/53/8 19/54/8
f 24/55/9 21/56/9 23/57/9
f 22/58/10 17/59/10 21/60/10
f 23/61/11 17/62/11 19/63/11
f 20/64/12 22/65/12 24/66/12
f 18/49/7 20/67/7 19/50/7
f 20/52/8 24/68/8 23/53/8
f 24/55/9 22/69/9 21/56/9
f 22/58/10 18/70/10 17/59/10
f 23/61/11 21/71/11 17/62/11
f 20/64/12 18/72/12 22/65/12
o Cube.001_Cube.006
v -15.058504 3.742415 -2.425354
v -15.058504 7.304341 -2.425354
v -15.058503 3.742415 -1.840176
v -15.058503 7.304341 -1.840176
v -15.663886 3.742415 -2.425354
v -15.663886 7.304341 -2.425354
v -15.663885 3.742415 -1.840176
v -15.663885 7.304341 -1.840176
vt 0.722620 0.092017
vt 0.277380 0.165165
vt 0.277380 0.092017
vt 0.722620 0.337164
vt 0.277379 0.412836
vt 0.277380 0.337164
vt 0.722621 0.584836
vt 0.277380 0.657983
vt 0.277380 0.584835
vt 0.722620 0.837164
vt 0.277380 0.912836
vt 0.277380 0.837164
vt 0.287836 0.584836
vt 0.212164 0.657983
vt 0.212164 0.584836
vt 0.787836 0.584836
vt 0.712164 0.657983
vt 0.712164 0.584836
vt 0.722621 0.165165
vt 0.722620 0.412836
vt 0.722621 0.657983
vt 0.722620 0.912836
vt 0.287836 0.657983
vt 0.787836 0.657983
vn 1.0000 0.0000 -0.0000
vn 0.0000 0.0000 1.0000
vn -1.0000 0.0000 0.0000
vn 0.0000 0.0000 -1.0000
vn 0.0000 -1.0000 0.0000
vn 0.0000 1.0000 0.0000
s off
f 26/73/13 27/74/13 25/75/13
f 28/76/14 31/77/14 27/78/14
f 32/79/15 29/80/15 31/81/15
f 30/82/16 25/83/16 29/84/16
f 31/85/17 25/86/17 27/87/17
f 28/88/18 30/89/18 32/90/18
f 26/73/13 28/91/13 27/74/13
f 28/76/14 32/92/14 31/77/14
f 32/79/15 30/93/15 29/80/15
f 30/82/16 26/94/16 25/83/16
f 31/85/17 29/95/17 25/86/17
f 28/88/18 26/96/18 30/89/18
